<svg width="223" height="162" viewBox="0 0 223 162" fill="none" xmlns="http://www.w3.org/2000/svg">
<g clip-path="url(#clip0_29_993)">
<path d="M70.3764 129.769V39.8637L107.684 24.5967L145.84 28.8375L175.517 82.2721L152.624 100.932L107.684 134.01L70.3764 129.769Z" fill="#FDCD0A" stroke="black"/>
<path d="M141.896 0H81.1045C36.495 0 0 36.448 0 81C0 125.552 36.495 162 81.1045 162H141.896C186.505 162 223 125.552 223 81C223 36.448 186.505 0 141.896 0ZM148.808 87.5506L93.8691 119.511C88.8104 122.453 82.4634 118.813 82.4634 112.961V49.0393C82.4634 43.1948 88.8104 39.5468 93.8691 42.4887L148.808 74.4494C153.835 77.3756 153.835 84.6244 148.808 87.5506Z" fill="#0017C5"/>
</g>
<defs>
<clipPath id="clip0_29_993">
<rect width="223" height="162" fill="white"/>
</clipPath>
</defs>
</svg>
