<svg width="16" height="15" viewBox="0 0 16 15" fill="none" xmlns="http://www.w3.org/2000/svg">
<g clip-path="url(#clip0_2_66)">
<path d="M6.38062 8.98196C6.52512 9.94075 6.52512 9.94075 7.37252 9.94075C9.29969 9.94192 11.2257 9.94192 13.1529 9.94192C13.2685 9.94192 13.3841 9.93606 13.4997 9.94309C13.8696 9.96536 14.3263 9.97122 14.3228 10.46C14.3182 10.9511 13.8639 10.9546 13.4904 10.9558C11.0442 10.9581 8.5968 10.957 6.15056 10.9558C6.03726 10.9558 5.92397 10.9406 5.76559 10.9288C5.35171 9.34532 4.93669 7.76414 4.52397 6.18179C4.15981 4.7858 3.78755 3.39216 3.44189 1.99149C3.35287 1.63048 3.1968 1.4699 2.81645 1.48514C2.29738 1.50506 1.77715 1.46873 1.25692 1.46169C0.867322 1.45583 0.60605 1.27416 0.602582 0.877981C0.599114 0.459538 0.921657 0.396244 1.25461 0.397416C1.9864 0.39976 2.71934 0.411481 3.45114 0.403276C3.85923 0.398588 4.102 0.577921 4.20143 0.978783C4.3101 1.41364 4.45807 1.84029 4.54015 2.27983C4.62223 2.7182 4.81645 2.86354 5.27426 2.86002C8.28004 2.83541 11.2847 2.84713 14.2904 2.8483C14.502 2.8483 14.717 2.83775 14.9251 2.87174C15.4604 2.96082 15.7332 3.3863 15.5436 3.89617C14.9598 5.4668 14.3702 7.03508 13.7297 8.58227C13.6465 8.7827 13.2546 8.96086 13.0026 8.96438C11.0188 8.99485 9.03379 8.98196 7.04998 8.98196C6.83842 8.98196 6.62801 8.98196 6.38062 8.98196Z" fill="white"/>
<path d="M13.531 12.918C13.5287 13.6669 12.9495 14.2483 12.2131 14.2425C11.4882 14.2366 10.8917 13.6177 10.9114 12.891C10.931 12.1807 11.5137 11.597 12.2108 11.5911C12.9414 11.5853 13.5333 12.1795 13.531 12.918Z" fill="white"/>
<path d="M7.43275 14.2436C6.7079 14.2366 6.12524 13.6236 6.14027 12.8863C6.1553 12.1748 6.73449 11.597 7.43853 11.5911C8.15992 11.5841 8.77033 12.1959 8.76455 12.9215C8.75877 13.654 8.15877 14.2506 7.43275 14.2436Z" fill="white"/>
</g>
<defs>
<clipPath id="clip0_2_66">
<rect width="15" height="13.8462" fill="white" transform="translate(0.602692 0.397461)"/>
</clipPath>
</defs>
</svg>
