<svg width="46" height="41" viewBox="0 0 46 41" fill="none" xmlns="http://www.w3.org/2000/svg">
<rect x="0.0222168" y="0.582764" width="45" height="39.5827" rx="19.7914" fill="#005CB9"/>
<path d="M33.2944 15.9047C33.2992 15.8807 33.3088 15.8591 33.3088 15.8327C33.3088 15.8255 33.304 15.8183 33.304 15.8111C33.3016 15.7775 33.292 15.7463 33.2848 15.7151C33.2776 15.6863 33.2728 15.6599 33.2608 15.6335C33.2488 15.6071 33.2296 15.5855 33.2128 15.5615C33.1936 15.5375 33.1792 15.5111 33.1552 15.4895C33.136 15.4703 33.112 15.4583 33.088 15.4439C33.0592 15.4247 33.0304 15.4055 32.9968 15.3935C32.9896 15.3911 32.9848 15.3863 32.9776 15.3839C32.9536 15.3767 32.932 15.3791 32.908 15.3767C32.884 15.3719 32.8624 15.3623 32.836 15.3623H15.676C15.64 15.3623 15.6064 15.3743 15.5728 15.3839L14.4184 11.4551C14.3584 11.2535 14.176 11.1167 13.9648 11.1167H11.1352C10.8736 11.1167 10.6624 11.3279 10.6624 11.5895C10.6624 11.8511 10.8736 12.0623 11.1352 12.0623H13.612L18.232 27.7583C18.292 27.9599 18.4744 28.0967 18.6856 28.0967H19.3528C19.1896 28.3751 19.0912 28.6943 19.0912 29.0399C19.0912 30.0815 19.9384 30.9263 20.9776 30.9263C22.0192 30.9263 22.864 30.0791 22.864 29.0399C22.864 28.6943 22.7632 28.3751 22.6024 28.0967H25.9144C25.7512 28.3751 25.6528 28.6943 25.6528 29.0399C25.6528 30.0815 26.5 30.9263 27.5392 30.9263C28.5808 30.9263 29.4256 30.0791 29.4256 29.0399C29.4256 28.6943 29.3248 28.3751 29.164 28.0967H30.0088C30.2704 28.0967 30.4816 27.8855 30.4816 27.6239C30.4816 27.3623 30.2704 27.1511 30.0088 27.1511H19.036L18.4816 25.2647H30.0064C30.064 25.2647 30.1192 25.2503 30.172 25.2311C30.1888 25.2239 30.2056 25.2143 30.2224 25.2047C30.256 25.1879 30.2848 25.1687 30.3136 25.1423C30.328 25.1279 30.3424 25.1159 30.3568 25.0991C30.3808 25.0727 30.4 25.0415 30.4168 25.0103C30.4264 24.9911 30.4384 24.9743 30.4456 24.9551C30.448 24.9479 30.4528 24.9407 30.4576 24.9335L31.732 20.8967C31.8304 20.8103 31.8952 20.6879 31.8952 20.5463C31.8952 20.5103 31.8832 20.4791 31.876 20.4455L33.2896 15.9695C33.2944 15.9503 33.2896 15.9263 33.2944 15.9047ZM21.9208 29.0399C21.9208 29.5607 21.4984 29.9831 20.9776 29.9831C20.4568 29.9831 20.0344 29.5607 20.0344 29.0399C20.0344 28.5191 20.4568 28.0967 20.9776 28.0967C21.496 28.0967 21.9208 28.5191 21.9208 29.0399ZM28.4824 29.0399C28.4824 29.5607 28.06 29.9831 27.5392 29.9831C27.0184 29.9831 26.596 29.5607 26.596 29.0399C26.596 28.5191 27.0184 28.0967 27.5392 28.0967C28.0576 28.0967 28.4824 28.5191 28.4824 29.0399ZM31.0024 20.0759H30.8296L29.6968 16.3007H32.1928L31.0024 20.0759ZM29.6608 24.3239H29.4088L28.3648 21.0215H30.7024L29.6608 24.3239ZM26.5768 24.3239L25.5328 21.0215H27.3736L28.4176 24.3239H26.5768ZM23.7472 24.3239L22.7032 21.0215H24.544L25.588 24.3239H23.7472ZM20.9176 24.3239L19.8736 21.0215H21.7144L22.7584 24.3239H20.9176ZM20.2264 16.3031L21.4192 20.0783H19.576L18.3832 16.3031H20.2264ZM23.056 16.3031L24.2488 20.0783H22.408L21.2152 16.3031H23.056ZM25.8856 16.3031L27.0784 20.0783H25.2376L24.0448 16.3031H25.8856ZM28.7128 16.3031L29.8456 20.0783H28.0696L26.8768 16.3031H28.7128ZM17.3944 16.3031L18.5872 20.0783H16.9552L15.844 16.3031H17.3944ZM17.2336 21.0215H18.8848L19.9288 24.3239H18.2128C18.2104 24.3239 18.208 24.3263 18.2056 24.3263L17.2336 21.0215Z" fill="white"/>
</svg>
