<svg width="47" height="40" viewBox="0 0 47 40" fill="none" xmlns="http://www.w3.org/2000/svg">
<rect x="0.0444336" width="45" height="39.5827" rx="19.7914" fill="#FFA400"/>
<path d="M33.3166 15.9047C33.3214 15.8807 33.331 15.8591 33.331 15.8327C33.331 15.8255 33.3262 15.8183 33.3262 15.8111C33.3238 15.7775 33.3142 15.7463 33.307 15.7151C33.2998 15.6863 33.295 15.6599 33.283 15.6335C33.271 15.6071 33.2518 15.5855 33.235 15.5615C33.2158 15.5375 33.2014 15.5111 33.1774 15.4895C33.1582 15.4703 33.1342 15.4583 33.1102 15.4439C33.0814 15.4247 33.0526 15.4055 33.019 15.3935C33.0118 15.3911 33.007 15.3863 32.9998 15.3839C32.9758 15.3767 32.9542 15.3791 32.9302 15.3767C32.9062 15.3719 32.8846 15.3623 32.8582 15.3623H15.6982C15.6622 15.3623 15.6286 15.3743 15.595 15.3839L14.4406 11.4551C14.3806 11.2535 14.1982 11.1167 13.987 11.1167H11.1574C10.8958 11.1167 10.6846 11.3279 10.6846 11.5895C10.6846 11.8511 10.8958 12.0623 11.1574 12.0623H13.6342L18.2542 27.7583C18.3142 27.9599 18.4966 28.0967 18.7078 28.0967H19.375C19.2118 28.3751 19.1134 28.6943 19.1134 29.0399C19.1134 30.0815 19.9606 30.9263 20.9998 30.9263C22.0414 30.9263 22.8862 30.0791 22.8862 29.0399C22.8862 28.6943 22.7854 28.3751 22.6246 28.0967H25.9366C25.7734 28.3751 25.675 28.6943 25.675 29.0399C25.675 30.0815 26.5222 30.9263 27.5614 30.9263C28.603 30.9263 29.4478 30.0791 29.4478 29.0399C29.4478 28.6943 29.347 28.3751 29.1862 28.0967H30.031C30.2926 28.0967 30.5038 27.8855 30.5038 27.6239C30.5038 27.3623 30.2926 27.1511 30.031 27.1511H19.0582L18.5038 25.2647H30.0286C30.0862 25.2647 30.1414 25.2503 30.1942 25.2311C30.211 25.2239 30.2278 25.2143 30.2446 25.2047C30.2782 25.1879 30.307 25.1687 30.3358 25.1423C30.3502 25.1279 30.3646 25.1159 30.379 25.0991C30.403 25.0727 30.4222 25.0415 30.439 25.0103C30.4486 24.9911 30.4606 24.9743 30.4678 24.9551C30.4702 24.9479 30.475 24.9407 30.4798 24.9335L31.7542 20.8967C31.8526 20.8103 31.9174 20.6879 31.9174 20.5463C31.9174 20.5103 31.9054 20.4791 31.8982 20.4455L33.3118 15.9695C33.3166 15.9503 33.3118 15.9263 33.3166 15.9047ZM21.943 29.0399C21.943 29.5607 21.5206 29.9831 20.9998 29.9831C20.479 29.9831 20.0566 29.5607 20.0566 29.0399C20.0566 28.5191 20.479 28.0967 20.9998 28.0967C21.5182 28.0967 21.943 28.5191 21.943 29.0399ZM28.5046 29.0399C28.5046 29.5607 28.0822 29.9831 27.5614 29.9831C27.0406 29.9831 26.6182 29.5607 26.6182 29.0399C26.6182 28.5191 27.0406 28.0967 27.5614 28.0967C28.0798 28.0967 28.5046 28.5191 28.5046 29.0399ZM31.0246 20.0759H30.8518L29.719 16.3007H32.215L31.0246 20.0759ZM29.683 24.3239H29.431L28.387 21.0215H30.7246L29.683 24.3239ZM26.599 24.3239L25.555 21.0215H27.3958L28.4398 24.3239H26.599ZM23.7694 24.3239L22.7254 21.0215H24.5662L25.6102 24.3239H23.7694ZM20.9398 24.3239L19.8958 21.0215H21.7366L22.7806 24.3239H20.9398ZM20.2486 16.3031L21.4414 20.0783H19.5982L18.4054 16.3031H20.2486ZM23.0782 16.3031L24.271 20.0783H22.4302L21.2374 16.3031H23.0782ZM25.9078 16.3031L27.1006 20.0783H25.2598L24.067 16.3031H25.9078ZM28.735 16.3031L29.8678 20.0783H28.0918L26.899 16.3031H28.735ZM17.4166 16.3031L18.6094 20.0783H16.9774L15.8662 16.3031H17.4166ZM17.2558 21.0215H18.907L19.951 24.3239H18.235C18.2326 24.3239 18.2302 24.3263 18.2278 24.3263L17.2558 21.0215Z" fill="white"/>
</svg>
