<svg width="36" height="36" viewBox="0 0 36 36" fill="none" xmlns="http://www.w3.org/2000/svg">
<path d="M1.1808 1.1807C2.74422 -0.382716 5.26667 -0.395083 6.81484 1.15308L34.8469 29.1851C36.3951 30.7332 36.3827 33.2557 34.8193 34.8191C33.2559 36.3825 30.7334 36.3949 29.1853 34.8467L1.15318 6.81471C-0.394984 5.26655 -0.382619 2.74412 1.1808 1.1807Z" fill="#D9D9D9"/>
<path d="M1.1807 34.8193C-0.382717 33.2559 -0.395084 30.7334 1.15308 29.1853L29.1852 1.15329C30.7333 -0.394871 33.2558 -0.382504 34.8192 1.18091C36.3826 2.74433 36.395 5.26676 34.8468 6.81493L6.81474 34.8469C5.26657 36.3951 2.74413 36.3827 1.1807 34.8193Z" fill="#D9D9D9"/>
</svg>
