<svg width="38" height="37" viewBox="0 0 38 37" fill="none" xmlns="http://www.w3.org/2000/svg">
<path d="M20.0069 36.3511C19.1306 36.3511 18.2544 36.3511 17.3782 36.3511C16.9474 36.2958 16.5159 36.2468 16.0865 36.185C12.3999 35.6524 9.13671 34.2138 6.34816 31.8067C3.10544 29.0075 1.07117 25.5296 0.292071 21.3728C0.173052 20.7365 0.0963834 20.0918 0 19.4513C0 18.5992 0 17.7471 0 16.895C0.0547633 16.4867 0.102225 16.077 0.16429 15.6694C0.698049 12.1446 2.10072 8.98476 4.54316 6.32481C9.15277 1.30315 14.9394 -0.765308 21.7739 0.252232C26.5755 0.96728 30.4893 3.3219 33.464 7.05903C36.6644 11.0788 37.8896 15.6567 37.2069 20.6861C36.7257 24.2315 35.2347 27.3672 32.8149 30.0627C29.9241 33.2822 26.3127 35.2974 21.9813 36.0671C21.327 36.1836 20.6655 36.2574 20.0069 36.3511ZM20.3325 15.1014C20.3143 15.0211 20.304 14.9984 20.304 14.9757C20.3026 14.3253 20.3004 13.6748 20.3004 13.0237C20.3011 12.1751 20.6129 11.8726 21.4862 11.8712C22.2003 11.8705 22.9144 11.8712 23.6409 11.8712C23.6409 10.6577 23.6409 9.48324 23.6409 8.29386C22.3281 8.29386 21.0401 8.25622 19.7542 8.30238C17.8353 8.37126 16.4224 9.51164 15.9887 11.3365C15.8485 11.928 15.8317 12.5522 15.8032 13.1629C15.7733 13.7962 15.7967 14.4311 15.7967 15.1042C15.0577 15.1042 14.3713 15.1042 13.6704 15.1042C13.6704 16.3561 13.6704 17.5682 13.6704 18.825C14.3845 18.825 15.0811 18.825 15.82 18.825C15.82 22.352 15.82 25.8335 15.82 29.3192C17.3308 29.3192 18.797 29.3192 20.2989 29.3192C20.2989 25.8164 20.2989 22.3328 20.2989 18.8129C21.3241 18.8129 22.3149 18.8129 23.3328 18.8129C23.4642 17.5653 23.5928 16.3518 23.7249 15.1014C22.5734 15.1014 21.4592 15.1014 20.3325 15.1014Z" fill="#33C7CA"/>
</svg>
