<svg width="36" height="35" viewBox="0 0 36 35" fill="none" xmlns="http://www.w3.org/2000/svg">
<path d="M19.2632 35C18.4196 35 17.5759 35 16.7323 35C16.3175 34.9467 15.902 34.8995 15.4886 34.84C11.939 34.3273 8.7971 32.9421 6.11221 30.6244C2.99002 27.9293 1.03136 24.5807 0.281215 20.5784C0.16662 19.9658 0.0928009 19.345 0 18.7283C0 17.9079 0 17.0875 0 16.267C0.0527278 15.8739 0.0984252 15.4794 0.158183 15.087C0.672104 11.6932 2.02264 8.65081 4.3743 6.08973C8.81257 1.25471 14.3841 -0.736863 20.9646 0.242857C25.5877 0.931327 29.356 3.19842 32.2202 6.79666C35.3016 10.667 36.4813 15.0747 35.824 19.9172C35.3607 23.3309 33.9251 26.35 31.5952 28.9453C28.8119 32.0451 25.3346 33.9854 21.1642 34.7265C20.5343 34.8387 19.8974 34.9098 19.2632 35ZM19.5768 14.5401C19.5592 14.4628 19.5494 14.4409 19.5494 14.4191C19.5479 13.7928 19.5458 13.1665 19.5458 12.5396C19.5465 11.7226 19.8467 11.4314 20.6876 11.43C21.3751 11.4293 22.0627 11.43 22.7622 11.43C22.7622 10.2616 22.7622 9.13075 22.7622 7.98558C21.4982 7.98558 20.258 7.94935 19.02 7.99379C17.1724 8.0601 15.812 9.1581 15.3944 10.9152C15.2594 11.4847 15.2432 12.0856 15.2158 12.6736C15.187 13.2835 15.2095 13.8947 15.2095 14.5428C14.498 14.5428 13.8372 14.5428 13.1623 14.5428C13.1623 15.7481 13.1623 16.9152 13.1623 18.1253C13.8498 18.1253 14.5205 18.1253 15.232 18.1253C15.232 21.5212 15.232 24.8733 15.232 28.2295C16.6866 28.2295 18.0983 28.2295 19.5444 28.2295C19.5444 24.8569 19.5444 21.5027 19.5444 18.1137C20.5315 18.1137 21.4855 18.1137 22.4655 18.1137C22.5921 16.9124 22.7158 15.744 22.8431 14.5401C21.7344 14.5401 20.6616 14.5401 19.5768 14.5401Z" fill="white"/>
</svg>
