<svg width="404" height="60" viewBox="0 0 404 60" fill="none" xmlns="http://www.w3.org/2000/svg">
<path d="M20.8787 16.26L24.7703 25.584C24.9494 26.01 25.4388 26.208 25.8626 26.034C26.0715 25.944 26.2267 25.782 26.3103 25.584L30.2019 16.26C31.2822 13.674 30.0706 10.698 27.498 9.61199C24.9255 8.52599 21.965 9.74399 20.8847 12.33C20.3296 13.632 20.3773 15.054 20.8787 16.26Z" fill="#FF4713"/>
<path d="M20.8787 42.48L24.7703 33.156C24.9494 32.73 25.4388 32.532 25.8626 32.706C26.0715 32.796 26.2267 32.958 26.3103 33.156L30.2019 42.48C31.2822 45.066 30.0706 48.042 27.498 49.128C24.9255 50.214 21.965 48.996 20.8847 46.41C20.3296 45.108 20.3773 43.692 20.8787 42.48Z" fill="#FF4713"/>
<path d="M38.582 24.684L29.3066 28.596C28.8828 28.776 28.6858 29.268 28.8589 29.694C28.9484 29.904 29.1096 30.06 29.3066 30.144L38.582 34.056C41.1545 35.142 44.115 33.924 45.1954 31.338C46.2757 28.752 45.0641 25.776 42.4915 24.69C41.1903 24.138 39.7817 24.18 38.582 24.684Z" fill="#FF4713"/>
<path d="M12.4926 24.684L21.768 28.596C22.1918 28.776 22.3888 29.268 22.2157 29.694C22.1261 29.904 21.965 30.06 21.768 30.144L12.4926 34.056C9.92005 35.142 6.95955 33.924 5.87921 31.338C4.79886 28.752 6.01052 25.776 8.58305 24.69C9.88424 24.138 11.2929 24.18 12.4926 24.684Z" fill="#FF4713"/>
<path d="M31.4613 16.788L27.6532 26.148C27.4801 26.574 27.6831 27.066 28.1069 27.24C28.3158 27.324 28.5426 27.318 28.7395 27.24L38.0508 23.412C40.6353 22.35 41.8708 19.386 40.8143 16.788C39.7579 14.19 36.8093 12.948 34.2248 14.01C32.9296 14.544 31.9627 15.576 31.4613 16.788Z" fill="#FF4713"/>
<path d="M13.0179 35.328L22.3291 31.5C22.7529 31.326 23.2423 31.53 23.4154 31.956C23.499 32.166 23.493 32.394 23.4154 32.592L19.6074 41.952C18.5509 44.55 15.6023 45.792 13.0179 44.73C10.4334 43.668 9.19786 40.704 10.2543 38.106C10.7855 36.798 11.8122 35.826 13.0179 35.328Z" fill="#FF4713"/>
<path d="M13.0179 23.412L22.3291 27.24C22.7529 27.414 23.2423 27.21 23.4154 26.784C23.499 26.574 23.493 26.346 23.4154 26.148L19.6074 16.788C18.5509 14.19 15.6023 12.948 13.0179 14.01C10.4334 15.072 9.19786 18.036 10.2543 20.634C10.7855 21.942 11.8122 22.914 13.0179 23.412Z" fill="#FF4713"/>
<path d="M31.4613 41.952L27.6532 32.592C27.4801 32.166 27.6831 31.674 28.1069 31.5C28.3158 31.416 28.5426 31.422 28.7395 31.5L38.0508 35.328C40.6353 36.39 41.8708 39.354 40.8143 41.952C39.7579 44.55 36.8093 45.792 34.2248 44.73C32.9296 44.196 31.9627 43.164 31.4613 41.952Z" fill="#FF4713"/>
<path d="M25.4448 30.924C26.2953 30.924 26.9847 30.2309 26.9847 29.376C26.9847 28.5211 26.2953 27.828 25.4448 27.828C24.5943 27.828 23.9048 28.5211 23.9048 29.376C23.9048 30.2309 24.5943 30.924 25.4448 30.924Z" fill="#FF4713"/>
<path d="M78.5547 16.26L82.4464 25.584C82.6254 26.01 83.1149 26.208 83.5386 26.034C83.7475 25.944 83.9027 25.782 83.9863 25.584L87.8779 16.26C88.9583 13.674 87.7466 10.698 85.1741 9.61199C82.6015 8.52599 79.641 9.74399 78.5607 12.33C78.0056 13.632 78.0533 15.054 78.5547 16.26Z" fill="#005CB9"/>
<path d="M78.5547 42.48L82.4464 33.156C82.6254 32.73 83.1149 32.532 83.5386 32.706C83.7475 32.796 83.9027 32.958 83.9863 33.156L87.8779 42.48C88.9583 45.066 87.7466 48.042 85.1741 49.128C82.6015 50.214 79.641 48.996 78.5607 46.41C78.0056 45.108 78.0533 43.692 78.5547 42.48Z" fill="#005CB9"/>
<path d="M96.258 24.684L86.9826 28.596C86.5588 28.776 86.3618 29.268 86.5349 29.694C86.6245 29.904 86.7856 30.06 86.9826 30.144L96.258 34.056C98.8306 35.142 101.791 33.924 102.871 31.338C103.952 28.752 102.74 25.776 100.168 24.69C98.8664 24.138 97.4577 24.18 96.258 24.684Z" fill="#005CB9"/>
<path d="M70.1686 24.684L79.444 28.596C79.8678 28.776 80.0648 29.268 79.8917 29.694C79.8022 29.904 79.641 30.06 79.444 30.144L70.1686 34.056C67.5961 35.142 64.6356 33.924 63.5552 31.338C62.4749 28.752 63.6865 25.776 66.2591 24.69C67.5603 24.138 68.9689 24.18 70.1686 24.684Z" fill="#005CB9"/>
<path d="M89.1373 16.788L85.3293 26.148C85.1562 26.574 85.3591 27.066 85.7829 27.24C85.9918 27.324 86.2186 27.318 86.4156 27.24L95.7268 23.412C98.3113 22.35 99.5468 19.386 98.4903 16.788C97.4339 14.19 94.4853 12.948 91.9008 14.01C90.5997 14.544 89.6387 15.576 89.1373 16.788Z" fill="#005CB9"/>
<path d="M70.6938 35.328L80.0051 31.5C80.4289 31.326 80.9183 31.53 81.0914 31.956C81.1749 32.166 81.169 32.394 81.0914 32.592L77.2833 41.952C76.2269 44.55 73.2783 45.792 70.6938 44.73C68.1094 43.668 66.8738 40.704 67.9303 38.106C68.4615 36.798 69.4881 35.826 70.6938 35.328Z" fill="#005CB9"/>
<path d="M70.6938 23.412L80.0051 27.24C80.4289 27.414 80.9183 27.21 81.0914 26.784C81.1749 26.574 81.169 26.346 81.0914 26.148L77.2833 16.788C76.2269 14.19 73.2783 12.948 70.6938 14.01C68.1094 15.072 66.8738 18.036 67.9303 20.634C68.4615 21.942 69.4881 22.914 70.6938 23.412Z" fill="#005CB9"/>
<path d="M89.1373 41.952L85.3293 32.592C85.1562 32.166 85.3591 31.674 85.7829 31.5C85.9918 31.416 86.2186 31.422 86.4156 31.5L95.7268 35.328C98.3113 36.39 99.5468 39.354 98.4903 41.952C97.4339 44.55 94.4853 45.792 91.9008 44.73C90.5997 44.196 89.6387 43.164 89.1373 41.952Z" fill="#005CB9"/>
<path d="M83.1208 30.924C83.9713 30.924 84.6607 30.2309 84.6607 29.376C84.6607 28.5211 83.9713 27.828 83.1208 27.828C82.2703 27.828 81.5809 28.5211 81.5809 29.376C81.5809 30.2309 82.2703 30.924 83.1208 30.924Z" fill="#005CB9"/>
<path d="M136.452 16.26L140.343 25.584C140.522 26.01 141.012 26.208 141.436 26.034C141.644 25.944 141.8 25.782 141.883 25.584L145.775 16.26C146.855 13.674 145.643 10.698 143.071 9.61199C140.498 8.52599 137.538 9.74399 136.458 12.33C135.908 13.632 135.95 15.054 136.452 16.26Z" fill="#FFA400"/>
<path d="M136.452 42.48L140.343 33.156C140.522 32.73 141.012 32.532 141.436 32.706C141.644 32.796 141.8 32.958 141.883 33.156L145.775 42.48C146.855 45.066 145.643 48.042 143.071 49.128C140.498 50.214 137.538 48.996 136.458 46.41C135.908 45.108 135.95 43.692 136.452 42.48Z" fill="#FFA400"/>
<path d="M154.155 24.684L144.879 28.596C144.456 28.776 144.259 29.268 144.432 29.694C144.521 29.904 144.683 30.06 144.879 30.144L154.155 34.056C156.727 35.142 159.688 33.924 160.768 31.338C161.849 28.752 160.637 25.776 158.064 24.69C156.769 24.138 155.355 24.18 154.155 24.684Z" fill="#FFA400"/>
<path d="M128.072 24.684L137.347 28.596C137.771 28.776 137.968 29.268 137.795 29.694C137.705 29.904 137.544 30.06 137.347 30.144L128.072 34.056C125.499 35.142 122.538 33.924 121.458 31.338C120.378 28.752 121.589 25.776 124.162 24.69C125.457 24.138 126.866 24.18 128.072 24.684Z" fill="#FFA400"/>
<path d="M147.04 16.788L143.232 26.148C143.059 26.574 143.262 27.066 143.686 27.24C143.895 27.324 144.121 27.318 144.318 27.24L153.63 23.412C156.214 22.35 157.45 19.386 156.393 16.788C155.337 14.19 152.388 12.948 149.804 14.01C148.502 14.544 147.536 15.576 147.04 16.788Z" fill="#FFA400"/>
<path d="M128.591 35.328L137.902 31.5C138.326 31.326 138.815 31.53 138.988 31.956C139.072 32.166 139.066 32.394 138.988 32.592L135.18 41.952C134.124 44.55 131.175 45.792 128.591 44.73C126.006 43.668 124.771 40.704 125.827 38.106C126.358 36.798 127.391 35.826 128.591 35.328Z" fill="#FFA400"/>
<path d="M128.591 23.412L137.902 27.24C138.326 27.414 138.815 27.21 138.988 26.784C139.072 26.574 139.066 26.346 138.988 26.148L135.18 16.788C134.124 14.19 131.175 12.948 128.591 14.01C126.006 15.072 124.771 18.036 125.827 20.634C126.358 21.942 127.391 22.914 128.591 23.412Z" fill="#FFA400"/>
<path d="M147.04 41.952L143.232 32.592C143.059 32.166 143.262 31.674 143.686 31.5C143.895 31.416 144.121 31.422 144.318 31.5L153.63 35.328C156.214 36.39 157.45 39.354 156.393 41.952C155.337 44.55 152.388 45.792 149.804 44.73C148.502 44.196 147.536 43.164 147.04 41.952Z" fill="#FFA400"/>
<path d="M141.024 30.924C141.874 30.924 142.564 30.2309 142.564 29.376C142.564 28.5211 141.874 27.828 141.024 27.828C140.173 27.828 139.484 28.5211 139.484 29.376C139.484 30.2309 140.173 30.924 141.024 30.924Z" fill="#FFA400"/>
<path d="M194.128 16.26L198.019 25.584C198.198 26.01 198.688 26.208 199.111 26.034C199.32 25.944 199.476 25.782 199.559 25.584L203.451 16.26C204.531 13.674 203.319 10.698 200.747 9.61199C198.174 8.52599 195.214 9.74399 194.134 12.33C193.584 13.632 193.626 15.054 194.128 16.26Z" fill="#0A1F8F"/>
<path d="M194.128 42.48L198.019 33.156C198.198 32.73 198.688 32.532 199.111 32.706C199.32 32.796 199.476 32.958 199.559 33.156L203.451 42.48C204.531 45.066 203.319 48.042 200.747 49.128C198.174 50.214 195.214 48.996 194.134 46.41C193.584 45.108 193.626 43.692 194.128 42.48Z" fill="#0A1F8F"/>
<path d="M211.831 24.684L202.555 28.596C202.132 28.776 201.935 29.268 202.108 29.694C202.197 29.904 202.358 30.06 202.555 30.144L211.831 34.056C214.403 35.142 217.364 33.924 218.444 31.338C219.525 28.752 218.313 25.776 215.74 24.69C214.439 24.138 213.031 24.18 211.831 24.684Z" fill="#0A1F8F"/>
<path d="M185.747 24.684L195.023 28.596C195.447 28.776 195.644 29.268 195.471 29.694C195.381 29.904 195.22 30.06 195.023 30.144L185.747 34.056C183.175 35.142 180.214 33.924 179.134 31.338C178.054 28.752 179.265 25.776 181.838 24.69C183.133 24.138 184.542 24.18 185.747 24.684Z" fill="#0A1F8F"/>
<path d="M204.71 16.788L200.902 26.148C200.729 26.574 200.932 27.066 201.356 27.24C201.565 27.324 201.791 27.318 201.988 27.24L211.3 23.412C213.884 22.35 215.12 19.386 214.063 16.788C213.007 14.19 210.058 12.948 207.474 14.01C206.179 14.544 205.212 15.576 204.71 16.788Z" fill="#0A1F8F"/>
<path d="M186.267 35.328L195.578 31.5C196.002 31.326 196.491 31.53 196.664 31.956C196.748 32.166 196.742 32.394 196.664 32.592L192.856 41.952C191.8 44.55 188.851 45.792 186.267 44.73C183.682 43.668 182.447 40.704 183.503 38.106C184.034 36.798 185.061 35.826 186.267 35.328Z" fill="#0A1F8F"/>
<path d="M186.267 23.412L195.578 27.24C196.002 27.414 196.491 27.21 196.664 26.784C196.748 26.574 196.742 26.346 196.664 26.148L192.856 16.788C191.8 14.19 188.851 12.948 186.267 14.01C183.682 15.072 182.447 18.036 183.503 20.634C184.034 21.942 185.061 22.914 186.267 23.412Z" fill="#0A1F8F"/>
<path d="M204.71 41.952L200.902 32.592C200.729 32.166 200.932 31.674 201.356 31.5C201.565 31.416 201.791 31.422 201.988 31.5L211.3 35.328C213.884 36.39 215.12 39.354 214.063 41.952C213.007 44.55 210.058 45.792 207.474 44.73C206.179 44.196 205.212 43.164 204.71 41.952Z" fill="#0A1F8F"/>
<path d="M198.694 30.924C199.544 30.924 200.234 30.2309 200.234 29.376C200.234 28.5211 199.544 27.828 198.694 27.828C197.843 27.828 197.154 28.5211 197.154 29.376C197.154 30.2309 197.843 30.924 198.694 30.924Z" fill="#0A1F8F"/>
<path d="M251.571 16.26L255.462 25.584C255.642 26.01 256.131 26.208 256.555 26.034C256.764 25.944 256.919 25.782 257.002 25.584L260.894 16.26C261.974 13.674 260.763 10.698 258.19 9.61199C255.618 8.52599 252.657 9.74399 251.577 12.33C251.022 13.632 251.069 15.054 251.571 16.26Z" fill="#FF4713"/>
<path d="M251.571 42.48L255.462 33.156C255.642 32.73 256.131 32.532 256.555 32.706C256.764 32.796 256.919 32.958 257.002 33.156L260.894 42.48C261.974 45.066 260.763 48.042 258.19 49.128C255.618 50.214 252.657 48.996 251.577 46.41C251.022 45.108 251.069 43.692 251.571 42.48Z" fill="#FF4713"/>
<path d="M269.274 24.684L259.999 28.596C259.575 28.776 259.378 29.268 259.551 29.694C259.641 29.904 259.802 30.06 259.999 30.144L269.274 34.056C271.847 35.142 274.807 33.924 275.888 31.338C276.968 28.752 275.756 25.776 273.184 24.69C271.883 24.138 270.474 24.18 269.274 24.684Z" fill="#FF4713"/>
<path d="M243.191 24.684L252.466 28.596C252.89 28.776 253.087 29.268 252.914 29.694C252.824 29.904 252.663 30.06 252.466 30.144L243.191 34.056C240.618 35.142 237.658 33.924 236.577 31.338C235.497 28.752 236.709 25.776 239.281 24.69C240.576 24.138 241.985 24.18 243.191 24.684Z" fill="#FF4713"/>
<path d="M262.153 16.788L258.345 26.148C258.172 26.574 258.375 27.066 258.799 27.24C259.008 27.324 259.235 27.318 259.432 27.24L268.743 23.412C271.327 22.35 272.563 19.386 271.506 16.788C270.45 14.19 267.501 12.948 264.917 14.01C263.622 14.544 262.655 15.576 262.153 16.788Z" fill="#FF4713"/>
<path d="M243.71 35.328L253.021 31.5C253.445 31.326 253.934 31.53 254.108 31.956C254.191 32.166 254.185 32.394 254.108 32.592L250.299 41.952C249.243 44.55 246.294 45.792 243.71 44.73C241.125 43.668 239.89 40.704 240.946 38.106C241.478 36.798 242.504 35.826 243.71 35.328Z" fill="#FF4713"/>
<path d="M243.71 23.412L253.021 27.24C253.445 27.414 253.934 27.21 254.108 26.784C254.191 26.574 254.185 26.346 254.108 26.148L250.299 16.788C249.243 14.19 246.294 12.948 243.71 14.01C241.125 15.072 239.89 18.036 240.946 20.634C241.478 21.942 242.504 22.914 243.71 23.412Z" fill="#FF4713"/>
<path d="M262.153 41.952L258.345 32.592C258.172 32.166 258.375 31.674 258.799 31.5C259.008 31.416 259.235 31.422 259.432 31.5L268.743 35.328C271.327 36.39 272.563 39.354 271.506 41.952C270.45 44.55 267.501 45.792 264.917 44.73C263.622 44.196 262.655 43.164 262.153 41.952Z" fill="#FF4713"/>
<path d="M256.137 30.924C256.987 30.924 257.677 30.2309 257.677 29.376C257.677 28.5211 256.987 27.828 256.137 27.828C255.286 27.828 254.597 28.5211 254.597 29.376C254.597 30.2309 255.286 30.924 256.137 30.924Z" fill="#FF4713"/>
<path d="M309.247 16.26L313.138 25.584C313.318 26.01 313.807 26.208 314.231 26.034C314.44 25.944 314.595 25.782 314.678 25.584L318.57 16.26C319.65 13.674 318.439 10.698 315.866 9.61199C313.294 8.52599 310.333 9.74399 309.253 12.33C308.698 13.632 308.745 15.054 309.247 16.26Z" fill="#005CB9"/>
<path d="M309.247 42.48L313.138 33.156C313.318 32.73 313.807 32.532 314.231 32.706C314.44 32.796 314.595 32.958 314.678 33.156L318.57 42.48C319.65 45.066 318.439 48.042 315.866 49.128C313.294 50.214 310.333 48.996 309.253 46.41C308.698 45.108 308.745 43.692 309.247 42.48Z" fill="#005CB9"/>
<path d="M326.95 24.684L317.675 28.596C317.251 28.776 317.054 29.268 317.227 29.694C317.317 29.904 317.478 30.06 317.675 30.144L326.95 34.056C329.523 35.142 332.483 33.924 333.563 31.338C334.644 28.752 333.432 25.776 330.86 24.69C329.558 24.138 328.15 24.18 326.95 24.684Z" fill="#005CB9"/>
<path d="M300.861 24.684L310.136 28.596C310.56 28.776 310.757 29.268 310.584 29.694C310.494 29.904 310.333 30.06 310.136 30.144L300.861 34.056C298.288 35.142 295.328 33.924 294.247 31.338C293.167 28.752 294.379 25.776 296.951 24.69C298.252 24.138 299.661 24.18 300.861 24.684Z" fill="#005CB9"/>
<path d="M319.829 16.788L316.021 26.148C315.848 26.574 316.051 27.066 316.475 27.24C316.684 27.324 316.911 27.318 317.108 27.24L326.419 23.412C329.003 22.35 330.239 19.386 329.182 16.788C328.126 14.19 325.177 12.948 322.593 14.01C321.292 14.544 320.331 15.576 319.829 16.788Z" fill="#005CB9"/>
<path d="M301.386 35.328L310.697 31.5C311.121 31.326 311.61 31.53 311.784 31.956C311.867 32.166 311.861 32.394 311.784 32.592L307.975 41.952C306.919 44.55 303.97 45.792 301.386 44.73C298.801 43.668 297.566 40.704 298.622 38.106C299.154 36.798 300.18 35.826 301.386 35.328Z" fill="#005CB9"/>
<path d="M301.386 23.412L310.697 27.24C311.121 27.414 311.61 27.21 311.784 26.784C311.867 26.574 311.861 26.346 311.784 26.148L307.975 16.788C306.919 14.19 303.97 12.948 301.386 14.01C298.801 15.072 297.566 18.036 298.622 20.634C299.154 21.942 300.18 22.914 301.386 23.412Z" fill="#005CB9"/>
<path d="M319.829 41.952L316.021 32.592C315.848 32.166 316.051 31.674 316.475 31.5C316.684 31.416 316.911 31.422 317.108 31.5L326.419 35.328C329.003 36.39 330.239 39.354 329.182 41.952C328.126 44.55 325.177 45.792 322.593 44.73C321.292 44.196 320.331 43.164 319.829 41.952Z" fill="#005CB9"/>
<path d="M313.813 30.924C314.663 30.924 315.353 30.2309 315.353 29.376C315.353 28.5211 314.663 27.828 313.813 27.828C312.962 27.828 312.273 28.5211 312.273 29.376C312.273 30.2309 312.962 30.924 313.813 30.924Z" fill="#005CB9"/>
<path d="M367.144 16.26L371.035 25.584C371.214 26.01 371.704 26.208 372.128 26.034C372.337 25.944 372.492 25.782 372.575 25.584L376.467 16.26C377.547 13.674 376.336 10.698 373.763 9.61199C371.191 8.52599 368.23 9.74399 367.15 12.33C366.601 13.632 366.642 15.054 367.144 16.26Z" fill="#FFA400"/>
<path d="M367.144 42.48L371.035 33.156C371.214 32.73 371.704 32.532 372.128 32.706C372.337 32.796 372.492 32.958 372.575 33.156L376.467 42.48C377.547 45.066 376.336 48.042 373.763 49.128C371.191 50.214 368.23 48.996 367.15 46.41C366.601 45.108 366.642 43.692 367.144 42.48Z" fill="#FFA400"/>
<path d="M384.847 24.684L375.572 28.596C375.148 28.776 374.951 29.268 375.124 29.694C375.214 29.904 375.375 30.06 375.572 30.144L384.847 34.056C387.42 35.142 390.38 33.924 391.46 31.338C392.541 28.752 391.329 25.776 388.757 24.69C387.461 24.138 386.047 24.18 384.847 24.684Z" fill="#FFA400"/>
<path d="M358.764 24.684L368.039 28.596C368.463 28.776 368.66 29.268 368.487 29.694C368.397 29.904 368.236 30.06 368.039 30.144L358.764 34.056C356.191 35.142 353.231 33.924 352.15 31.338C351.07 28.752 352.282 25.776 354.854 24.69C356.149 24.138 357.558 24.18 358.764 24.684Z" fill="#FFA400"/>
<path d="M377.732 16.788L373.924 26.148C373.751 26.574 373.954 27.066 374.378 27.24C374.587 27.324 374.814 27.318 375.011 27.24L384.322 23.412C386.906 22.35 388.142 19.386 387.085 16.788C386.029 14.19 383.08 12.948 380.496 14.01C379.195 14.544 378.228 15.576 377.732 16.788Z" fill="#FFA400"/>
<path d="M359.283 35.328L368.594 31.5C369.018 31.326 369.507 31.53 369.68 31.956C369.764 32.166 369.758 32.394 369.68 32.592L365.872 41.952C364.816 44.55 361.867 45.792 359.283 44.73C356.698 43.668 355.463 40.704 356.519 38.106C357.051 36.798 358.083 35.826 359.283 35.328Z" fill="#FFA400"/>
<path d="M359.283 23.412L368.594 27.24C369.018 27.414 369.507 27.21 369.68 26.784C369.764 26.574 369.758 26.346 369.68 26.148L365.872 16.788C364.816 14.19 361.867 12.948 359.283 14.01C356.698 15.072 355.463 18.036 356.519 20.634C357.051 21.942 358.083 22.914 359.283 23.412Z" fill="#FFA400"/>
<path d="M377.732 41.952L373.924 32.592C373.751 32.166 373.954 31.674 374.378 31.5C374.587 31.416 374.814 31.422 375.011 31.5L384.322 35.328C386.906 36.39 388.142 39.354 387.085 41.952C386.029 44.55 383.08 45.792 380.496 44.73C379.195 44.196 378.228 43.164 377.732 41.952Z" fill="#FFA400"/>
<path d="M371.716 30.924C372.566 30.924 373.256 30.2309 373.256 29.376C373.256 28.5211 372.566 27.828 371.716 27.828C370.865 27.828 370.176 28.5211 370.176 29.376C370.176 30.2309 370.865 30.924 371.716 30.924Z" fill="#FFA400"/>
</svg>
