<svg width="1920" height="140" viewBox="0 0 1920 140" fill="none" xmlns="http://www.w3.org/2000/svg">
<path d="M-15.3052 57.596L-36.9479 66.724C-37.9367 67.144 -38.3963 68.292 -37.9924 69.286C-37.7835 69.776 -37.4075 70.14 -36.9479 70.336L-15.3052 79.464C-9.30261 81.998 -2.39475 79.156 0.126053 73.122C2.64685 67.088 -0.18034 60.144 -6.18291 57.61C-9.20509 56.322 -12.5058 56.42 -15.3052 57.596Z" fill="#FFA400"/>
<path d="M77.9645 37.94L87.045 59.696C87.4628 60.69 88.6048 61.152 89.5936 60.746C90.0811 60.536 90.4432 60.158 90.6381 59.696L99.7186 37.94C102.239 31.906 99.4122 24.962 93.4096 22.428C87.407 19.894 80.4992 22.736 77.9784 28.77C76.6971 31.808 76.7946 35.126 77.9645 37.94Z" fill="#0A1F8F"/>
<path d="M77.9645 99.12L87.045 77.364C87.4628 76.37 88.6048 75.908 89.5936 76.314C90.0811 76.524 90.4432 76.902 90.6381 77.364L99.7186 99.12C102.239 105.154 99.4122 112.098 93.4096 114.632C87.407 117.166 80.4992 114.324 77.9784 108.29C76.6971 105.252 76.7946 101.948 77.9645 99.12Z" fill="#0A1F8F"/>
<path d="M119.272 57.596L97.6298 66.724C96.641 67.144 96.1814 68.292 96.5852 69.286C96.7942 69.776 97.1702 70.14 97.6298 70.336L119.272 79.464C125.275 81.998 132.183 79.156 134.704 73.122C137.225 67.088 134.397 60.144 128.395 57.61C125.359 56.322 122.072 56.42 119.272 57.596Z" fill="#0A1F8F"/>
<path d="M58.4109 57.596L80.0536 66.724C81.0424 67.144 81.502 68.292 81.0981 69.286C80.8892 69.776 80.5132 70.14 80.0536 70.336L58.4109 79.464C52.4084 81.998 45.5005 79.156 42.9797 73.122C40.4589 67.088 43.2861 60.144 49.2887 57.61C52.3109 56.322 55.5977 56.42 58.4109 57.596Z" fill="#0A1F8F"/>
<path d="M102.657 39.172L93.7719 61.012C93.368 62.006 93.8415 63.154 94.8304 63.56C95.3178 63.756 95.847 63.742 96.3066 63.56L118.033 54.628C124.063 52.15 126.946 45.234 124.481 39.172C122.016 33.11 115.136 30.212 109.106 32.69C106.083 33.936 103.827 36.344 102.657 39.172Z" fill="#0A1F8F"/>
<path d="M59.6227 82.432L81.349 73.5C82.3378 73.094 83.4798 73.57 83.8837 74.564C84.0786 75.054 84.0647 75.586 83.8837 76.048L74.9982 97.888C72.5331 103.95 65.6531 106.848 59.6227 104.37C53.5923 101.892 50.7094 94.976 53.1745 88.914C54.414 85.862 56.8094 83.594 59.6227 82.432Z" fill="#0A1F8F"/>
<path d="M59.6227 54.628L81.349 63.56C82.3378 63.966 83.4798 63.49 83.8837 62.496C84.0786 62.006 84.0647 61.474 83.8837 61.012L74.9982 39.172C72.5331 33.11 65.6531 30.212 59.6227 32.69C53.5923 35.168 50.7094 42.084 53.1745 48.146C54.414 51.198 56.8094 53.466 59.6227 54.628Z" fill="#0A1F8F"/>
<path d="M102.657 97.888L93.7719 76.048C93.368 75.054 93.8415 73.906 94.8304 73.5C95.3178 73.304 95.847 73.318 96.3066 73.5L118.033 82.432C124.063 84.91 126.946 91.826 124.481 97.888C122.016 103.95 115.136 106.848 109.106 104.37C106.083 103.124 103.827 100.716 102.657 97.888Z" fill="#0A1F8F"/>
<path d="M88.6188 72.156C90.6033 72.156 92.212 70.5389 92.212 68.544C92.212 66.5492 90.6033 64.932 88.6188 64.932C86.6344 64.932 85.0256 66.5492 85.0256 68.544C85.0256 70.5389 86.6344 72.156 88.6188 72.156Z" fill="#0A1F8F"/>
<path d="M211.998 37.94L221.079 59.696C221.497 60.69 222.639 61.152 223.627 60.746C224.115 60.536 224.477 60.158 224.672 59.696L233.752 37.94C236.273 31.906 233.446 24.962 227.444 22.428C221.441 19.894 214.533 22.736 212.012 28.77C210.717 31.808 210.829 35.126 211.998 37.94Z" fill="#FF4713"/>
<path d="M211.998 99.12L221.079 77.364C221.497 76.37 222.639 75.908 223.627 76.314C224.115 76.524 224.477 76.902 224.672 77.364L233.752 99.12C236.273 105.154 233.446 112.098 227.444 114.632C221.441 117.166 214.533 114.324 212.012 108.29C210.717 105.252 210.829 101.948 211.998 99.12Z" fill="#FF4713"/>
<path d="M253.306 57.596L231.663 66.724C230.675 67.144 230.215 68.292 230.619 69.286C230.828 69.776 231.204 70.14 231.663 70.336L253.306 79.464C259.309 81.998 266.217 79.156 268.737 73.122C271.258 67.088 268.431 60.144 262.428 57.61C259.392 56.322 256.106 56.42 253.306 57.596Z" fill="#FF4713"/>
<path d="M192.445 57.596L214.088 66.724C215.076 67.144 215.536 68.292 215.132 69.286C214.923 69.776 214.547 70.14 214.088 70.336L192.445 79.464C186.442 81.998 179.534 79.156 177.014 73.122C174.493 67.088 177.32 60.144 183.323 57.61C186.345 56.322 189.632 56.42 192.445 57.596Z" fill="#FF4713"/>
<path d="M236.691 39.172L227.806 61.012C227.402 62.006 227.875 63.154 228.864 63.56C229.352 63.756 229.881 63.742 230.341 63.56L252.067 54.628C258.097 52.15 260.98 45.234 258.515 39.172C256.05 33.11 249.17 30.212 243.14 32.69C240.117 33.936 237.861 36.344 236.691 39.172Z" fill="#FF4713"/>
<path d="M193.657 82.432L215.383 73.5C216.372 73.094 217.514 73.57 217.918 74.564C218.113 75.054 218.099 75.586 217.918 76.048L209.032 97.888C206.567 103.95 199.687 106.848 193.657 104.37C187.626 101.892 184.743 94.976 187.208 88.914C188.448 85.862 190.843 83.594 193.657 82.432Z" fill="#FF4713"/>
<path d="M193.657 54.628L215.383 63.56C216.372 63.966 217.514 63.49 217.918 62.496C218.113 62.006 218.099 61.474 217.918 61.012L209.032 39.172C206.567 33.11 199.687 30.212 193.657 32.69C187.626 35.168 184.743 42.084 187.208 48.146C188.448 51.198 190.843 53.466 193.657 54.628Z" fill="#FF4713"/>
<path d="M236.691 97.888L227.806 76.048C227.402 75.054 227.875 73.906 228.864 73.5C229.352 73.304 229.881 73.318 230.341 73.5L252.067 82.432C258.097 84.91 260.98 91.826 258.515 97.888C256.05 103.95 249.17 106.848 243.14 104.37C240.117 103.124 237.861 100.716 236.691 97.888Z" fill="#FF4713"/>
<path d="M222.653 72.156C224.637 72.156 226.246 70.5389 226.246 68.544C226.246 66.5492 224.637 64.932 222.653 64.932C220.668 64.932 219.06 66.5492 219.06 68.544C219.06 70.5389 220.668 72.156 222.653 72.156Z" fill="#FF4713"/>
<path d="M346.576 37.94L355.656 59.696C356.074 60.69 357.216 61.152 358.205 60.746C358.693 60.536 359.055 60.158 359.25 59.696L368.33 37.94C370.851 31.906 368.024 24.962 362.021 22.428C356.019 19.894 349.111 22.736 346.59 28.77C345.295 31.808 345.406 35.126 346.576 37.94Z" fill="#005CB9"/>
<path d="M346.576 99.12L355.656 77.364C356.074 76.37 357.216 75.908 358.205 76.314C358.693 76.524 359.055 76.902 359.25 77.364L368.33 99.12C370.851 105.154 368.024 112.098 362.021 114.632C356.019 117.166 349.111 114.324 346.59 108.29C345.295 105.252 345.406 101.948 346.576 99.12Z" fill="#005CB9"/>
<path d="M387.884 57.596L366.241 66.724C365.252 67.144 364.793 68.292 365.197 69.286C365.405 69.776 365.782 70.14 366.241 70.336L387.884 79.464C393.886 81.998 400.794 79.156 403.315 73.122C405.836 67.088 403.009 60.144 397.006 57.61C393.97 56.322 390.683 56.42 387.884 57.596Z" fill="#005CB9"/>
<path d="M327.008 57.596L348.651 66.724C349.64 67.144 350.099 68.292 349.695 69.286C349.487 69.776 349.111 70.14 348.651 70.336L327.008 79.464C321.006 81.998 314.098 79.156 311.577 73.122C309.056 67.088 311.884 60.144 317.886 57.61C320.922 56.322 324.209 56.42 327.008 57.596Z" fill="#005CB9"/>
<path d="M371.268 39.172L362.383 61.012C361.979 62.006 362.453 63.154 363.441 63.56C363.929 63.756 364.458 63.742 364.918 63.56L386.644 54.628C392.674 52.15 395.557 45.234 393.092 39.172C390.627 33.11 383.747 30.212 377.717 32.69C374.681 33.936 372.438 36.344 371.268 39.172Z" fill="#005CB9"/>
<path d="M328.234 82.432L349.96 73.5C350.949 73.094 352.091 73.57 352.495 74.564C352.69 75.054 352.676 75.586 352.495 76.048L343.609 97.888C341.144 103.95 334.264 106.848 328.234 104.37C322.203 101.892 319.32 94.976 321.786 88.914C323.025 85.862 325.421 83.594 328.234 82.432Z" fill="#005CB9"/>
<path d="M328.234 54.628L349.96 63.56C350.949 63.966 352.091 63.49 352.495 62.496C352.69 62.006 352.676 61.474 352.495 61.012L343.609 39.172C341.144 33.11 334.264 30.212 328.234 32.69C322.203 35.168 319.32 42.084 321.786 48.146C323.025 51.198 325.421 53.466 328.234 54.628Z" fill="#005CB9"/>
<path d="M371.268 97.888L362.383 76.048C361.979 75.054 362.453 73.906 363.441 73.5C363.929 73.304 364.458 73.318 364.918 73.5L386.644 82.432C392.674 84.91 395.557 91.826 393.092 97.888C390.627 103.95 383.747 106.848 377.717 104.37C374.681 103.124 372.438 100.716 371.268 97.888Z" fill="#005CB9"/>
<path d="M357.23 72.156C359.214 72.156 360.823 70.5389 360.823 68.544C360.823 66.5492 359.214 64.932 357.23 64.932C355.245 64.932 353.637 66.5492 353.637 68.544C353.637 70.5389 355.245 72.156 357.23 72.156Z" fill="#005CB9"/>
<path d="M481.669 37.94L490.749 59.696C491.167 60.69 492.309 61.152 493.298 60.746C493.785 60.536 494.148 60.158 494.343 59.696L503.423 37.94C505.944 31.906 503.117 24.962 497.114 22.428C491.111 19.894 484.204 22.736 481.683 28.77C480.401 31.808 480.499 35.126 481.669 37.94Z" fill="#FFA400"/>
<path d="M481.669 99.12L490.749 77.364C491.167 76.37 492.309 75.908 493.298 76.314C493.785 76.524 494.148 76.902 494.343 77.364L503.423 99.12C505.944 105.154 503.117 112.098 497.114 114.632C491.111 117.166 484.204 114.324 481.683 108.29C480.401 105.252 480.499 101.948 481.669 99.12Z" fill="#FFA400"/>
<path d="M522.977 57.596L501.334 66.724C500.345 67.144 499.885 68.292 500.289 69.286C500.498 69.776 500.874 70.14 501.334 70.336L522.977 79.464C528.979 81.998 535.887 79.156 538.408 73.122C540.929 67.088 538.101 60.144 532.099 57.61C529.077 56.322 525.776 56.42 522.977 57.596Z" fill="#FFA400"/>
<path d="M462.115 57.596L483.758 66.724C484.747 67.144 485.206 68.292 484.802 69.286C484.594 69.776 484.218 70.14 483.758 70.336L462.115 79.464C456.113 81.998 449.205 79.156 446.684 73.122C444.163 67.088 446.99 60.144 452.993 57.61C456.015 56.322 459.302 56.42 462.115 57.596Z" fill="#FFA400"/>
<path d="M506.375 39.172L497.49 61.012C497.086 62.006 497.56 63.154 498.548 63.56C499.036 63.756 499.565 63.742 500.025 63.56L521.751 54.628C527.781 52.15 530.664 45.234 528.199 39.172C525.734 33.11 518.854 30.212 512.824 32.69C509.788 33.936 507.531 36.344 506.375 39.172Z" fill="#FFA400"/>
<path d="M463.327 82.432L485.053 73.5C486.042 73.094 487.184 73.57 487.588 74.564C487.783 75.054 487.769 75.586 487.588 76.048L478.703 97.888C476.237 103.95 469.357 106.848 463.327 104.37C457.297 101.892 454.414 94.976 456.879 88.914C458.118 85.862 460.528 83.594 463.327 82.432Z" fill="#FFA400"/>
<path d="M463.327 54.628L485.053 63.56C486.042 63.966 487.184 63.49 487.588 62.496C487.783 62.006 487.769 61.474 487.588 61.012L478.703 39.172C476.237 33.11 469.357 30.212 463.327 32.69C457.297 35.168 454.414 42.084 456.879 48.146C458.118 51.198 460.528 53.466 463.327 54.628Z" fill="#FFA400"/>
<path d="M506.375 97.888L497.49 76.048C497.086 75.054 497.56 73.906 498.548 73.5C499.036 73.304 499.565 73.318 500.025 73.5L521.751 82.432C527.781 84.91 530.664 91.826 528.199 97.888C525.734 103.95 518.854 106.848 512.824 104.37C509.788 103.124 507.531 100.716 506.375 97.888Z" fill="#FFA400"/>
<path d="M492.337 72.156C494.322 72.156 495.93 70.5389 495.93 68.544C495.93 66.5492 494.322 64.932 492.337 64.932C490.353 64.932 488.744 66.5492 488.744 68.544C488.744 70.5389 490.353 72.156 492.337 72.156Z" fill="#FFA400"/>
<path d="M616.246 37.94L625.326 59.696C625.744 60.69 626.886 61.152 627.875 60.746C628.363 60.536 628.725 60.158 628.92 59.696L638 37.94C640.521 31.906 637.694 24.962 631.691 22.428C625.689 19.894 618.781 22.736 616.26 28.77C614.979 31.808 615.076 35.126 616.246 37.94Z" fill="#0A1F8F"/>
<path d="M616.246 99.12L625.326 77.364C625.744 76.37 626.886 75.908 627.875 76.314C628.363 76.524 628.725 76.902 628.92 77.364L638 99.12C640.521 105.154 637.694 112.098 631.691 114.632C625.689 117.166 618.781 114.324 616.26 108.29C614.979 105.252 615.076 101.948 616.246 99.12Z" fill="#0A1F8F"/>
<path d="M657.554 57.596L635.911 66.724C634.922 67.144 634.463 68.292 634.866 69.286C635.075 69.776 635.451 70.14 635.911 70.336L657.554 79.464C663.556 81.998 670.464 79.156 672.985 73.122C675.506 67.088 672.679 60.144 666.676 57.61C663.654 56.322 660.353 56.42 657.554 57.596Z" fill="#0A1F8F"/>
<path d="M596.692 57.596L618.335 66.724C619.324 67.144 619.784 68.292 619.38 69.286C619.171 69.776 618.795 70.14 618.335 70.336L596.692 79.464C590.69 81.998 583.782 79.156 581.261 73.122C578.74 67.088 581.568 60.144 587.57 57.61C590.592 56.322 593.879 56.42 596.692 57.596Z" fill="#0A1F8F"/>
<path d="M640.953 39.172L632.067 61.012C631.663 62.006 632.137 63.154 633.126 63.56C633.613 63.756 634.142 63.742 634.602 63.56L656.328 54.628C662.359 52.15 665.241 45.234 662.776 39.172C660.311 33.11 653.431 30.212 647.401 32.69C644.365 33.936 642.108 36.344 640.953 39.172Z" fill="#0A1F8F"/>
<path d="M597.904 82.432L619.63 73.5C620.619 73.094 621.761 73.57 622.165 74.564C622.36 75.054 622.346 75.586 622.165 76.048L613.28 97.888C610.815 103.95 603.935 106.848 597.904 104.37C591.874 101.892 588.991 94.976 591.456 88.914C592.695 85.862 595.091 83.594 597.904 82.432Z" fill="#0A1F8F"/>
<path d="M597.904 54.628L619.63 63.56C620.619 63.966 621.761 63.49 622.165 62.496C622.36 62.006 622.346 61.474 622.165 61.012L613.28 39.172C610.815 33.11 603.935 30.212 597.904 32.69C591.874 35.168 588.991 42.084 591.456 48.146C592.695 51.198 595.091 53.466 597.904 54.628Z" fill="#0A1F8F"/>
<path d="M640.953 97.888L632.067 76.048C631.663 75.054 632.137 73.906 633.126 73.5C633.613 73.304 634.142 73.318 634.602 73.5L656.328 82.432C662.359 84.91 665.241 91.826 662.776 97.888C660.311 103.95 653.431 106.848 647.401 104.37C644.365 103.124 642.108 100.716 640.953 97.888Z" fill="#0A1F8F"/>
<path d="M626.9 72.156C628.885 72.156 630.493 70.5389 630.493 68.544C630.493 66.5492 628.885 64.932 626.9 64.932C624.916 64.932 623.307 66.5492 623.307 68.544C623.307 70.5389 624.916 72.156 626.9 72.156Z" fill="#0A1F8F"/>
<path d="M750.281 37.94L759.361 59.696C759.779 60.69 760.921 61.152 761.91 60.746C762.397 60.536 762.759 60.158 762.954 59.696L772.035 37.94C774.556 31.906 771.728 24.962 765.726 22.428C759.723 19.894 752.815 22.736 750.295 28.77C749.013 31.808 749.111 35.126 750.281 37.94Z" fill="#FF4713"/>
<path d="M750.281 99.12L759.361 77.364C759.779 76.37 760.921 75.908 761.91 76.314C762.397 76.524 762.759 76.902 762.954 77.364L772.035 99.12C774.556 105.154 771.728 112.098 765.726 114.632C759.723 117.166 752.815 114.324 750.295 108.29C749.013 105.252 749.111 101.948 750.281 99.12Z" fill="#FF4713"/>
<path d="M791.588 57.596L769.946 66.724C768.957 67.144 768.497 68.292 768.901 69.286C769.11 69.776 769.486 70.14 769.946 70.336L791.588 79.464C797.591 81.998 804.499 79.156 807.02 73.122C809.54 67.088 806.713 60.144 800.711 57.61C797.675 56.322 794.388 56.42 791.588 57.596Z" fill="#FF4713"/>
<path d="M730.727 57.596L752.37 66.724C753.359 67.144 753.818 68.292 753.414 69.286C753.205 69.776 752.829 70.14 752.37 70.336L730.727 79.464C724.725 81.998 717.817 79.156 715.296 73.122C712.775 67.088 715.602 60.144 721.605 57.61C724.627 56.322 727.914 56.42 730.727 57.596Z" fill="#FF4713"/>
<path d="M774.974 39.172L766.088 61.012C765.684 62.006 766.158 63.154 767.147 63.56C767.634 63.756 768.163 63.742 768.623 63.56L790.349 54.628C796.379 52.15 799.262 45.234 796.797 39.172C794.332 33.11 787.452 30.212 781.422 32.69C778.4 33.936 776.143 36.344 774.974 39.172Z" fill="#FF4713"/>
<path d="M731.939 82.432L753.665 73.5C754.654 73.094 755.796 73.57 756.2 74.564C756.395 75.054 756.381 75.586 756.2 76.048L747.314 97.888C744.849 103.95 737.969 106.848 731.939 104.37C725.908 101.892 723.026 94.976 725.491 88.914C726.73 85.862 729.126 83.594 731.939 82.432Z" fill="#FF4713"/>
<path d="M731.939 54.628L753.665 63.56C754.654 63.966 755.796 63.49 756.2 62.496C756.395 62.006 756.381 61.474 756.2 61.012L747.314 39.172C744.849 33.11 737.969 30.212 731.939 32.69C725.908 35.168 723.026 42.084 725.491 48.146C726.73 51.198 729.126 53.466 731.939 54.628Z" fill="#FF4713"/>
<path d="M774.974 97.888L766.088 76.048C765.684 75.054 766.158 73.906 767.147 73.5C767.634 73.304 768.163 73.318 768.623 73.5L790.349 82.432C796.379 84.91 799.262 91.826 796.797 97.888C794.332 103.95 787.452 106.848 781.422 104.37C778.4 103.124 776.143 100.716 774.974 97.888Z" fill="#FF4713"/>
<path d="M760.935 72.156C762.919 72.156 764.528 70.5389 764.528 68.544C764.528 66.5492 762.919 64.932 760.935 64.932C758.951 64.932 757.342 66.5492 757.342 68.544C757.342 70.5389 758.951 72.156 760.935 72.156Z" fill="#FF4713"/>
<path d="M884.858 37.94L893.939 59.696C894.357 60.69 895.499 61.152 896.487 60.746C896.975 60.536 897.337 60.158 897.532 59.696L906.612 37.94C909.133 31.906 906.306 24.962 900.303 22.428C894.301 19.894 887.393 22.736 884.872 28.77C883.577 31.808 883.688 35.126 884.858 37.94Z" fill="#005CB9"/>
<path d="M884.858 99.12L893.939 77.364C894.357 76.37 895.499 75.908 896.487 76.314C896.975 76.524 897.337 76.902 897.532 77.364L906.612 99.12C909.133 105.154 906.306 112.098 900.303 114.632C894.301 117.166 887.393 114.324 884.872 108.29C883.577 105.252 883.688 101.948 884.858 99.12Z" fill="#005CB9"/>
<path d="M926.166 57.596L904.523 66.724C903.535 67.144 903.075 68.292 903.479 69.286C903.688 69.776 904.064 70.14 904.523 70.336L926.166 79.464C932.169 81.998 939.076 79.156 941.597 73.122C944.118 67.088 941.291 60.144 935.288 57.61C932.252 56.322 928.965 56.42 926.166 57.596Z" fill="#005CB9"/>
<path d="M865.291 57.596L886.933 66.724C887.922 67.144 888.382 68.292 887.978 69.286C887.769 69.776 887.393 70.14 886.933 70.336L865.291 79.464C859.288 81.998 852.38 79.156 849.859 73.122C847.339 67.088 850.166 60.144 856.168 57.61C859.204 56.322 862.491 56.42 865.291 57.596Z" fill="#005CB9"/>
<path d="M909.551 39.172L900.665 61.012C900.261 62.006 900.735 63.154 901.724 63.56C902.211 63.756 902.74 63.742 903.2 63.56L924.926 54.628C930.957 52.15 933.84 45.234 931.374 39.172C928.909 33.11 922.029 30.212 915.999 32.69C912.977 33.936 910.721 36.344 909.551 39.172Z" fill="#005CB9"/>
<path d="M866.516 82.432L888.242 73.5C889.231 73.094 890.373 73.57 890.777 74.564C890.972 75.054 890.958 75.586 890.777 76.048L881.891 97.888C879.426 103.95 872.546 106.848 866.516 104.37C860.486 101.892 857.603 94.976 860.068 88.914C861.307 85.862 863.703 83.594 866.516 82.432Z" fill="#005CB9"/>
<path d="M866.516 54.628L888.242 63.56C889.231 63.966 890.373 63.49 890.777 62.496C890.972 62.006 890.958 61.474 890.777 61.012L881.891 39.172C879.426 33.11 872.546 30.212 866.516 32.69C860.486 35.168 857.603 42.084 860.068 48.146C861.307 51.198 863.703 53.466 866.516 54.628Z" fill="#005CB9"/>
<path d="M909.551 97.888L900.665 76.048C900.261 75.054 900.735 73.906 901.724 73.5C902.211 73.304 902.74 73.318 903.2 73.5L924.926 82.432C930.957 84.91 933.84 91.826 931.374 97.888C928.909 103.95 922.029 106.848 915.999 104.37C912.977 103.124 910.721 100.716 909.551 97.888Z" fill="#005CB9"/>
<path d="M895.512 72.156C897.497 72.156 899.105 70.5389 899.105 68.544C899.105 66.5492 897.497 64.932 895.512 64.932C893.528 64.932 891.919 66.5492 891.919 68.544C891.919 70.5389 893.528 72.156 895.512 72.156Z" fill="#005CB9"/>
<path d="M1019.95 37.94L1029.03 59.696C1029.45 60.69 1030.59 61.152 1031.58 60.746C1032.07 60.536 1032.43 60.158 1032.62 59.696L1041.7 37.94C1044.23 31.906 1041.4 24.962 1035.4 22.428C1029.39 19.894 1022.49 22.736 1019.96 28.77C1018.68 31.808 1018.78 35.126 1019.95 37.94Z" fill="#FFA400"/>
<path d="M1019.95 99.12L1029.03 77.364C1029.45 76.37 1030.59 75.908 1031.58 76.314C1032.07 76.524 1032.43 76.902 1032.62 77.364L1041.7 99.12C1044.23 105.154 1041.4 112.098 1035.4 114.632C1029.39 117.166 1022.49 114.324 1019.96 108.29C1018.68 105.252 1018.78 101.948 1019.95 99.12Z" fill="#FFA400"/>
<path d="M1061.26 57.596L1039.62 66.724C1038.63 67.144 1038.17 68.292 1038.57 69.286C1038.78 69.776 1039.16 70.14 1039.62 70.336L1061.26 79.464C1067.26 81.998 1074.17 79.156 1076.69 73.122C1079.21 67.088 1076.38 60.144 1070.38 57.61C1067.36 56.322 1064.06 56.42 1061.26 57.596Z" fill="#FFA400"/>
<path d="M1000.4 57.596L1022.04 66.724C1023.03 67.144 1023.49 68.292 1023.08 69.286C1022.88 69.776 1022.5 70.14 1022.04 70.336L1000.4 79.464C994.394 81.998 987.487 79.156 984.966 73.122C982.445 67.088 985.272 60.144 991.275 57.61C994.297 56.322 997.584 56.42 1000.4 57.596Z" fill="#FFA400"/>
<path d="M1044.66 39.172L1035.77 61.012C1035.37 62.006 1035.84 63.154 1036.83 63.56C1037.32 63.756 1037.85 63.742 1038.31 63.56L1060.03 54.628C1066.06 52.15 1068.95 45.234 1066.48 39.172C1064.02 33.11 1057.14 30.212 1051.11 32.69C1048.07 33.936 1045.81 36.344 1044.66 39.172Z" fill="#FFA400"/>
<path d="M1001.61 82.432L1023.34 73.5C1024.32 73.094 1025.47 73.57 1025.87 74.564C1026.06 75.054 1026.05 75.586 1025.87 76.048L1016.98 97.888C1014.52 103.95 1007.64 106.848 1001.61 104.37C995.578 101.892 992.695 94.976 995.161 88.914C996.4 85.862 998.809 83.594 1001.61 82.432Z" fill="#FFA400"/>
<path d="M1001.61 54.628L1023.34 63.56C1024.32 63.966 1025.47 63.49 1025.87 62.496C1026.06 62.006 1026.05 61.474 1025.87 61.012L1016.98 39.172C1014.52 33.11 1007.64 30.212 1001.61 32.69C995.578 35.168 992.695 42.084 995.161 48.146C996.4 51.198 998.809 53.466 1001.61 54.628Z" fill="#FFA400"/>
<path d="M1044.66 97.888L1035.77 76.048C1035.37 75.054 1035.84 73.906 1036.83 73.5C1037.32 73.304 1037.85 73.318 1038.31 73.5L1060.03 82.432C1066.06 84.91 1068.95 91.826 1066.48 97.888C1064.02 103.95 1057.14 106.848 1051.11 104.37C1048.07 103.124 1045.81 100.716 1044.66 97.888Z" fill="#FFA400"/>
<path d="M1030.62 72.156C1032.6 72.156 1034.21 70.5389 1034.21 68.544C1034.21 66.5492 1032.6 64.932 1030.62 64.932C1028.63 64.932 1027.03 66.5492 1027.03 68.544C1027.03 70.5389 1028.63 72.156 1030.62 72.156Z" fill="#FFA400"/>
<path d="M1154.53 37.94L1163.61 59.696C1164.03 60.69 1165.17 61.152 1166.16 60.746C1166.64 60.536 1167.01 60.158 1167.2 59.696L1176.28 37.94C1178.8 31.906 1175.98 24.962 1169.97 22.428C1163.97 19.894 1157.06 22.736 1154.54 28.77C1153.26 31.808 1153.36 35.126 1154.53 37.94Z" fill="#0A1F8F"/>
<path d="M1154.53 99.12L1163.61 77.364C1164.03 76.37 1165.17 75.908 1166.16 76.314C1166.64 76.524 1167.01 76.902 1167.2 77.364L1176.28 99.12C1178.8 105.154 1175.98 112.098 1169.97 114.632C1163.97 117.166 1157.06 114.324 1154.54 108.29C1153.26 105.252 1153.36 101.948 1154.53 99.12Z" fill="#0A1F8F"/>
<path d="M1195.84 57.596L1174.19 66.724C1173.2 67.144 1172.74 68.292 1173.15 69.286C1173.36 69.776 1173.73 70.14 1174.19 70.336L1195.84 79.464C1201.84 81.998 1208.75 79.156 1211.27 73.122C1213.79 67.088 1210.96 60.144 1204.96 57.61C1201.94 56.322 1198.63 56.42 1195.84 57.596Z" fill="#0A1F8F"/>
<path d="M1134.97 57.596L1156.62 66.724C1157.61 67.144 1158.07 68.292 1157.66 69.286C1157.45 69.776 1157.08 70.14 1156.62 70.336L1134.97 79.464C1128.97 81.998 1122.06 79.156 1119.54 73.122C1117.02 67.088 1119.85 60.144 1125.85 57.61C1128.87 56.322 1132.16 56.42 1134.97 57.596Z" fill="#0A1F8F"/>
<path d="M1179.23 39.172L1170.35 61.012C1169.94 62.006 1170.42 63.154 1171.41 63.56C1171.89 63.756 1172.42 63.742 1172.88 63.56L1194.61 54.628C1200.64 52.15 1203.52 45.234 1201.06 39.172C1198.59 33.11 1191.71 30.212 1185.68 32.69C1182.65 33.936 1180.39 36.344 1179.23 39.172Z" fill="#0A1F8F"/>
<path d="M1136.19 82.432L1157.91 73.5C1158.9 73.094 1160.04 73.57 1160.45 74.564C1160.64 75.054 1160.63 75.586 1160.45 76.048L1151.56 97.888C1149.1 103.95 1142.22 106.848 1136.19 104.37C1130.16 101.892 1127.27 94.976 1129.74 88.914C1130.98 85.862 1133.37 83.594 1136.19 82.432Z" fill="#0A1F8F"/>
<path d="M1136.19 54.628L1157.91 63.56C1158.9 63.966 1160.04 63.49 1160.45 62.496C1160.64 62.006 1160.63 61.474 1160.45 61.012L1151.56 39.172C1149.1 33.11 1142.22 30.212 1136.19 32.69C1130.16 35.168 1127.27 42.084 1129.74 48.146C1130.98 51.198 1133.37 53.466 1136.19 54.628Z" fill="#0A1F8F"/>
<path d="M1179.23 97.888L1170.35 76.048C1169.94 75.054 1170.42 73.906 1171.41 73.5C1171.89 73.304 1172.42 73.318 1172.88 73.5L1194.61 82.432C1200.64 84.91 1203.52 91.826 1201.06 97.888C1198.59 103.95 1191.71 106.848 1185.68 104.37C1182.65 103.124 1180.39 100.716 1179.23 97.888Z" fill="#0A1F8F"/>
<path d="M1165.18 72.156C1167.17 72.156 1168.78 70.5389 1168.78 68.544C1168.78 66.5492 1167.17 64.932 1165.18 64.932C1163.2 64.932 1161.59 66.5492 1161.59 68.544C1161.59 70.5389 1163.2 72.156 1165.18 72.156Z" fill="#0A1F8F"/>
<path d="M1288.56 37.94L1297.64 59.696C1298.06 60.69 1299.2 61.152 1300.19 60.746C1300.68 60.536 1301.04 60.158 1301.24 59.696L1310.32 37.94C1312.84 31.906 1310.01 24.962 1304.01 22.428C1298 19.894 1291.1 22.736 1288.58 28.77C1287.3 31.808 1287.39 35.126 1288.56 37.94Z" fill="#FF4713"/>
<path d="M1288.56 99.12L1297.64 77.364C1298.06 76.37 1299.2 75.908 1300.19 76.314C1300.68 76.524 1301.04 76.902 1301.24 77.364L1310.32 99.12C1312.84 105.154 1310.01 112.098 1304.01 114.632C1298 117.166 1291.1 114.324 1288.58 108.29C1287.3 105.252 1287.39 101.948 1288.56 99.12Z" fill="#FF4713"/>
<path d="M1329.87 57.596L1308.23 66.724C1307.24 67.144 1306.78 68.292 1307.18 69.286C1307.39 69.776 1307.77 70.14 1308.23 70.336L1329.87 79.464C1335.87 81.998 1342.78 79.156 1345.3 73.122C1347.82 67.088 1344.99 60.144 1338.99 57.61C1335.97 56.322 1332.67 56.42 1329.87 57.596Z" fill="#FF4713"/>
<path d="M1269.01 57.596L1290.65 66.724C1291.64 67.144 1292.1 68.292 1291.7 69.286C1291.49 69.776 1291.11 70.14 1290.65 70.336L1269.01 79.464C1263.01 81.998 1256.1 79.156 1253.58 73.122C1251.06 67.088 1253.88 60.144 1259.89 57.61C1262.91 56.322 1266.2 56.42 1269.01 57.596Z" fill="#FF4713"/>
<path d="M1313.26 39.172L1304.37 61.012C1303.97 62.006 1304.44 63.154 1305.43 63.56C1305.92 63.756 1306.45 63.742 1306.9 63.56L1328.63 54.628C1334.66 52.15 1337.54 45.234 1335.08 39.172C1332.61 33.11 1325.73 30.212 1319.7 32.69C1316.68 33.936 1314.43 36.344 1313.26 39.172Z" fill="#FF4713"/>
<path d="M1270.22 82.432L1291.95 73.5C1292.94 73.094 1294.08 73.57 1294.48 74.564C1294.68 75.054 1294.66 75.586 1294.48 76.048L1285.6 97.888C1283.13 103.95 1276.25 106.848 1270.22 104.37C1264.19 101.892 1261.31 94.976 1263.77 88.914C1265.01 85.862 1267.41 83.594 1270.22 82.432Z" fill="#FF4713"/>
<path d="M1270.22 54.628L1291.95 63.56C1292.94 63.966 1294.08 63.49 1294.48 62.496C1294.68 62.006 1294.66 61.474 1294.48 61.012L1285.6 39.172C1283.13 33.11 1276.25 30.212 1270.22 32.69C1264.19 35.168 1261.31 42.084 1263.77 48.146C1265.01 51.198 1267.41 53.466 1270.22 54.628Z" fill="#FF4713"/>
<path d="M1313.26 97.888L1304.37 76.048C1303.97 75.054 1304.44 73.906 1305.43 73.5C1305.92 73.304 1306.45 73.318 1306.9 73.5L1328.63 82.432C1334.66 84.91 1337.54 91.826 1335.08 97.888C1332.61 103.95 1325.73 106.848 1319.7 104.37C1316.68 103.124 1314.43 100.716 1313.26 97.888Z" fill="#FF4713"/>
<path d="M1299.22 72.156C1301.2 72.156 1302.81 70.5389 1302.81 68.544C1302.81 66.5492 1301.2 64.932 1299.22 64.932C1297.23 64.932 1295.62 66.5492 1295.62 68.544C1295.62 70.5389 1297.23 72.156 1299.22 72.156Z" fill="#FF4713"/>
<path d="M1423.14 37.94L1432.22 59.696C1432.64 60.69 1433.78 61.152 1434.77 60.746C1435.26 60.536 1435.62 60.158 1435.81 59.696L1444.89 37.94C1447.41 31.906 1444.59 24.962 1438.58 22.428C1432.58 19.894 1425.67 22.736 1423.15 28.77C1421.86 31.808 1421.97 35.126 1423.14 37.94Z" fill="#005CB9"/>
<path d="M1423.14 99.12L1432.22 77.364C1432.64 76.37 1433.78 75.908 1434.77 76.314C1435.26 76.524 1435.62 76.902 1435.81 77.364L1444.89 99.12C1447.41 105.154 1444.59 112.098 1438.58 114.632C1432.58 117.166 1425.67 114.324 1423.15 108.29C1421.86 105.252 1421.97 101.948 1423.14 99.12Z" fill="#005CB9"/>
<path d="M1464.45 57.596L1442.8 66.724C1441.82 67.144 1441.36 68.292 1441.76 69.286C1441.97 69.776 1442.34 70.14 1442.8 70.336L1464.45 79.464C1470.45 81.998 1477.36 79.156 1479.88 73.122C1482.4 67.088 1479.57 60.144 1473.57 57.61C1470.53 56.322 1467.25 56.42 1464.45 57.596Z" fill="#005CB9"/>
<path d="M1403.57 57.596L1425.21 66.724C1426.2 67.144 1426.66 68.292 1426.26 69.286C1426.05 69.776 1425.67 70.14 1425.21 70.336L1403.57 79.464C1397.57 81.998 1390.66 79.156 1388.14 73.122C1385.62 67.088 1388.45 60.144 1394.45 57.61C1397.49 56.322 1400.77 56.42 1403.57 57.596Z" fill="#005CB9"/>
<path d="M1447.83 39.172L1438.95 61.012C1438.54 62.006 1439.02 63.154 1440 63.56C1440.49 63.756 1441.02 63.742 1441.48 63.56L1463.21 54.628C1469.24 52.15 1472.12 45.234 1469.66 39.172C1467.19 33.11 1460.31 30.212 1454.28 32.69C1451.26 33.936 1449 36.344 1447.83 39.172Z" fill="#005CB9"/>
<path d="M1404.8 82.432L1426.52 73.5C1427.51 73.094 1428.65 73.57 1429.06 74.564C1429.25 75.054 1429.24 75.586 1429.06 76.048L1420.17 97.888C1417.71 103.95 1410.83 106.848 1404.8 104.37C1398.77 101.892 1395.88 94.976 1398.35 88.914C1399.59 85.862 1401.98 83.594 1404.8 82.432Z" fill="#005CB9"/>
<path d="M1404.8 54.628L1426.52 63.56C1427.51 63.966 1428.65 63.49 1429.06 62.496C1429.25 62.006 1429.24 61.474 1429.06 61.012L1420.17 39.172C1417.71 33.11 1410.83 30.212 1404.8 32.69C1398.77 35.168 1395.88 42.084 1398.35 48.146C1399.59 51.198 1401.98 53.466 1404.8 54.628Z" fill="#005CB9"/>
<path d="M1447.83 97.888L1438.95 76.048C1438.54 75.054 1439.02 73.906 1440 73.5C1440.49 73.304 1441.02 73.318 1441.48 73.5L1463.21 82.432C1469.24 84.91 1472.12 91.826 1469.66 97.888C1467.19 103.95 1460.31 106.848 1454.28 104.37C1451.26 103.124 1449 100.716 1447.83 97.888Z" fill="#005CB9"/>
<path d="M1433.79 72.156C1435.78 72.156 1437.39 70.5389 1437.39 68.544C1437.39 66.5492 1435.78 64.932 1433.79 64.932C1431.81 64.932 1430.2 66.5492 1430.2 68.544C1430.2 70.5389 1431.81 72.156 1433.79 72.156Z" fill="#005CB9"/>
<path d="M1558.23 37.94L1567.31 59.696C1567.73 60.69 1568.87 61.152 1569.86 60.746C1570.35 60.536 1570.71 60.158 1570.91 59.696L1579.99 37.94C1582.51 31.906 1579.68 24.962 1573.68 22.428C1567.67 19.894 1560.77 22.736 1558.25 28.77C1556.96 31.808 1557.06 35.126 1558.23 37.94Z" fill="#FFA400"/>
<path d="M1558.23 99.12L1567.31 77.364C1567.73 76.37 1568.87 75.908 1569.86 76.314C1570.35 76.524 1570.71 76.902 1570.91 77.364L1579.99 99.12C1582.51 105.154 1579.68 112.098 1573.68 114.632C1567.67 117.166 1560.77 114.324 1558.25 108.29C1556.96 105.252 1557.06 101.948 1558.23 99.12Z" fill="#FFA400"/>
<path d="M1599.54 57.596L1577.9 66.724C1576.91 67.144 1576.45 68.292 1576.85 69.286C1577.06 69.776 1577.44 70.14 1577.9 70.336L1599.54 79.464C1605.54 81.998 1612.45 79.156 1614.97 73.122C1617.49 67.088 1614.66 60.144 1608.66 57.61C1605.64 56.322 1602.34 56.42 1599.54 57.596Z" fill="#FFA400"/>
<path d="M1538.68 57.596L1560.32 66.724C1561.31 67.144 1561.77 68.292 1561.37 69.286C1561.16 69.776 1560.78 70.14 1560.32 70.336L1538.68 79.464C1532.68 81.998 1525.77 79.156 1523.25 73.122C1520.73 67.088 1523.55 60.144 1529.56 57.61C1532.58 56.322 1535.87 56.42 1538.68 57.596Z" fill="#FFA400"/>
<path d="M1582.94 39.172L1574.05 61.012C1573.65 62.006 1574.12 63.154 1575.11 63.56C1575.6 63.756 1576.13 63.742 1576.59 63.56L1598.31 54.628C1604.34 52.15 1607.23 45.234 1604.76 39.172C1602.3 33.11 1595.42 30.212 1589.39 32.69C1586.35 33.936 1584.09 36.344 1582.94 39.172Z" fill="#FFA400"/>
<path d="M1539.89 82.432L1561.62 73.5C1562.61 73.094 1563.75 73.57 1564.15 74.564C1564.35 75.054 1564.33 75.586 1564.15 76.048L1555.27 97.888C1552.8 103.95 1545.92 106.848 1539.89 104.37C1533.86 101.892 1530.98 94.976 1533.44 88.914C1534.68 85.862 1537.09 83.594 1539.89 82.432Z" fill="#FFA400"/>
<path d="M1539.89 54.628L1561.62 63.56C1562.61 63.966 1563.75 63.49 1564.15 62.496C1564.35 62.006 1564.33 61.474 1564.15 61.012L1555.27 39.172C1552.8 33.11 1545.92 30.212 1539.89 32.69C1533.86 35.168 1530.98 42.084 1533.44 48.146C1534.68 51.198 1537.09 53.466 1539.89 54.628Z" fill="#FFA400"/>
<path d="M1582.94 97.888L1574.05 76.048C1573.65 75.054 1574.12 73.906 1575.11 73.5C1575.6 73.304 1576.13 73.318 1576.59 73.5L1598.31 82.432C1604.34 84.91 1607.23 91.826 1604.76 97.888C1602.3 103.95 1595.42 106.848 1589.39 104.37C1586.35 103.124 1584.09 100.716 1582.94 97.888Z" fill="#FFA400"/>
<path d="M1568.9 72.156C1570.88 72.156 1572.49 70.5389 1572.49 68.544C1572.49 66.5492 1570.88 64.932 1568.9 64.932C1566.92 64.932 1565.31 66.5492 1565.31 68.544C1565.31 70.5389 1566.92 72.156 1568.9 72.156Z" fill="#FFA400"/>
<path d="M1692.81 37.94L1701.89 59.696C1702.31 60.69 1703.45 61.152 1704.44 60.746C1704.93 60.536 1705.29 60.158 1705.48 59.696L1714.56 37.94C1717.08 31.906 1714.26 24.962 1708.26 22.428C1702.25 19.894 1695.34 22.736 1692.82 28.77C1691.54 31.808 1691.64 35.126 1692.81 37.94Z" fill="#0A1F8F"/>
<path d="M1692.81 99.12L1701.89 77.364C1702.31 76.37 1703.45 75.908 1704.44 76.314C1704.93 76.524 1705.29 76.902 1705.48 77.364L1714.56 99.12C1717.08 105.154 1714.26 112.098 1708.26 114.632C1702.25 117.166 1695.34 114.324 1692.82 108.29C1691.54 105.252 1691.64 101.948 1692.81 99.12Z" fill="#0A1F8F"/>
<path d="M1734.12 57.596L1712.47 66.724C1711.49 67.144 1711.03 68.292 1711.43 69.286C1711.64 69.776 1712.02 70.14 1712.47 70.336L1734.12 79.464C1740.12 81.998 1747.03 79.156 1749.55 73.122C1752.07 67.088 1749.24 60.144 1743.24 57.61C1740.22 56.322 1736.92 56.42 1734.12 57.596Z" fill="#0A1F8F"/>
<path d="M1673.26 57.596L1694.9 66.724C1695.89 67.144 1696.35 68.292 1695.94 69.286C1695.73 69.776 1695.36 70.14 1694.9 70.336L1673.26 79.464C1667.25 81.998 1660.35 79.156 1657.83 73.122C1655.3 67.088 1658.13 60.144 1664.13 57.61C1667.16 56.322 1670.44 56.42 1673.26 57.596Z" fill="#0A1F8F"/>
<path d="M1717.52 39.172L1708.63 61.012C1708.23 62.006 1708.7 63.154 1709.69 63.56C1710.18 63.756 1710.71 63.742 1711.17 63.56L1732.89 54.628C1738.92 52.15 1741.81 45.234 1739.34 39.172C1736.88 33.11 1730 30.212 1723.96 32.69C1720.93 33.936 1718.67 36.344 1717.52 39.172Z" fill="#0A1F8F"/>
<path d="M1674.47 82.432L1696.19 73.5C1697.18 73.094 1698.32 73.57 1698.73 74.564C1698.92 75.054 1698.91 75.586 1698.73 76.048L1689.84 97.888C1687.38 103.95 1680.5 106.848 1674.47 104.37C1668.44 101.892 1665.55 94.976 1668.02 88.914C1669.26 85.862 1671.65 83.594 1674.47 82.432Z" fill="#0A1F8F"/>
<path d="M1674.47 54.628L1696.19 63.56C1697.18 63.966 1698.32 63.49 1698.73 62.496C1698.92 62.006 1698.91 61.474 1698.73 61.012L1689.84 39.172C1687.38 33.11 1680.5 30.212 1674.47 32.69C1668.44 35.168 1665.55 42.084 1668.02 48.146C1669.26 51.198 1671.65 53.466 1674.47 54.628Z" fill="#0A1F8F"/>
<path d="M1717.52 97.888L1708.63 76.048C1708.23 75.054 1708.7 73.906 1709.69 73.5C1710.18 73.304 1710.71 73.318 1711.17 73.5L1732.89 82.432C1738.92 84.91 1741.81 91.826 1739.34 97.888C1736.88 103.95 1730 106.848 1723.96 104.37C1720.93 103.124 1718.67 100.716 1717.52 97.888Z" fill="#0A1F8F"/>
<path d="M1703.46 72.156C1705.45 72.156 1707.06 70.5389 1707.06 68.544C1707.06 66.5492 1705.45 64.932 1703.46 64.932C1701.48 64.932 1699.87 66.5492 1699.87 68.544C1699.87 70.5389 1701.48 72.156 1703.46 72.156Z" fill="#0A1F8F"/>
<path d="M1827.39 37.94L1836.47 59.696C1836.89 60.69 1838.03 61.152 1839.02 60.746C1839.5 60.536 1839.87 60.158 1840.06 59.696L1849.14 37.94C1851.66 31.906 1848.83 24.962 1842.83 22.428C1836.83 19.894 1829.92 22.736 1827.4 28.77C1826.11 31.808 1826.22 35.126 1827.39 37.94Z" fill="#FF4713"/>
<path d="M1827.39 99.12L1836.47 77.364C1836.89 76.37 1838.03 75.908 1839.02 76.314C1839.5 76.524 1839.87 76.902 1840.06 77.364L1849.14 99.12C1851.66 105.154 1848.83 112.098 1842.83 114.632C1836.83 117.166 1829.92 114.324 1827.4 108.29C1826.11 105.252 1826.22 101.948 1827.39 99.12Z" fill="#FF4713"/>
<path d="M1868.69 57.596L1847.05 66.724C1846.06 67.144 1845.6 68.292 1846.01 69.286C1846.22 69.776 1846.59 70.14 1847.05 70.336L1868.69 79.464C1874.7 81.998 1881.61 79.156 1884.13 73.122C1886.65 67.088 1883.82 60.144 1877.82 57.61C1874.78 56.322 1871.49 56.42 1868.69 57.596Z" fill="#FF4713"/>
<path d="M1807.82 57.596L1829.46 66.724C1830.45 67.144 1830.91 68.292 1830.51 69.286C1830.3 69.776 1829.92 70.14 1829.46 70.336L1807.82 79.464C1801.82 81.998 1794.91 79.156 1792.39 73.122C1789.87 67.088 1792.7 60.144 1798.7 57.61C1801.73 56.322 1805.02 56.42 1807.82 57.596Z" fill="#FF4713"/>
<path d="M1852.08 39.172L1843.19 61.012C1842.79 62.006 1843.26 63.154 1844.25 63.56C1844.74 63.756 1845.27 63.742 1845.73 63.56L1867.46 54.628C1873.49 52.15 1876.37 45.234 1873.9 39.172C1871.44 33.11 1864.56 30.212 1858.53 32.69C1855.51 33.936 1853.25 36.344 1852.08 39.172Z" fill="#FF4713"/>
<path d="M1809.04 82.432L1830.77 73.5C1831.76 73.094 1832.9 73.57 1833.31 74.564C1833.5 75.054 1833.49 75.586 1833.31 76.048L1824.42 97.888C1821.96 103.95 1815.08 106.848 1809.04 104.37C1803.01 101.892 1800.13 94.976 1802.6 88.914C1803.84 85.862 1806.23 83.594 1809.04 82.432Z" fill="#FF4713"/>
<path d="M1809.04 54.628L1830.77 63.56C1831.76 63.966 1832.9 63.49 1833.31 62.496C1833.5 62.006 1833.49 61.474 1833.31 61.012L1824.42 39.172C1821.96 33.11 1815.08 30.212 1809.04 32.69C1803.01 35.168 1800.13 42.084 1802.6 48.146C1803.84 51.198 1806.23 53.466 1809.04 54.628Z" fill="#FF4713"/>
<path d="M1852.08 97.888L1843.19 76.048C1842.79 75.054 1843.26 73.906 1844.25 73.5C1844.74 73.304 1845.27 73.318 1845.73 73.5L1867.46 82.432C1873.49 84.91 1876.37 91.826 1873.9 97.888C1871.44 103.95 1864.56 106.848 1858.53 104.37C1855.51 103.124 1853.25 100.716 1852.08 97.888Z" fill="#FF4713"/>
<path d="M1838.04 72.156C1840.03 72.156 1841.63 70.5389 1841.63 68.544C1841.63 66.5492 1840.03 64.932 1838.04 64.932C1836.06 64.932 1834.45 66.5492 1834.45 68.544C1834.45 70.5389 1836.06 72.156 1838.04 72.156Z" fill="#FF4713"/>
</svg>
