<svg width="414" height="1517" viewBox="0 0 414 1517" fill="none" xmlns="http://www.w3.org/2000/svg">
<rect width="414" height="1517" fill="#F7E3DB"/>
<g clip-path="url(#clip0_58_409)">
<rect y="1103" width="414" height="414" fill="#FA8433"/>
<path d="M207.5 1130C70.8055 1130 -40.0125 1240.81 -40.0125 1377.5C-40.0125 1514.19 70.8055 1625 207.5 1625C344.195 1625 455.013 1514.19 455.013 1377.5C455.013 1240.81 344.195 1130 207.5 1130ZM207.5 1591.84C89.1213 1591.84 -6.82447 1495.87 -6.82447 1377.52C-6.82447 1259.18 89.1213 1163.19 207.5 1163.19C325.879 1163.19 421.825 1259.15 421.825 1377.5C421.825 1495.85 325.854 1591.84 207.5 1591.84Z" fill="#F7E4DB"/>
<path d="M207.5 1192.26C105.191 1192.26 22.2461 1275.2 22.2461 1377.5C22.2461 1479.8 105.191 1562.74 207.5 1562.74C309.809 1562.74 392.754 1479.8 392.754 1377.5C392.754 1275.2 309.809 1192.26 207.5 1192.26ZM207.5 1531.83C122.284 1531.83 53.1883 1462.74 53.1883 1377.5C53.1883 1292.26 122.284 1223.2 207.5 1223.2C292.716 1223.2 361.812 1292.29 361.812 1377.5C361.812 1462.74 292.716 1531.83 207.5 1531.83Z" fill="#F7E4DB"/>
<path d="M207.5 1254.19C139.402 1254.19 84.1804 1309.41 84.1804 1377.5C84.1804 1445.59 139.402 1500.81 207.5 1500.81C275.598 1500.81 330.82 1445.59 330.82 1377.5C330.82 1309.41 275.598 1254.19 207.5 1254.19ZM207.5 1470.27C156.271 1470.27 114.748 1428.75 114.748 1377.53C114.748 1326.3 156.271 1284.75 207.5 1284.75C258.729 1284.75 300.252 1326.27 300.252 1377.53C300.252 1428.78 258.729 1470.27 207.5 1470.27Z" fill="#F7E4DB"/>
<g clip-path="url(#clip1_58_409)">
<path d="M-18 1429.43L119.246 1357.33L132.045 1303.9L145.504 1283.31L163.418 1276.87L172.398 1264L187.767 1267.22L193.518 1286.53L234.508 1318.71L242.192 1304.54L260.743 1305.2L271.633 1294.9L278.044 1299.4L279.954 1319.35L287.001 1313.57L294.685 1316.13L308.781 1354.75L412.517 1421.06L433 1428.79V1609H-18V1429.43Z" fill="#1E7E8B"/>
</g>
</g>
<defs>
<clipPath id="clip0_58_409">
<rect width="414" height="414" fill="white" transform="translate(0 1103)"/>
</clipPath>
<clipPath id="clip1_58_409">
<rect width="451" height="345" fill="white" transform="translate(-18 1264)"/>
</clipPath>
</defs>
</svg>
