<svg width="1920" height="1074" viewBox="0 0 1920 1074" fill="none" xmlns="http://www.w3.org/2000/svg">
<g clip-path="url(#clip0_5_68)">
<rect width="1920" height="1074" fill="#F7E3DB"/>
<rect width="941" height="1074" fill="#FA8433"/>
<g clip-path="url(#clip1_5_68)">
<path d="M470.5 80C185.803 80 -45 310.791 -45 595.474C-45 880.157 185.803 1110.95 470.5 1110.95C755.197 1110.95 986 880.157 986 595.474C986 310.791 755.197 80 470.5 80ZM470.5 1041.88C223.95 1041.88 24.1214 842.012 24.1214 595.526C24.1214 349.04 223.95 149.118 470.5 149.118C717.05 149.118 916.879 348.988 916.879 595.474C916.879 841.96 716.998 1041.88 470.5 1041.88Z" fill="#F7E4DB"/>
<path d="M470.5 209.661C257.419 209.661 84.6676 382.404 84.6676 595.474C84.6676 808.544 257.419 981.287 470.5 981.287C683.581 981.287 856.332 808.544 856.332 595.474C856.332 382.404 683.581 209.661 470.5 209.661ZM470.5 916.898C293.019 916.898 149.112 772.998 149.112 595.474C149.112 417.95 293.019 274.102 470.5 274.102C647.981 274.102 791.888 418.002 791.888 595.474C791.888 772.998 647.981 916.898 470.5 916.898Z" fill="#F7E4DB"/>
<path d="M470.5 338.646C328.671 338.646 213.659 453.652 213.659 595.474C213.659 737.296 328.671 852.302 470.5 852.302C612.329 852.302 727.34 737.296 727.34 595.474C727.34 453.652 612.329 338.646 470.5 338.646ZM470.5 788.692C363.804 788.692 277.324 702.217 277.324 595.526C277.324 488.835 363.804 402.308 470.5 402.308C577.196 402.308 663.676 488.783 663.676 595.526C663.676 702.269 577.196 788.692 470.5 788.692Z" fill="#F7E4DB"/>
</g>
<g clip-path="url(#clip2_5_68)">
<path d="M0 704.801L286.36 554.961L313.066 443.923L341.147 401.131L378.525 387.738L397.262 361L429.327 367.696L441.328 407.828L526.852 474.698L542.885 445.252L581.591 446.63L604.312 425.21L617.688 434.566L621.673 476.028L636.377 464.012L652.41 469.331L681.819 549.594L898.262 687.419L941 703.471V1078H0V704.801Z" fill="#1E7E8B"/>
</g>
</g>
<defs>
<clipPath id="clip0_5_68">
<rect width="1920" height="1074" fill="white"/>
</clipPath>
<clipPath id="clip1_5_68">
<rect width="941" height="901" fill="white" transform="translate(0 22)"/>
</clipPath>
<clipPath id="clip2_5_68">
<rect width="941" height="717" fill="white" transform="translate(0 361)"/>
</clipPath>
</defs>
</svg>
