<svg width="227" height="740" viewBox="0 0 227 740" fill="none" xmlns="http://www.w3.org/2000/svg">
<ellipse cx="400" cy="370" rx="368" ry="370" fill="#02A550"/>
<g clip-path="url(#clip0_273_274)">
<path d="M18.12 174.22C16.28 169.93 9.98003 169.93 8.14003 174.22L1.00003 190.87C-2.50997 199.06 3.62003 208.18 12.8 208.25C12.96 208.25 13.11 208.25 13.27 208.25C22.53 208.23 28.8 199.13 25.26 190.87L18.12 174.22Z" fill="#FDCD0A"/>
<path d="M99.05 174.22C97.21 169.93 90.91 169.93 89.07 174.22L81.93 190.87C78.42 199.06 84.55 208.18 93.73 208.25C93.89 208.25 94.04 208.25 94.2 208.25C103.46 208.23 109.73 199.13 106.19 190.87L99.05 174.22Z" fill="#FDCD0A"/>
<path d="M179.99 174.22C178.15 169.93 171.85 169.93 170.01 174.22L162.87 190.87C159.36 199.06 165.49 208.18 174.67 208.25C174.83 208.25 174.98 208.25 175.14 208.25C184.4 208.23 190.67 199.13 187.13 190.87L179.99 174.22Z" fill="#FDCD0A"/>
<path d="M18.12 252.41C16.28 248.12 9.98003 248.12 8.14003 252.41L1.00003 269.06C-2.50997 277.25 3.62003 286.37 12.8 286.44C12.96 286.44 13.11 286.44 13.27 286.44C22.53 286.42 28.8 277.32 25.26 269.06L18.12 252.41Z" fill="#FDCD0A"/>
<path d="M99.05 252.41C97.21 248.12 90.91 248.12 89.07 252.41L81.93 269.06C78.42 277.25 84.55 286.37 93.73 286.44C93.89 286.44 94.04 286.44 94.2 286.44C103.46 286.42 109.73 277.32 106.19 269.06L99.05 252.41Z" fill="#FDCD0A"/>
<path d="M179.99 252.41C178.15 248.12 171.85 248.12 170.01 252.41L162.87 269.06C159.36 277.25 165.49 286.37 174.67 286.44C174.83 286.44 174.98 286.44 175.14 286.44C184.4 286.42 190.67 277.32 187.13 269.06L179.99 252.41Z" fill="#FDCD0A"/>
<path d="M18.12 330.6C16.28 326.31 9.98003 326.31 8.14003 330.6L1.00003 347.24C-2.50997 355.43 3.62003 364.55 12.8 364.62C12.96 364.62 13.11 364.62 13.27 364.62C22.53 364.6 28.8 355.5 25.26 347.24L18.12 330.6Z" fill="#FDCD0A"/>
<path d="M99.05 330.6C97.21 326.31 90.91 326.31 89.07 330.6L81.93 347.25C78.42 355.44 84.55 364.56 93.73 364.63C93.89 364.63 94.04 364.63 94.2 364.63C103.46 364.61 109.73 355.51 106.19 347.25L99.05 330.6Z" fill="#FDCD0A"/>
<path d="M179.99 330.6C178.15 326.31 171.85 326.31 170.01 330.6L162.87 347.25C159.36 355.44 165.49 364.56 174.67 364.63C174.83 364.63 174.98 364.63 175.14 364.63C184.4 364.61 190.67 355.51 187.13 347.25L179.99 330.6Z" fill="#FDCD0A"/>
<path d="M18.12 408.79C16.28 404.5 9.98003 404.5 8.14003 408.79L1.00003 425.43C-2.50997 433.62 3.62003 442.74 12.8 442.81C12.96 442.81 13.11 442.81 13.27 442.81C22.53 442.79 28.8 433.69 25.26 425.43L18.12 408.79Z" fill="#FDCD0A"/>
<path d="M99.05 408.79C97.21 404.5 90.91 404.5 89.07 408.79L81.93 425.44C78.42 433.63 84.55 442.75 93.73 442.82C93.89 442.82 94.04 442.82 94.2 442.82C103.46 442.8 109.73 433.7 106.19 425.44L99.05 408.79Z" fill="#FDCD0A"/>
<path d="M179.99 408.79C178.15 404.5 171.85 404.5 170.01 408.79L162.87 425.44C159.36 433.63 165.49 442.75 174.67 442.82C174.83 442.82 174.98 442.82 175.14 442.82C184.4 442.8 190.67 433.7 187.13 425.44L179.99 408.79Z" fill="#FDCD0A"/>
<path d="M18.12 486.97C16.28 482.68 9.98003 482.68 8.14003 486.97L1.00003 503.62C-2.50997 511.81 3.62003 520.93 12.8 521C12.96 521 13.11 521 13.27 521C22.53 520.98 28.8 511.88 25.26 503.62L18.12 486.97Z" fill="#FDCD0A"/>
<path d="M99.05 486.97C97.21 482.68 90.91 482.68 89.07 486.97L81.93 503.62C78.42 511.81 84.55 520.93 93.73 521C93.89 521 94.04 521 94.2 521C103.46 520.98 109.73 511.88 106.19 503.62L99.05 486.97Z" fill="#FDCD0A"/>
<path d="M179.99 486.97C178.15 482.68 171.85 482.68 170.01 486.97L162.87 503.62C159.36 511.81 165.49 520.93 174.67 521C174.83 521 174.98 521 175.14 521C184.4 520.98 190.67 511.88 187.13 503.62L179.99 486.97Z" fill="#FDCD0A"/>
</g>
<defs>
<clipPath id="clip0_273_274">
<rect width="350" height="350" fill="white" transform="translate(0 171)"/>
</clipPath>
</defs>
</svg>
