<svg width="85" height="85" viewBox="0 0 85 85" fill="none" xmlns="http://www.w3.org/2000/svg">
<path d="M44.7066 50.785C45.9513 49.8447 47.2358 48.9058 48.4844 47.9217C49.3172 47.2656 50.2152 47.0691 51.2168 47.3692C53.1973 47.9628 55.2124 48.2935 57.2833 48.3281C58.848 48.3533 59.9745 49.5313 59.9877 51.1024C60.005 53.0932 59.9984 55.0853 59.9904 57.0761C59.9838 58.877 58.8374 60.0324 57.0322 59.9992C48.4286 59.8398 41.051 56.7441 34.9872 50.6363C30.1654 45.7768 27.2975 39.9041 26.3065 33.1362C26.0993 31.7192 26.0356 30.2756 26.001 28.8413C25.9599 27.1732 27.1554 26.0178 28.8397 26.0085C30.8308 25.9965 32.8233 25.9979 34.8145 26.0085C36.5148 26.0178 37.6346 27.1161 37.6837 28.82C37.7382 30.7284 37.9759 32.6077 38.5604 34.4311C38.9483 35.6423 38.7796 36.6981 37.9281 37.6982C37.0408 38.7407 36.2504 39.8669 35.4521 40.9798C35.3366 41.1419 35.3126 41.4858 35.4043 41.6625C37.507 45.6852 40.6007 48.7119 44.7066 50.785Z" fill="white"/>
<path fill-rule="evenodd" clip-rule="evenodd" d="M42.5 84C65.4198 84 84 65.4198 84 42.5C84 19.5802 65.4198 1 42.5 1C19.5802 1 1 19.5802 1 42.5C1 65.4198 19.5802 84 42.5 84ZM42.5 85C65.9721 85 85 65.9721 85 42.5C85 19.0279 65.9721 0 42.5 0C19.0279 0 0 19.0279 0 42.5C0 65.9721 19.0279 85 42.5 85Z" fill="white"/>
</svg>
