<svg width="85" height="85" viewBox="0 0 85 85" fill="none" xmlns="http://www.w3.org/2000/svg">
<path fill-rule="evenodd" clip-rule="evenodd" d="M42.5 84.15C65.5027 84.15 84.15 65.5027 84.15 42.5C84.15 19.4973 65.5027 0.85 42.5 0.85C19.4973 0.85 0.85 19.4973 0.85 42.5C0.85 65.5027 19.4973 84.15 42.5 84.15ZM42.5 85C65.9721 85 85 65.9721 85 42.5C85 19.0279 65.9721 0 42.5 0C19.0279 0 0 19.0279 0 42.5C0 65.9721 19.0279 85 42.5 85Z" fill="white"/>
<path d="M59.492 38.6641C59.492 39.8527 59.492 40.9948 59.492 42.1369C59.492 46.0514 59.4941 49.9663 59.4904 53.8808C59.4893 54.9836 58.7806 55.8375 57.6915 56.0635C57.5374 56.0954 57.3754 56.0985 57.2166 56.0985C47.4072 56.1001 37.5974 56.1001 27.7881 56.0991C26.4631 56.0991 25.5031 55.1647 25.5026 53.863C25.4983 48.8588 25.5005 43.854 25.501 38.8498C25.501 38.7917 25.501 38.7337 25.501 38.6306C26.0764 38.9759 26.6177 39.2987 27.157 39.6246C31.3933 42.184 35.6296 44.744 39.8654 47.3034C40.4461 47.6539 41.0241 48.0086 41.6074 48.3544C42.1992 48.7055 42.7996 48.7065 43.3893 48.3518C47.5852 45.8275 51.779 43.3 55.9739 40.7741C57.0906 40.1018 58.2079 39.4305 59.3246 38.7588C59.3682 38.7326 59.4128 38.7085 59.492 38.6641Z" fill="white"/>
<path d="M42.5213 32.3006C47.4164 32.3006 52.312 32.2985 57.2071 32.3022C58.5299 32.3032 59.483 33.2481 59.4995 34.5419C59.5016 34.7224 59.4427 34.8176 59.2875 34.9107C55.9358 36.9234 52.5877 38.9424 49.2386 40.9598C47.0668 42.2682 44.8934 43.5746 42.7248 44.8883C42.559 44.9888 42.4443 44.9898 42.2774 44.8883C37.6602 42.093 33.0392 39.3039 28.4188 36.5127C27.5072 35.9618 26.5987 35.4051 25.6839 34.8589C25.5558 34.7826 25.5011 34.7072 25.5 34.5534C25.4931 33.2915 26.4685 32.3032 27.7558 32.3022C32.6774 32.2985 37.5996 32.3006 42.5213 32.3006Z" fill="white"/>
</svg>
