<svg width="80" height="80" viewBox="0 0 80 80" fill="none" xmlns="http://www.w3.org/2000/svg">
<path d="M42.0768 47.7976C43.2482 46.9127 44.4572 46.029 45.6324 45.1028C46.4162 44.4853 47.2614 44.3003 48.204 44.5828C50.0681 45.1415 51.9646 45.4527 53.9137 45.4852C55.3864 45.509 56.4466 46.6177 56.4591 48.0964C56.4753 49.9701 56.4691 51.845 56.4616 53.7187C56.4553 55.4136 55.3764 56.5011 53.6774 56.4698C45.5799 56.3198 38.6363 53.4062 32.9291 47.6577C28.3909 43.0841 25.6918 37.5568 24.7591 31.1871C24.5641 29.8534 24.5041 28.4947 24.4716 27.1447C24.4328 25.5748 25.558 24.4873 27.1432 24.4786C29.0173 24.4673 30.8926 24.4686 32.7666 24.4786C34.3669 24.4873 35.4208 25.521 35.467 27.1247C35.5183 28.9209 35.7421 30.6896 36.2922 32.4058C36.6572 33.5457 36.4984 34.5394 35.6971 35.4806C34.8619 36.4618 34.1181 37.5218 33.3667 38.5693C33.2579 38.7218 33.2354 39.0455 33.3217 39.2117C35.3008 42.9978 38.2125 45.8465 42.0768 47.7976Z" fill="#FA8F21"/>
<path fill-rule="evenodd" clip-rule="evenodd" d="M40 79.0588C61.5716 79.0588 79.0588 61.5716 79.0588 40C79.0588 18.4284 61.5716 0.941176 40 0.941176C18.4284 0.941176 0.941176 18.4284 0.941176 40C0.941176 61.5716 18.4284 79.0588 40 79.0588ZM40 80C62.0914 80 80 62.0914 80 40C80 17.9086 62.0914 0 40 0C17.9086 0 0 17.9086 0 40C0 62.0914 17.9086 80 40 80Z" fill="#FA8F21"/>
</svg>
