<svg width="80" height="80" viewBox="0 0 80 80" fill="none" xmlns="http://www.w3.org/2000/svg">
<path fill-rule="evenodd" clip-rule="evenodd" d="M40 79.2C61.6496 79.2 79.2 61.6496 79.2 40C79.2 18.3504 61.6496 0.8 40 0.8C18.3504 0.8 0.8 18.3504 0.8 40C0.8 61.6496 18.3504 79.2 40 79.2ZM40 80C62.0914 80 80 62.0914 80 40C80 17.9086 62.0914 0 40 0C17.9086 0 0 17.9086 0 40C0 62.0914 17.9086 80 40 80Z" fill="#FA8F21"/>
<path d="M55.9924 36.3897C55.9924 37.5085 55.9924 38.5834 55.9924 39.6583C55.9924 43.3425 55.9944 47.0271 55.9909 50.7113C55.9899 51.7493 55.3229 52.5529 54.2979 52.7656C54.1529 52.7957 54.0004 52.7986 53.8509 52.7986C44.6186 52.8001 35.3858 52.8001 26.1535 52.7991C24.9065 52.7991 24.0029 51.9197 24.0024 50.6946C23.9984 45.9847 24.0004 41.2744 24.0009 36.5645C24.0009 36.5099 24.0009 36.4552 24.0009 36.3582C24.5425 36.6832 25.052 36.987 25.5595 37.2938C29.5466 39.7026 33.5337 42.112 37.5204 44.5208C38.0669 44.8507 38.6109 45.1846 39.1599 45.51C39.7169 45.8404 40.282 45.8414 40.837 45.5076C44.7861 43.1317 48.7332 40.7529 52.6813 38.3756C53.7324 37.7428 54.7839 37.1111 55.8349 36.4788C55.8759 36.4542 55.9179 36.4316 55.9924 36.3897Z" fill="#FA8F21"/>
<path d="M40.02 30.4006C44.6272 30.4006 49.2348 30.3986 53.842 30.402C55.087 30.403 55.984 31.2923 55.9995 32.51C56.0015 32.6799 55.946 32.7695 55.8 32.8572C52.6454 34.7514 49.4943 36.6516 46.3422 38.5504C44.2982 39.7819 42.2526 41.0114 40.2115 42.2478C40.0555 42.3424 39.9475 42.3434 39.7905 42.2478C35.4449 39.6169 31.0958 36.9919 26.7471 34.3649C25.8891 33.8464 25.0341 33.3225 24.173 32.8084C24.0525 32.7365 24.001 32.6656 24 32.5209C23.9935 31.3332 24.9116 30.403 26.1231 30.402C30.7552 30.3986 35.3879 30.4006 40.02 30.4006Z" fill="#FA8F21"/>
</svg>
