<svg width="81" height="80" viewBox="0 0 81 80" fill="none" xmlns="http://www.w3.org/2000/svg">
<path fill-rule="evenodd" clip-rule="evenodd" d="M40.5 79.2C62.1496 79.2 79.7 61.6496 79.7 40C79.7 18.3504 62.1496 0.8 40.5 0.8C18.8504 0.8 1.3 18.3504 1.3 40C1.3 61.6496 18.8504 79.2 40.5 79.2ZM40.5 80C62.5914 80 80.5 62.0914 80.5 40C80.5 17.9086 62.5914 0 40.5 0C18.4086 0 0.5 17.9086 0.5 40C0.5 62.0914 18.4086 80 40.5 80Z" fill="#FA8F21"/>
<path d="M40.9481 59.2002C37.4825 53.8085 34.1121 48.5705 31.4944 42.8967C30.4978 40.7352 29.4983 38.5528 29.3258 36.1287C28.9257 30.4847 33.2316 25.0675 38.7959 24.1674C45.4281 23.0957 51.2496 27.2783 52.3637 33.9343C52.6701 35.7674 52.4589 37.5856 51.7256 39.2694C50.4702 42.1548 49.2387 45.0671 47.7246 47.8167C45.611 51.6605 43.2476 55.3654 40.9481 59.2002ZM41.2114 29.2367C37.7711 29.2248 34.9659 32.0281 34.9644 35.4793C34.9629 38.9305 37.7636 41.7667 41.1786 41.7697C44.61 41.7727 47.4063 38.9738 47.4286 35.5122C47.4509 32.0684 44.6561 29.2487 41.2114 29.2367Z" fill="#FA8F21"/>
</svg>
