<svg width="38" height="37" viewBox="0 0 38 37" fill="none" xmlns="http://www.w3.org/2000/svg">
<path d="M17.7506 0C18.6026 0 19.4546 0 20.3066 0C20.8781 0.0766668 21.4518 0.135587 22.0198 0.23355C25.3148 0.802872 28.2563 2.14525 30.7959 4.32671C34.0966 7.16196 36.1555 10.7199 36.9259 15.0097C37.038 15.6344 37.1126 16.2669 37.2042 16.8951C37.2042 17.747 37.2042 18.5988 37.2042 19.4507C37.1807 19.5529 37.1495 19.6544 37.1353 19.7573C37.0522 20.365 37.0082 20.9804 36.8882 21.581C35.9979 26.0454 33.7785 29.7176 30.1846 32.5096C26.1512 35.643 21.5554 36.8405 16.5032 36.1718C12.9483 35.7012 9.80308 34.2502 7.10372 31.8813C3.90241 29.0724 1.89812 25.5705 1.13631 21.3723C1.02058 20.7355 0.946745 20.0917 0.853027 19.4507C0.853027 18.5988 0.853027 17.747 0.853027 16.8951C0.905566 16.4869 0.952425 16.078 1.01206 15.6706C1.52822 12.1354 2.92476 8.99274 5.27409 6.29804C8.09699 3.05958 11.6256 1.035 15.8663 0.279692C16.4904 0.168241 17.1223 0.0922842 17.7506 0ZM29.3958 18.1729C29.356 18.1729 29.4355 18.1722 29.3958 18.1729C29.3333 16.472 29.4256 14.7669 29.317 13.0689C29.2446 11.9444 28.8597 10.9023 28.1569 9.99863C26.9485 8.44542 25.2729 7.85196 23.3943 7.82073C20.4855 7.77175 17.5753 7.78381 14.6658 7.81789C13.3111 7.83422 12.0204 8.1636 10.9107 9.00338C9.31816 10.2088 8.70615 11.9004 8.6742 13.8071C8.62593 16.7155 8.63728 19.626 8.67207 22.5344C8.6884 23.9016 9.0221 25.2028 9.87905 26.3173C11.086 27.889 12.7701 28.4938 14.6622 28.5257C17.571 28.5754 20.4812 28.5634 23.3907 28.5279C24.7582 28.5115 26.0581 28.1744 27.1735 27.3175C28.7334 26.1193 29.3198 24.451 29.3858 22.5713C29.4362 21.1068 29.3958 19.6395 29.3958 18.1729Z" fill="#33C7CA"/>
<path d="M10.4158 18.1743C10.4719 16.5423 10.4911 14.9103 10.5933 13.2832C10.719 11.28 12.129 9.81052 14.1269 9.74947C17.2096 9.65505 20.2959 9.67422 23.3808 9.68345C24.2704 9.68629 25.1451 9.88434 25.9005 10.4061C26.9087 11.1018 27.4199 12.1183 27.4582 13.2967C27.5427 15.9069 27.5576 18.52 27.5591 21.1324C27.5591 21.9899 27.5186 22.8673 27.339 23.7014C26.9648 25.4406 25.6918 26.5395 23.9126 26.602C21.2792 26.6943 18.6417 26.6957 16.0055 26.7021C15.2053 26.7042 14.391 26.6666 13.6072 26.5203C11.8429 26.1924 10.7026 24.8805 10.5933 23.0654C10.4939 21.4376 10.4712 19.8056 10.4158 18.1743ZM19.0265 12.831C16.0559 12.8318 13.6888 15.1964 13.686 18.1651C13.6824 21.1338 16.046 23.5062 19.013 23.514C21.997 23.5218 24.3762 21.1451 24.3712 18.1615C24.3655 15.1921 21.9978 12.8303 19.0265 12.831ZM24.5956 13.8462C25.2757 13.8483 25.8395 13.2932 25.8466 12.6152C25.8537 11.9373 25.2992 11.368 24.6218 11.3559C23.9282 11.3439 23.3538 11.911 23.356 12.6067C23.3581 13.2882 23.9133 13.844 24.5956 13.8462Z" fill="#33C7CA"/>
<path d="M19.057 14.6959C20.9867 14.7023 22.516 16.264 22.5061 18.2183C22.4962 20.1279 20.9356 21.6555 19.0009 21.6492C17.0733 21.6428 15.5426 20.0789 15.5518 18.126C15.561 16.2193 17.123 14.6902 19.057 14.6959Z" fill="#33C7CA"/>
</svg>
