<svg width="35" height="35" viewBox="0 0 35 35" fill="none" xmlns="http://www.w3.org/2000/svg">
<path d="M16.2695 0C17.0898 0 17.9102 0 18.7305 0C19.2808 0.0738172 19.8331 0.130547 20.38 0.224869C23.5525 0.77303 26.3847 2.06551 28.8299 4.16589C32.0079 6.89576 33.9903 10.3214 34.732 14.4518C34.84 15.0532 34.9118 15.6622 35 16.2671C35 17.0873 35 17.9075 35 18.7277C34.9774 18.8261 34.9474 18.9239 34.9337 19.023C34.8537 19.608 34.8113 20.2006 34.6958 20.7789C33.8386 25.0773 31.7017 28.613 28.2413 31.3012C24.3578 34.3182 19.9329 35.4712 15.0685 34.8274C11.6457 34.3742 8.61738 32.9771 6.01836 30.6963C2.93603 27.9918 1.00625 24.6201 0.272754 20.5779C0.161328 19.9648 0.0902344 19.3449 0 18.7277C0 17.9075 0 17.0873 0 16.2671C0.0505859 15.8741 0.0957031 15.4804 0.153125 15.0881C0.650098 11.6843 1.99473 8.65848 4.25674 6.06395C6.97471 2.94585 10.3722 0.996532 14.4553 0.269296C15.0562 0.161988 15.6646 0.088854 16.2695 0ZM27.4818 17.4974C27.4436 17.4974 27.5201 17.4967 27.4818 17.4974C27.4217 15.8598 27.5105 14.218 27.406 12.5831C27.3362 11.5004 26.9657 10.4971 26.289 9.62699C25.1255 8.13151 23.5122 7.56011 21.7034 7.53004C18.9027 7.48287 16.1007 7.49449 13.2993 7.5273C11.995 7.54302 10.7522 7.86016 9.68379 8.66874C8.15049 9.82931 7.56123 11.4581 7.53047 13.2939C7.48398 16.0942 7.49492 18.8965 7.52842 21.6968C7.54414 23.0132 7.86543 24.266 8.69053 25.3391C9.85264 26.8524 11.4741 27.4347 13.2959 27.4655C16.0966 27.5133 18.8986 27.5017 21.7 27.4675C23.0166 27.4518 24.2683 27.1271 25.3422 26.3022C26.844 25.1484 27.4087 23.5422 27.4723 21.7323C27.5208 20.3223 27.4818 18.9095 27.4818 17.4974Z" fill="white"/>
<path d="M9.20732 17.4988C9.26133 15.9274 9.27979 14.3561 9.37822 12.7895C9.49922 10.8607 10.8568 9.44587 12.7805 9.38708C15.7486 9.29618 18.7202 9.31464 21.6904 9.32352C22.547 9.32625 23.3892 9.51695 24.1165 10.0193C25.0872 10.6891 25.5794 11.6679 25.6163 12.8025C25.6977 15.3157 25.712 17.8316 25.7134 20.3469C25.7134 21.1725 25.6744 22.0173 25.5015 22.8204C25.1412 24.495 23.9155 25.553 22.2024 25.6132C19.667 25.7021 17.1274 25.7034 14.5893 25.7096C13.8188 25.7116 13.0348 25.6754 12.2801 25.5346C10.5813 25.2188 9.4835 23.9557 9.37822 22.208C9.28252 20.6408 9.26064 19.0694 9.20732 17.4988ZM17.4979 12.3541C14.6378 12.3548 12.3587 14.6315 12.356 17.4899C12.3525 20.3483 14.6282 22.6325 17.485 22.64C20.3581 22.6475 22.6488 20.3592 22.644 17.4865C22.6386 14.6274 20.3588 12.3534 17.4979 12.3541ZM22.8601 13.3315C23.5149 13.3336 24.0577 12.7991 24.0646 12.1463C24.0714 11.4936 23.5375 10.9454 22.8854 10.9338C22.2175 10.9222 21.6645 11.4683 21.6665 12.1381C21.6686 12.7943 22.2031 13.3295 22.8601 13.3315Z" fill="white"/>
<path d="M17.5273 14.1497C19.3854 14.1558 20.8578 15.6595 20.8482 17.5412C20.8387 19.3797 19.3361 20.8506 17.4733 20.8445C15.6174 20.8383 14.1436 19.3326 14.1524 17.4523C14.1613 15.6164 15.6652 14.1442 17.5273 14.1497Z" fill="white"/>
</svg>
