<svg width="166" height="209" viewBox="0 0 166 209" fill="none" xmlns="http://www.w3.org/2000/svg">
<g clip-path="url(#clip0_73_285)">
<path d="M158.848 144.173C158.406 140.004 157.829 135.804 156.666 131.759C155.461 127.579 153.763 123.483 151.797 119.615C149.82 115.725 147.236 112.303 144.539 108.891C142.563 106.402 140.329 104.12 137.879 102.108C134.574 99.3912 131.177 96.8088 127.43 94.7554C128.367 93.2723 129.211 91.7374 129.952 90.1507C131.537 86.7697 133.01 83.2643 134.039 79.6656C135.038 76.181 135.521 72.6134 135.964 69.025C136.293 66.3493 136.458 63.6528 136.335 60.9668C136.16 57.1191 135.655 53.23 134.79 49.4861C133.967 45.9081 132.557 42.5168 131.054 39.1774C129.983 36.7817 128.645 34.5208 127.07 32.4259C124.723 29.2939 122.396 26.2863 119.359 23.8076C116.199 21.2252 112.997 18.7777 109.322 17.0043C105.39 15.096 101.283 13.4263 97.031 12.3996C89.6397 10.6158 82.166 10.4394 74.6203 10.2424C67.4452 10.0557 60.2597 9.77571 53.0846 9.51643C48.4213 3.885 41.4006 0.307018 33.5666 0.348501C20.3693 0.421098 9.2206 11.1032 8.52059 24.378C7.74852 39.0114 19.3399 51.1766 33.7107 51.1766C42.2138 51.1766 49.7493 46.9037 54.3199 40.3908C61.4848 40.6915 68.6599 41.0027 75.8247 41.1686C79.1498 41.2412 82.4646 41.2723 85.7793 41.5731C88.6308 42.0812 91.4309 42.8176 94.1383 43.8236C95.7133 44.6014 97.2266 45.5037 98.6781 46.4993C99.7281 47.4327 100.727 48.4283 101.653 49.4965C102.518 50.7721 103.29 52.0996 103.98 53.4789C104.649 55.3561 105.163 57.2747 105.544 59.2244C105.761 61.755 105.75 64.2855 105.534 66.816C105.05 69.5436 104.319 72.2089 103.362 74.8016C102.405 76.8032 101.293 78.7219 100.037 80.5471C99.0899 81.6361 98.0707 82.6732 96.9898 83.6377C96.1251 84.2185 95.2398 84.7474 94.3133 85.2244C93.5206 85.4837 92.7177 85.7119 91.9044 85.8882C91.4927 85.9089 91.0912 85.9297 90.6897 85.9297C86.747 85.94 82.6396 87.6409 79.8498 90.4514C77.1939 93.1271 75.1865 97.5244 75.3615 101.372C75.5365 105.365 76.8439 109.513 79.8498 112.293C82.8557 115.072 86.5308 116.804 90.6897 116.814C93.3045 116.825 95.9089 116.949 98.5134 117.229C102.168 117.851 105.771 118.785 109.24 120.081C111.886 121.326 114.418 122.788 116.806 124.489C118.69 126.096 120.43 127.859 122.026 129.757C123.518 131.894 124.826 134.155 125.937 136.509C126.967 139.288 127.739 142.151 128.264 145.065C128.542 148.166 128.552 151.277 128.264 154.378C127.759 157.24 126.998 160.051 125.989 162.768C124.959 164.925 123.765 166.989 122.406 168.949C121.109 170.463 119.709 171.884 118.206 173.181C116.621 174.28 114.953 175.265 113.224 176.116C111.021 176.924 108.756 177.526 106.45 177.951C102.59 178.273 98.6884 178.148 94.8177 178.148H80.8689H55.5141H51.8493C50.2949 178.148 49.039 176.883 49.039 175.317V173.492C49.039 172.984 48.3698 172.849 48.0404 173.284C45.9095 176.084 43.7168 178.895 41.6065 181.612C40.752 182.701 39.9079 183.8 39.0535 184.889C38.8373 185.169 38.6005 185.449 38.3123 185.771L38.1579 185.947C37.2623 186.974 36.1093 187.773 34.7814 188.084C34.2975 188.198 33.8034 188.26 33.3196 188.26C31.7651 188.26 30.2622 187.679 29.1195 186.611L28.996 186.507C28.6871 186.238 28.1621 185.802 27.6474 185.107C26.0827 183.012 24.4973 180.928 22.912 178.853C21.7076 177.267 20.4826 175.649 19.2575 174.031C18.9693 173.658 18.3722 173.855 18.3722 174.332V186.3V193.601C18.3722 201.95 25.393 209.043 33.7005 209.043H89.2794C98.8016 209.043 108.437 209.52 117.753 207.063C126.143 204.854 133.617 200.539 140.113 194.835C143.263 192.066 145.805 188.768 148.286 185.387C149.975 183.085 151.426 180.617 152.631 178.024C154.401 174.197 156.038 170.246 157.078 166.139C158.097 162.146 158.663 157.997 158.982 153.891C159.239 150.644 159.188 147.398 158.848 144.173ZM33.7107 34.6971C28.821 34.6971 24.8371 30.6836 24.8371 25.7574C24.8371 20.8311 28.821 16.8176 33.7107 16.8176C38.6005 16.8176 42.5844 20.8311 42.5844 25.7574C42.5844 30.6939 38.6005 34.6971 33.7107 34.6971Z" fill="#F7E3DB"/>
<path d="M32.6297 178.459C30.0253 175.068 20.6471 163.017 16.1897 156.556C13.472 152.615 11.2279 148.249 9.40577 143.8C6.01895 135.513 7.60427 127.642 12.8338 120.621C24.6825 104.732 49.2756 107.864 56.914 126.179C59.7037 132.869 59.3228 139.485 56.3169 146.061C52.858 153.611 48.0712 160.269 43.099 166.823C40.1549 170.702 37.1386 174.539 34.1533 178.387C33.9268 178.688 33.3194 179.362 32.6297 178.459ZM33.165 145.988C38.1166 146.019 42.049 142.171 42.0799 137.266C42.1108 132.371 38.1886 128.409 33.2988 128.388C28.4914 128.368 24.4972 132.267 24.4355 137.059C24.3634 141.943 28.2958 145.967 33.165 145.988Z" fill="#FA8433"/>
</g>
<defs>
<clipPath id="clip0_73_285">
<rect width="166" height="209" fill="white"/>
</clipPath>
</defs>
</svg>
