<svg width="221" height="91" viewBox="0 0 221 91" fill="none" xmlns="http://www.w3.org/2000/svg">
<g clip-path="url(#clip0_73_293)">
<path d="M94.5266 47.8674C95.8254 48.4313 96.8503 49.3256 97.6068 50.556C98.3604 51.7864 98.7372 53.1734 98.7372 54.7171C98.7372 56.9016 97.9179 58.7415 96.2793 60.2339C94.6407 61.7263 92.6139 62.4725 90.1989 62.4725H80.6757C79.6994 62.4725 78.9058 61.6836 78.9058 60.7067V36.3268C78.9058 35.2189 79.805 34.3218 80.9155 34.3218H90.0419C92.337 34.3218 94.2354 35.0082 95.7369 36.3838C97.2385 37.7566 97.9893 39.4712 97.9893 41.5275C97.9893 42.8091 97.6753 44.0338 97.0444 45.1987C96.4164 46.3636 95.5771 47.2522 94.5266 47.8674ZM94.3895 41.9291C94.3724 40.7699 93.9471 39.793 93.1106 38.9984C92.2571 38.1867 91.2094 37.7822 89.9619 37.7822H83.7616C83.0136 37.7822 82.4056 38.3889 82.4056 39.1351V44.8712C82.4056 45.6174 83.0136 46.224 83.7616 46.224H89.9819C91.2351 46.224 92.2828 45.811 93.1335 44.9851C93.9499 44.1848 94.4067 43.0683 94.3895 41.9291ZM90.1618 58.9779C91.5777 58.9779 92.751 58.5364 93.6844 57.6535C94.6151 56.7706 95.0804 55.6598 95.0804 54.3269C95.0804 53.0054 94.6122 51.9003 93.673 51.0088C92.7338 50.1202 91.5634 49.6731 90.1618 49.6731H83.97C83.1078 49.6731 82.4113 50.3709 82.4113 51.2281V57.4199C82.4113 58.2801 83.1107 58.975 83.97 58.975H90.1618V58.9779Z" fill="#F7E3DB"/>
<path d="M101.107 35.7371V34.3643C101.107 33.658 101.68 33.0884 102.386 33.0884H103.545C104.253 33.0884 104.826 33.6608 104.826 34.3643V35.7371C104.826 36.4434 104.253 37.0131 103.545 37.0131H102.386C101.68 37.0131 101.107 36.4406 101.107 35.7371ZM101.244 61.1964V42.04C101.244 41.3337 101.818 40.764 102.523 40.764H103.405C104.113 40.764 104.684 41.3365 104.684 42.04V61.1964C104.684 61.9027 104.11 62.4723 103.405 62.4723H102.523C101.818 62.4723 101.244 61.8998 101.244 61.1964Z" fill="#F7E3DB"/>
<path d="M118.132 62.9424C116.019 62.9424 114.098 62.4526 112.368 61.47C110.636 60.4874 109.28 59.1317 108.295 57.3972C107.313 55.6627 106.819 53.7373 106.819 51.6155C106.819 49.1405 107.481 46.9389 108.806 45.0107C109.571 43.8971 110.547 42.9373 111.672 42.1883C113.579 40.9209 115.734 40.2886 118.132 40.2886C120.715 40.2886 122.956 40.9949 124.852 42.4076C126.308 43.4927 127.401 44.8598 128.135 46.5088C128.463 47.2465 127.932 48.081 127.121 48.081H126.105C125.631 48.081 125.203 47.8161 124.969 47.406C124.347 46.3237 123.504 45.4493 122.443 44.7829C121.169 43.9854 119.733 43.5867 118.135 43.5867C115.905 43.5867 114.044 44.3557 112.557 45.8937C111.067 47.4316 110.324 49.3399 110.324 51.6155C110.324 53.8797 111.072 55.7823 112.568 57.326C114.064 58.8696 115.92 59.6415 118.135 59.6415C119.733 59.6415 121.158 59.237 122.403 58.4253C123.413 57.7674 124.232 56.8987 124.863 55.8193C125.152 55.3266 125.685 55.0275 126.256 55.0275H127.629C128.198 55.0275 128.577 55.5972 128.375 56.1241C127.644 58.0152 126.47 59.5646 124.852 60.7779C122.931 62.2247 120.69 62.9424 118.132 62.9424Z" fill="#F7E3DB"/>
<path d="M141.378 40.2914C143.961 40.2914 146.008 41.1202 147.515 42.775C149.022 44.4297 149.776 46.6655 149.776 49.4794V61.3389C149.776 61.9655 149.268 62.4725 148.64 62.4725H147.489C146.861 62.4725 146.353 61.9655 146.353 61.3389V50.2826C146.353 48.0838 145.848 46.3892 144.837 45.1987C143.827 44.0082 142.38 43.4129 140.49 43.4129C138.629 43.4129 137.067 44.1079 135.808 45.492C134.549 46.8791 133.918 48.5936 133.918 50.6357V61.3389C133.918 61.9655 133.41 62.4725 132.782 62.4725H131.612C130.984 62.4725 130.476 61.9655 130.476 61.3389V34.1423C130.476 33.5158 130.984 33.0088 131.612 33.0088H132.782C133.41 33.0088 133.918 33.5158 133.918 34.1423V41.0917C133.918 42.0117 134.957 42.5471 135.711 42.0145C136.151 41.7041 136.622 41.4278 137.127 41.1914C138.412 40.5933 139.83 40.2914 141.378 40.2914Z" fill="#F7E3DB"/>
<path d="M172.876 40.7614H173.444C174.078 40.7614 174.595 41.2741 174.595 41.9092V61.3248C174.595 61.9599 174.081 62.4726 173.444 62.4726H172.788C172.202 62.4726 171.711 62.034 171.646 61.4558C171.546 60.5757 170.518 60.1257 169.816 60.6669C169.159 61.171 168.44 61.601 167.658 61.9542C166.196 62.615 164.592 62.9454 162.848 62.9454C160.735 62.9454 158.82 62.4555 157.104 61.4729C155.385 60.4903 154.038 59.1346 153.062 57.4001C152.085 55.6656 151.597 53.7403 151.597 51.6184C151.597 48.3744 152.671 45.6744 154.815 43.5213C156.958 41.3681 159.639 40.2915 162.85 40.2915C164.595 40.2915 166.208 40.6247 167.689 41.2912C168.486 41.6501 169.214 42.0858 169.879 42.5985C170.587 43.1453 171.617 42.7238 171.728 41.838L171.737 41.7697C171.806 41.1944 172.297 40.7614 172.876 40.7614ZM157.381 57.3488C158.902 58.8811 160.809 59.6444 163.104 59.6444C165.4 59.6444 167.304 58.8811 168.82 57.3574C170.335 55.8336 171.092 53.9197 171.092 51.6156C171.092 49.3115 170.335 47.3975 168.82 45.8738C167.304 44.3501 165.4 43.5868 163.104 43.5868C160.809 43.5868 158.9 44.3529 157.381 45.8823C155.859 47.4146 155.097 49.3229 155.097 51.6156C155.097 53.9083 155.856 55.8194 157.381 57.3488Z" fill="#F7E3DB"/>
<path d="M198.009 40.7614H198.577C199.211 40.7614 199.727 41.2741 199.727 41.9092V61.3248C199.727 61.9599 199.213 62.4726 198.577 62.4726H197.92C197.335 62.4726 196.844 62.034 196.778 61.4558C196.678 60.5757 195.651 60.1257 194.949 60.6669C194.292 61.171 193.573 61.601 192.79 61.9542C191.329 62.615 189.724 62.9454 187.98 62.9454C185.868 62.9454 183.952 62.4555 182.237 61.4729C180.518 60.4903 179.171 59.1346 178.194 57.4001C177.218 55.6656 176.73 53.7403 176.73 51.6184C176.73 48.3744 177.803 45.6744 179.947 43.5213C182.091 41.3681 184.772 40.2915 187.983 40.2915C189.727 40.2915 191.34 40.6247 192.822 41.2912C193.618 41.6501 194.346 42.0858 195.011 42.5985C195.719 43.1453 196.75 42.7238 196.861 41.838L196.87 41.7697C196.938 41.1944 197.429 40.7614 198.009 40.7614ZM182.511 57.3488C184.032 58.8811 185.939 59.6444 188.234 59.6444C190.529 59.6444 192.434 58.8811 193.949 57.3574C195.465 55.8336 196.222 53.9197 196.222 51.6156C196.222 49.3115 195.465 47.3975 193.949 45.8738C192.434 44.3501 190.529 43.5868 188.234 43.5868C185.939 43.5868 184.029 44.3529 182.511 45.8823C180.989 47.4146 180.227 49.3229 180.227 51.6156C180.23 53.9083 180.989 55.8194 182.511 57.3488Z" fill="#F7E3DB"/>
<path d="M192.993 32.587L184.555 33.7518C184.106 33.8145 183.795 34.2246 183.858 34.6718L184.004 35.717C184.066 36.1642 184.478 36.4746 184.926 36.412L193.364 35.2471C193.812 35.1844 194.123 34.7743 194.061 34.3272L193.915 33.2819C193.852 32.8376 193.441 32.5272 192.993 32.587Z" fill="#F7E3DB"/>
<path d="M63.8017 58.9977C63.679 57.8527 63.5191 56.6992 63.1965 55.5885C62.8625 54.4407 62.3915 53.3157 61.8463 52.2533C61.2982 51.1853 60.5816 50.2454 59.8337 49.3084C59.2856 48.6249 58.6662 47.9983 57.9867 47.4457C57.0704 46.6995 56.1283 45.9904 55.0892 45.4264C55.349 45.0191 55.5831 44.5976 55.7886 44.1619C56.2283 43.2334 56.6365 42.2707 56.922 41.2824C57.1989 40.3255 57.333 39.3457 57.4558 38.3603C57.5471 37.6255 57.5928 36.885 57.5585 36.1473C57.51 35.0906 57.3701 34.0226 57.1303 32.9944C56.902 32.0118 56.5109 31.0805 56.0941 30.1634C55.7972 29.5055 55.4261 28.8846 54.9893 28.3093C54.3385 27.4492 53.6933 26.6232 52.8512 25.9425C51.9748 25.2333 51.087 24.5612 50.0679 24.0742C48.9774 23.5501 47.8384 23.0916 46.6594 22.8096C44.6097 22.3197 42.5372 22.2713 40.4447 22.2172C38.455 22.1659 36.4625 22.089 34.4728 22.0178C33.1796 20.4713 31.2327 19.4887 29.0603 19.5001C25.4006 19.52 22.309 22.4536 22.1148 26.0992C21.9007 30.1178 25.1151 33.4587 29.1002 33.4587C31.4582 33.4587 33.5478 32.2853 34.8153 30.4966C36.8022 30.5792 38.7919 30.6647 40.7787 30.7103C41.7008 30.7302 42.62 30.7387 43.5392 30.8213C44.33 30.9609 45.1064 31.1631 45.8572 31.4394C46.294 31.653 46.7136 31.9008 47.1161 32.1742C47.4073 32.4305 47.6842 32.7039 47.9411 32.9973C48.1809 33.3476 48.395 33.7122 48.5863 34.091C48.7718 34.6065 48.9146 35.1334 49.0202 35.6688C49.0801 36.3637 49.0773 37.0587 49.0173 37.7536C48.8832 38.5027 48.6805 39.2346 48.415 39.9467C48.1495 40.4964 47.8412 41.0233 47.4929 41.5245C47.2303 41.8236 46.9477 42.1084 46.648 42.3733C46.4082 42.5327 46.1627 42.678 45.9057 42.809C45.6859 42.8802 45.4633 42.9429 45.2377 42.9913C45.1236 42.997 45.0122 43.0027 44.9009 43.0027C43.8076 43.0055 42.6685 43.4726 41.8949 44.2445C41.1584 44.9793 40.6017 46.1869 40.6503 47.2435C40.6988 48.34 41.0614 49.4793 41.8949 50.2426C42.7285 51.0059 43.7476 51.4815 44.9009 51.4844C45.626 51.4872 46.3482 51.5214 47.0705 51.5983C48.0839 51.7692 49.083 52.0255 50.045 52.3815C50.7787 52.7233 51.4809 53.1249 52.1432 53.5919C52.6656 54.0334 53.1481 54.5176 53.5905 55.0388C54.0045 55.6255 54.367 56.2464 54.6753 56.8929C54.9608 57.6562 55.1749 58.4423 55.3205 59.2426C55.3976 60.0942 55.4004 60.9486 55.3205 61.8002C55.1806 62.5863 54.9693 63.3581 54.6896 64.1043C54.4041 64.6967 54.073 65.2635 53.6962 65.8018C53.3365 66.2176 52.9482 66.6078 52.5315 66.9638C52.0918 67.2657 51.6294 67.5363 51.1498 67.7698C50.5389 67.992 49.9109 68.1572 49.2714 68.274C48.2009 68.3622 47.119 68.3281 46.0456 68.3281H42.1775H35.1465H34.1302C33.6991 68.3281 33.3509 67.9806 33.3509 67.5505V67.0493C33.3509 66.9097 33.1653 66.8727 33.074 66.9923C32.483 67.7613 31.875 68.5331 31.2898 69.2793C31.0528 69.5784 30.8188 69.8803 30.5818 70.1793C30.5219 70.2562 30.4562 70.3331 30.3763 70.4214L30.3335 70.4698C30.0851 70.7518 29.7654 70.9711 29.3971 71.0566C29.263 71.0879 29.1259 71.105 28.9918 71.105C28.5607 71.105 28.1439 70.9455 27.8271 70.6521L27.7928 70.6236C27.7072 70.5496 27.5616 70.43 27.4188 70.2391C26.9849 69.6638 26.5453 69.0914 26.1057 68.5217C25.7717 68.086 25.432 67.6417 25.0923 67.1974C25.0123 67.0948 24.8468 67.1489 24.8468 67.28V70.5667V72.5717C24.8468 74.8645 26.7937 76.8126 29.0974 76.8126H44.5098C47.1504 76.8126 49.8224 76.9436 52.4058 76.2686C54.7324 75.6619 56.8049 74.4771 58.6062 72.9107C59.4797 72.1502 60.1848 71.2445 60.8728 70.316C61.341 69.6838 61.7435 69.0059 62.0775 68.2939C62.5685 67.2429 63.0224 66.1578 63.3107 65.03C63.5933 63.9334 63.7503 62.7942 63.8388 61.6663C63.9102 60.7749 63.8959 59.8834 63.8017 58.9977ZM29.1002 28.933C27.7443 28.933 26.6395 27.8308 26.6395 26.478C26.6395 25.1251 27.7443 24.0229 29.1002 24.0229C30.4562 24.0229 31.561 25.1251 31.561 26.478C31.561 27.8337 30.4562 28.933 29.1002 28.933Z" fill="#F7E3DB"/>
<path d="M28.8005 68.4135C28.0782 67.4821 25.4776 64.1726 24.2415 62.3983C23.4879 61.316 22.8656 60.1169 22.3603 58.8951C21.4211 56.6194 21.8607 54.4577 23.3109 52.5296C26.5967 48.1663 33.4165 49.0264 35.5347 54.0561C36.3083 55.8932 36.2027 57.7103 35.3691 59.516C34.4099 61.5894 33.0825 63.4179 31.7037 65.2179C30.8872 66.2831 30.0508 67.3369 29.223 68.3935C29.1602 68.4761 28.9917 68.6612 28.8005 68.4135ZM28.9489 59.496C30.322 59.5046 31.4125 58.4479 31.4211 57.1008C31.4296 55.7565 30.342 54.6685 28.986 54.6628C27.6529 54.6571 26.5453 55.728 26.5281 57.0438C26.5082 58.3853 27.5986 59.4903 28.9489 59.496Z" fill="#FA8433"/>
</g>
<defs>
<clipPath id="clip0_73_293">
<rect width="177.864" height="57.3182" fill="white" transform="translate(21.8636 19.5)"/>
</clipPath>
</defs>
</svg>
