<svg width="24" height="24" viewBox="0 0 24 24" fill="none" xmlns="http://www.w3.org/2000/svg">
<path d="M7.6743 11.6848C7.6743 9.53375 9.39158 7.78954 11.5105 7.78954C13.6295 7.78954 15.3477 9.53375 15.3477 11.6848C15.3477 13.8358 13.6295 15.58 11.5105 15.58C9.39158 15.58 7.6743 13.8358 7.6743 11.6848ZM5.60001 11.6848C5.60001 14.9986 8.24614 17.6848 11.5105 17.6848C14.7749 17.6848 17.421 14.9986 17.421 11.6848C17.421 8.37098 14.7749 5.68479 11.5105 5.68479C8.24614 5.68479 5.60001 8.37098 5.60001 11.6848ZM16.2738 5.44688C16.2737 5.72421 16.3546 5.99534 16.5062 6.22599C16.6579 6.45663 16.8736 6.63644 17.1259 6.74267C17.3783 6.8489 17.656 6.87678 17.924 6.82279C18.1919 6.76879 18.4381 6.63535 18.6313 6.43933C18.8246 6.24331 18.9562 5.99352 19.0096 5.72155C19.063 5.44957 19.0358 5.16763 18.9314 4.91137C18.8269 4.65512 18.65 4.43606 18.4229 4.28189C18.1958 4.12773 17.9288 4.04538 17.6556 4.04527H17.655C17.2888 4.04544 16.9377 4.19315 16.6787 4.45595C16.4197 4.71875 16.2741 5.07516 16.2738 5.44688ZM6.86027 21.1959C5.73804 21.144 5.12808 20.9543 4.72272 20.794C4.18532 20.5816 3.80188 20.3286 3.39874 19.9199C2.99559 19.5112 2.74604 19.1224 2.53775 18.5768C2.37973 18.1655 2.1928 17.5461 2.14179 16.4069C2.08598 15.1753 2.07484 14.8053 2.07484 11.6849C2.07484 8.56448 2.0869 8.19552 2.14179 6.96282C2.19289 5.8236 2.38121 5.20543 2.53775 4.79291C2.74696 4.24737 2.99614 3.85813 3.39874 3.44888C3.80133 3.03963 4.1844 2.78631 4.72272 2.57486C5.12789 2.41445 5.73804 2.22469 6.86027 2.1729C8.07357 2.11625 8.43804 2.10494 11.5105 2.10494C14.583 2.10494 14.9478 2.11719 16.1622 2.1729C17.2844 2.22478 17.8933 2.41595 18.2997 2.57486C18.8371 2.78631 19.2206 3.04019 19.6237 3.44888C20.0268 3.85757 20.2755 4.24737 20.4847 4.79291C20.6427 5.20421 20.8296 5.8236 20.8806 6.96282C20.9364 8.19552 20.9476 8.56448 20.9476 11.6849C20.9476 14.8053 20.9364 15.1742 20.8806 16.4069C20.8295 17.5461 20.6417 18.1653 20.4847 18.5768C20.2755 19.1224 20.0263 19.5116 19.6237 19.9199C19.2211 20.3282 18.8371 20.5816 18.2997 20.794C17.8945 20.9544 17.2844 21.1441 16.1622 21.1959C14.9489 21.2526 14.5844 21.2639 11.5105 21.2639C8.43666 21.2639 8.07321 21.2526 6.86027 21.1959ZM6.76497 0.070763C5.5396 0.127411 4.70228 0.32465 3.97104 0.613498C3.21374 0.911787 2.57265 1.31197 1.93202 1.96127C1.29139 2.61057 0.898189 3.26239 0.604349 4.03116C0.319808 4.77393 0.125511 5.62347 0.0697077 6.86738C0.0129839 8.11326 0 8.51157 0 11.6848C0 14.858 0.0129839 15.2563 0.0697077 16.5022C0.125511 17.7462 0.319808 18.5956 0.604349 19.3384C0.898189 20.1067 1.29148 20.7593 1.93202 21.4083C2.57256 22.0573 3.21374 22.4569 3.97104 22.7561C4.70366 23.0449 5.5396 23.2422 6.76497 23.2988C7.99291 23.3554 8.38463 23.3696 11.5105 23.3696C14.6364 23.3696 15.0288 23.3564 16.2561 23.2988C17.4815 23.2422 18.3183 23.0449 19.05 22.7561C19.8069 22.4569 20.4484 22.0576 21.089 21.4083C21.7297 20.759 22.122 20.1067 22.4167 19.3384C22.7012 18.5956 22.8965 17.7461 22.9513 16.5022C23.0071 15.2554 23.0201 14.858 23.0201 11.6848C23.0201 8.51157 23.0071 8.11326 22.9513 6.86738C22.8955 5.62337 22.7012 4.77347 22.4167 4.03116C22.122 3.26286 21.7286 2.6116 21.089 1.96127C20.4494 1.31094 19.8069 0.911787 19.0509 0.613498C18.3183 0.32465 17.4814 0.126476 16.257 0.070763C15.0297 0.0141152 14.6373 0 11.5114 0C8.38556 0 7.99291 0.0131804 6.76497 0.070763Z" fill="url(#paint0_radial_54_296)"/>
<path d="M7.6743 11.6848C7.6743 9.53375 9.39158 7.78954 11.5105 7.78954C13.6295 7.78954 15.3477 9.53375 15.3477 11.6848C15.3477 13.8358 13.6295 15.58 11.5105 15.58C9.39158 15.58 7.6743 13.8358 7.6743 11.6848ZM5.60001 11.6848C5.60001 14.9986 8.24614 17.6848 11.5105 17.6848C14.7749 17.6848 17.421 14.9986 17.421 11.6848C17.421 8.37098 14.7749 5.68479 11.5105 5.68479C8.24614 5.68479 5.60001 8.37098 5.60001 11.6848ZM16.2738 5.44688C16.2737 5.72421 16.3546 5.99534 16.5062 6.22599C16.6579 6.45663 16.8736 6.63644 17.1259 6.74267C17.3783 6.8489 17.656 6.87678 17.924 6.82279C18.1919 6.76879 18.4381 6.63535 18.6313 6.43933C18.8246 6.24331 18.9562 5.99352 19.0096 5.72155C19.063 5.44957 19.0358 5.16763 18.9314 4.91137C18.8269 4.65512 18.65 4.43606 18.4229 4.28189C18.1958 4.12773 17.9288 4.04538 17.6556 4.04527H17.655C17.2888 4.04544 16.9377 4.19315 16.6787 4.45595C16.4197 4.71875 16.2741 5.07516 16.2738 5.44688ZM6.86027 21.1959C5.73804 21.144 5.12808 20.9543 4.72272 20.794C4.18532 20.5816 3.80188 20.3286 3.39874 19.9199C2.99559 19.5112 2.74604 19.1224 2.53775 18.5768C2.37973 18.1655 2.1928 17.5461 2.14179 16.4069C2.08598 15.1753 2.07484 14.8053 2.07484 11.6849C2.07484 8.56448 2.0869 8.19552 2.14179 6.96282C2.19289 5.8236 2.38121 5.20543 2.53775 4.79291C2.74696 4.24737 2.99614 3.85813 3.39874 3.44888C3.80133 3.03963 4.1844 2.78631 4.72272 2.57486C5.12789 2.41445 5.73804 2.22469 6.86027 2.1729C8.07357 2.11625 8.43804 2.10494 11.5105 2.10494C14.583 2.10494 14.9478 2.11719 16.1622 2.1729C17.2844 2.22478 17.8933 2.41595 18.2997 2.57486C18.8371 2.78631 19.2206 3.04019 19.6237 3.44888C20.0268 3.85757 20.2755 4.24737 20.4847 4.79291C20.6427 5.20421 20.8296 5.8236 20.8806 6.96282C20.9364 8.19552 20.9476 8.56448 20.9476 11.6849C20.9476 14.8053 20.9364 15.1742 20.8806 16.4069C20.8295 17.5461 20.6417 18.1653 20.4847 18.5768C20.2755 19.1224 20.0263 19.5116 19.6237 19.9199C19.2211 20.3282 18.8371 20.5816 18.2997 20.794C17.8945 20.9544 17.2844 21.1441 16.1622 21.1959C14.9489 21.2526 14.5844 21.2639 11.5105 21.2639C8.43666 21.2639 8.07321 21.2526 6.86027 21.1959ZM6.76497 0.070763C5.5396 0.127411 4.70228 0.32465 3.97104 0.613498C3.21374 0.911787 2.57265 1.31197 1.93202 1.96127C1.29139 2.61057 0.898189 3.26239 0.604349 4.03116C0.319808 4.77393 0.125511 5.62347 0.0697077 6.86738C0.0129839 8.11326 0 8.51157 0 11.6848C0 14.858 0.0129839 15.2563 0.0697077 16.5022C0.125511 17.7462 0.319808 18.5956 0.604349 19.3384C0.898189 20.1067 1.29148 20.7593 1.93202 21.4083C2.57256 22.0573 3.21374 22.4569 3.97104 22.7561C4.70366 23.0449 5.5396 23.2422 6.76497 23.2988C7.99291 23.3554 8.38463 23.3696 11.5105 23.3696C14.6364 23.3696 15.0288 23.3564 16.2561 23.2988C17.4815 23.2422 18.3183 23.0449 19.05 22.7561C19.8069 22.4569 20.4484 22.0576 21.089 21.4083C21.7297 20.759 22.122 20.1067 22.4167 19.3384C22.7012 18.5956 22.8965 17.7461 22.9513 16.5022C23.0071 15.2554 23.0201 14.858 23.0201 11.6848C23.0201 8.51157 23.0071 8.11326 22.9513 6.86738C22.8955 5.62337 22.7012 4.77347 22.4167 4.03116C22.122 3.26286 21.7286 2.6116 21.089 1.96127C20.4494 1.31094 19.8069 0.911787 19.0509 0.613498C18.3183 0.32465 17.4814 0.126476 16.257 0.070763C15.0297 0.0141152 14.6373 0 11.5114 0C8.38556 0 7.99291 0.0131804 6.76497 0.070763Z" fill="#F7E3DB"/>
<defs>
<radialGradient id="paint0_radial_54_296" cx="0" cy="0" r="1" gradientUnits="userSpaceOnUse" gradientTransform="translate(3.05848 23.48) scale(30.052 30.507)">
<stop offset="0.09" stop-color="#FA8F21"/>
<stop offset="0.78" stop-color="#D82D7E"/>
</radialGradient>
</defs>
</svg>
