<svg width="18" height="18" viewBox="0 0 18 18" fill="none" xmlns="http://www.w3.org/2000/svg">
<path d="M13.9594 12.6094C15.0482 13.6419 16.1155 14.6586 17.1886 15.6688C17.4959 15.9582 17.6881 16.282 17.5857 16.7032C17.3955 17.488 16.4267 17.7292 15.7847 17.1345C14.7838 16.2069 13.8033 15.2597 12.8189 14.3172C12.7165 14.2189 12.6404 14.0964 12.5301 13.9573C10.2921 15.4592 7.91553 15.8812 5.36237 15.1076C3.57702 14.5667 2.19362 13.5018 1.20631 11.9878C-0.773193 8.95249 -0.158563 5.00619 2.6541 2.62857C5.44432 0.269511 9.63064 0.164684 12.5652 2.34563C15.5067 4.53122 16.7203 8.94692 13.9594 12.6094ZM7.78675 13.4953C10.9116 13.4953 13.4218 11.1112 13.4257 8.13985C13.4287 5.15647 10.8833 2.73711 7.75748 2.75288C4.65116 2.76865 2.11654 5.19729 2.1302 8.14449C2.14386 11.1084 4.66579 13.4953 7.78675 13.4953Z" fill="black"/>
</svg>
