<svg width="332" height="222" viewBox="0 0 332 222" fill="none" xmlns="http://www.w3.org/2000/svg">
<path d="M110 1H0V111.006H110V1Z" fill="#1E7E8B"/>
<path d="M51.3736 28.8411C48.3017 32.1625 45.4018 35.4839 42.2966 38.6001C37.4836 43.4353 37.1565 50.4219 41.6922 54.9964C46.2113 59.5544 53.2644 59.3714 58.0774 54.5473C59.07 53.5548 59.9793 52.4791 60.9996 51.3645C61.5707 51.8358 61.9644 52.1075 62.2916 52.4347C69.0508 59.1884 75.8101 65.9366 82.5527 72.7069C84.2217 74.3815 84.3936 76.2501 83.1072 77.786C81.7154 79.4495 79.4808 79.5216 77.7674 77.8748C75.8655 76.0505 74.0468 74.1486 72.1726 72.3021C70.5258 70.6719 68.6627 70.5111 67.3208 71.8419C65.9512 73.2004 66.0898 75.008 67.7256 76.6771C69.4445 78.4237 71.2078 80.126 72.9101 81.8837C74.7011 83.7302 74.7732 86.1311 73.1374 87.778C71.5017 89.4248 69.0896 89.3638 67.2432 87.5728C65.5742 85.9537 63.9495 84.2847 62.2971 82.6434C60.4118 80.7692 58.6208 80.553 57.1958 82.0113C55.8262 83.4141 56.0979 85.2606 57.9554 87.1292C59.5524 88.7373 61.177 90.3176 62.7518 91.9422C64.6149 93.8607 64.6759 96.3061 62.9459 97.964C61.2824 99.5498 58.9203 99.4278 57.0572 97.6036C55.2606 95.8458 53.4696 94.0881 51.7562 92.2583C51.3958 91.8701 51.113 91.0772 51.2572 90.6114C53.209 84.2791 51.5233 80.065 45.4295 76.5495C47.836 72.3354 48.0411 68.0492 44.9415 64.1178C41.8253 60.1754 37.65 59.2494 32.9202 60.7022C28.2957 52.5511 21.9689 51.0207 15.06 56.4936C11.9049 53.6546 9.84221 50.1336 8.72769 46.0636C6.0384 36.2158 10.186 25.8912 18.8749 20.6568C27.5693 15.4168 38.5981 16.5646 46.0671 23.5457C48.0411 25.3644 49.8765 27.3329 51.3736 28.8411Z" fill="#F7E4DB"/>
<path d="M84.4712 65.698C83.8779 65.1324 83.3844 64.6833 82.9131 64.212C77.3626 58.6671 71.8288 53.1166 66.2728 47.5828C63.1122 44.4333 59.4137 44.4444 56.2421 47.5772C55.1941 48.6086 54.196 49.6954 53.1092 50.6824C51.0465 52.5566 48.0023 52.4956 46.1448 50.5992C44.2207 48.6363 44.1153 45.6531 46.1392 43.6625C52.9539 36.9587 59.6466 30.1218 66.7441 23.7341C75.4053 15.9379 88.7741 16.9083 96.4981 25.4807C104.3 34.1308 103.851 47.2445 95.4501 55.3179C91.8792 58.7558 88.2418 62.1382 84.4712 65.698Z" fill="#46CADB"/>
<path d="M28.0185 84.0351C25.6785 83.9962 24.381 83.159 23.6491 81.5953C22.9227 80.0372 23.0059 78.4014 24.2202 77.1427C27.4473 73.7991 30.7133 70.4999 34.0735 67.295C35.6982 65.7479 38.1213 65.9808 39.7071 67.5445C41.293 69.1137 41.5203 71.5202 39.9567 73.167C36.7572 76.5328 33.4469 79.7932 30.0978 83.0092C29.4546 83.6414 28.4121 83.8521 28.0185 84.0351Z" fill="#46CADB"/>
<path d="M22.0965 59.6098C24.4475 59.5821 25.7395 60.4083 26.5102 61.9498C27.2865 63.5079 27.1756 65.1215 25.989 66.3968C23.954 68.587 21.8525 70.7329 19.6401 72.7346C17.9877 74.2317 15.5701 73.9379 14.0231 72.3188C12.5315 70.7551 12.3374 68.4429 13.8124 66.8348C15.8307 64.6335 17.9711 62.5264 20.1613 60.497C20.7768 59.9314 21.7638 59.754 22.0965 59.6098Z" fill="#46CADB"/>
<path d="M45.8287 85.8206C45.7955 89.0033 40.5278 94.271 37.9827 94.2544C36.2194 94.2433 34.9552 93.3505 34.1789 91.8312C33.4137 90.3397 33.5301 88.7926 34.6335 87.545C36.042 85.9481 37.5613 84.4232 39.1637 83.0204C40.4169 81.928 41.9695 81.8449 43.4611 82.6156C44.9804 83.4085 45.8176 84.6894 45.8287 85.8206Z" fill="#46CADB"/>
<path d="M110 111.081H0V221.081H110V111.081Z" fill="#FA8433"/>
<path d="M61.3565 131.801C64.3586 130.592 67.2663 128.901 70.3905 128.264C77.4767 126.817 83.5197 129.212 88.02 134.817C92.4648 140.345 92.77 146.578 90.1065 153.009C88.0256 158.033 84.4741 161.953 80.3789 165.402C75.2848 169.693 69.5637 173.009 63.4874 175.665C62.3776 176.147 60.6629 176.169 59.5808 175.654C51.5235 171.811 43.9545 167.193 37.7784 160.628C32.4013 154.911 29.9652 148.197 32.1294 140.451C35.37 128.857 50.164 124.072 60.0858 131.241C60.563 131.585 61.0347 131.945 61.5064 132.295C61.4509 132.128 61.4009 131.967 61.3565 131.801Z" fill="#FDCC00"/>
<path d="M11.5366 192.287C17.1578 188.528 22.5849 184.747 28.1728 181.22C31.3747 179.202 35.0093 179.019 38.7217 179.751C46.0854 181.198 53.4712 182.562 60.8404 183.97C63.6705 184.508 65.4018 186.538 65.1632 188.988C64.9079 191.6 62.9047 193.258 59.9193 193.269C54.6088 193.291 49.2983 193.297 43.9933 193.285C42.9113 193.285 41.7848 193.341 41.7626 194.705C41.7404 196.08 42.8558 196.163 43.949 196.158C49.3205 196.135 54.6865 196.152 60.058 196.124C64.6527 196.097 67.6437 193.285 68.1264 188.733C68.1819 188.19 68.7091 187.458 69.203 187.242C74.8242 184.791 80.4787 182.407 86.1333 180.045C88.3307 179.124 90.3784 179.834 91.3273 181.742C92.2429 183.588 91.6436 185.628 89.6847 186.809C80.0404 192.626 70.396 198.442 60.7073 204.181C57.8328 205.883 54.6254 206.62 51.2738 206.509C40.4863 206.143 29.6933 205.75 18.9058 205.29C18.2455 205.262 17.3021 204.707 17.0247 204.136C15.1491 200.288 13.4122 196.368 11.5366 192.287Z" fill="#F7E4DB"/>
<path d="M220 1H110V111H220V1Z" fill="#1D1D1C"/>
<path d="M169.896 61.908C169.752 61.847 169.613 61.7805 169.469 61.7195C167.102 61.2316 165.266 59.9674 163.847 58.2708C161.085 55.9642 158.973 52.9756 158.169 49.3051C156.838 43.2171 158.418 35.6209 161.773 30.1816H136.605V84.1697H193.152V62.895C186.298 66.122 175.741 64.3754 169.896 61.908Z" fill="#1E7E8B"/>
<path d="M211.311 39.0251C211.139 39.5408 210.978 40.6663 210.424 41.5535C208.284 44.9856 207.552 48.5175 208.3 52.5984C209.043 56.6515 207.718 58.7862 203.792 60.1391C199.983 61.4476 197.438 63.8706 195.586 67.2972C194.571 69.1824 192.919 70.319 190.734 70.441C189.947 70.4854 189.126 70.3578 188.355 70.1693C187.069 69.8533 185.793 69.4541 184.535 69.0382C183.027 68.5392 181.546 68.5281 180.032 69.0271C178.735 69.4596 177.421 69.8367 176.101 70.2081C173.334 70.9844 170.806 70.1139 169.22 67.7408C164.956 61.3755 166.691 62.8393 159.649 59.7232C157.082 58.5866 155.807 56.2689 156.073 53.4689C156.173 52.3877 156.211 51.2843 156.439 50.2253C156.91 48.013 156.5 46.0058 155.363 44.0818C154.808 43.1503 154.348 42.1578 153.888 41.1709C152.69 38.6148 153.139 36.0532 155.141 34.0738C156.145 33.0813 157.171 32.111 158.23 31.1795C159.427 30.1204 160.126 28.8119 160.459 27.265C160.764 25.8511 161.074 24.4316 161.462 23.0344C162.189 20.4395 164.34 18.7706 167.024 18.5987C174.515 18.1108 172.447 18.9147 178.446 14.5012C180.919 12.6826 183.581 12.6659 186.049 14.479C192.22 19.0034 189.969 18.0664 197.587 18.6098C200.277 18.7983 202.367 20.4839 203.088 23.1176C203.515 24.6701 203.737 26.2891 204.275 27.7972C204.668 28.9006 205.295 29.9763 206.055 30.869C207.036 32.0278 208.261 32.987 209.365 34.0516C210.607 35.2381 211.261 36.713 211.311 39.0251ZM182.267 61.6084C193.14 61.6029 202.04 52.7093 202.051 41.8363C202.062 30.9632 193.185 22.053 182.311 22.0197C171.393 21.9865 162.444 30.93 162.466 41.8529C162.488 52.7204 171.399 61.614 182.267 61.6084Z" fill="#FDCC00"/>
<path d="M182.311 23.949C192.12 23.9768 200.138 32.0276 200.127 41.8305C200.116 51.6888 191.998 59.7397 182.15 59.6731C172.341 59.6066 164.351 51.5336 164.396 41.7251C164.44 31.9278 172.508 23.9213 182.311 23.949ZM179.727 43.2943C178.591 42.1354 177.398 40.8934 176.173 39.6792C174.848 38.3651 173.245 38.2819 172.125 39.4408C171.033 40.5719 171.127 42.1133 172.402 43.4052C174.16 45.185 175.929 46.9482 177.703 48.7114C179.223 50.214 180.592 50.2195 182.101 48.7114C183.869 46.9482 185.622 45.1684 187.379 43.3885C189.054 41.6974 190.751 40.034 192.381 38.3041C193.44 37.1785 193.379 35.6371 192.353 34.6114C191.327 33.5856 189.797 33.569 188.655 34.5892C188.322 34.8831 188.028 35.2157 187.712 35.5262C185.095 38.0712 182.472 40.6273 179.727 43.2943Z" fill="#1E7E8B"/>
<path d="M331.919 0H221V111.003H331.919V0Z" fill="#FDCC00"/>
<path d="M276.46 6.66492C249.487 6.66492 227.626 28.5323 227.626 55.5044C227.626 82.4766 249.487 104.344 276.46 104.344C303.432 104.344 325.293 82.4766 325.293 55.5044C325.293 28.5323 303.432 6.66492 276.46 6.66492ZM276.46 97.791C253.105 97.791 234.173 78.859 234.173 55.4988C234.173 32.1386 253.105 13.2067 276.46 13.2067C299.814 13.2067 318.746 32.1386 318.746 55.4988C318.746 78.859 299.814 97.791 276.46 97.791Z" fill="#F7E4DB"/>
<path d="M295.733 59.4406H272.523V24.9091C272.523 22.7341 274.285 20.9729 276.46 20.9729C278.635 20.9729 280.396 22.7341 280.396 24.9091V51.5626H295.727C297.902 51.5626 299.663 53.3238 299.663 55.4988C299.663 57.6738 297.908 59.4406 295.733 59.4406Z" fill="#F7E4DB"/>
<path d="M110 111H132V199C132 211.15 122.15 221 110 221V111Z" fill="#2DC7CA"/>
</svg>
