<svg width="225" height="204" viewBox="0 0 225 204" fill="none" xmlns="http://www.w3.org/2000/svg">
<path d="M101.742 0H0V101.747H101.742V0Z" fill="#1E7E8B"/>
<path d="M47.5169 25.7508C44.6756 28.8229 41.9933 31.8949 39.1213 34.7772C34.6697 39.2494 34.3671 45.7114 38.5623 49.9426C42.7421 54.1583 49.2657 53.989 53.7174 49.5271C54.6354 48.6091 55.4765 47.6142 56.4202 46.5833C56.9484 47.0192 57.3125 47.2705 57.6151 47.5731C63.8669 53.8198 70.1187 60.0613 76.3551 66.3234C77.8988 67.8722 78.0578 69.6006 76.868 71.0212C75.5807 72.5598 73.5139 72.6265 71.9291 71.1033C70.17 69.416 68.4878 67.6568 66.7543 65.949C65.2311 64.4412 63.5079 64.2925 62.2668 65.5233C61 66.7798 61.1282 68.4518 62.6412 69.9955C64.2311 71.611 65.862 73.1855 67.4365 74.8113C69.093 76.5191 69.1597 78.7398 67.6467 80.263C66.1338 81.7862 63.9028 81.7298 62.195 80.0732C60.6513 78.5757 59.1486 77.032 57.6203 75.5139C55.8765 73.7804 54.22 73.5804 52.9019 74.9292C51.6352 76.2268 51.8865 77.9346 53.6045 79.6629C55.0816 81.1502 56.5843 82.6119 58.0408 84.1146C59.764 85.8891 59.8204 88.1508 58.2203 89.6843C56.6817 91.1511 54.4969 91.0382 52.7737 89.3509C51.112 87.7251 49.4555 86.0994 47.8707 84.4069C47.5374 84.0479 47.2758 83.3145 47.4092 82.8837C49.2144 77.0268 47.6553 73.1291 42.019 69.8775C44.2448 65.9798 44.4346 62.0153 41.5677 58.3791C38.6854 54.7327 34.8235 53.8762 30.4488 55.2199C26.1715 47.6808 20.3198 46.2653 13.9295 51.3273C11.0113 48.7014 9.10345 45.4447 8.0726 41.6803C5.58521 32.5719 9.42143 23.0224 17.458 18.181C25.4997 13.3344 35.7005 14.396 42.6088 20.853C44.4346 22.5352 46.1321 24.3558 47.5169 25.7508Z" fill="#F7E4DB"/>
<path d="M78.1296 59.8408C77.5808 59.3176 77.1244 58.9022 76.6884 58.4663C71.5547 53.3377 66.4363 48.2039 61.2974 43.0855C58.3741 40.1725 54.9533 40.1827 52.0198 43.0804C51.0504 44.0343 50.1273 45.0395 49.1221 45.9524C47.2142 47.6859 44.3986 47.6295 42.6805 45.8755C40.9009 44.06 40.8034 41.3008 42.6754 39.4596C48.9785 33.2591 55.1687 26.9355 61.7334 21.0273C69.7443 13.8165 82.1094 14.714 89.2536 22.6428C96.4696 30.6435 96.0541 42.7727 88.2843 50.24C84.9814 53.4197 81.6171 56.5482 78.1296 59.8408Z" fill="#46CADB"/>
<path d="M25.915 76.801C23.7507 76.7651 22.5506 75.9907 21.8736 74.5444C21.2018 73.1032 21.2787 71.5903 22.4019 70.4261C25.3867 67.3335 28.4075 64.282 31.5154 61.3177C33.0181 59.8868 35.2593 60.1022 36.7261 61.5484C38.1929 62.9999 38.4032 65.2257 36.9569 66.7489C33.9977 69.8619 30.9359 72.8776 27.8382 75.8522C27.2433 76.4368 26.2791 76.6317 25.915 76.801Z" fill="#46CADB"/>
<path d="M20.4378 54.2094C22.6123 54.1837 23.8073 54.9479 24.5202 56.3736C25.2382 57.8148 25.1356 59.3072 24.0381 60.4868C22.1559 62.5126 20.2121 64.4974 18.1658 66.3488C16.6375 67.7336 14.4014 67.4617 12.9705 65.9642C11.5909 64.5179 11.4114 62.3793 12.7756 60.892C14.6424 58.8559 16.6221 56.907 18.6479 55.0299C19.2172 54.5068 20.1301 54.3427 20.4378 54.2094Z" fill="#46CADB"/>
<path d="M42.3882 78.4525C42.3574 81.3964 37.4852 86.2686 35.1312 86.2532C33.5003 86.2429 32.331 85.4172 31.6129 84.012C30.9052 82.6324 31.0129 81.2015 32.0335 80.0476C33.3362 78.5705 34.7414 77.1601 36.2236 75.8626C37.3827 74.8522 38.8187 74.7753 40.1983 75.4882C41.6035 76.2216 42.3779 77.4063 42.3882 78.4525Z" fill="#46CADB"/>
<path d="M101.742 102H0V203.742H101.742V102Z" fill="#FA8433"/>
<path d="M56.7503 121.165C59.527 120.047 62.2164 118.483 65.106 117.893C71.6602 116.554 77.2495 118.77 81.412 123.955C85.5231 129.068 85.8054 134.832 83.3418 140.781C81.4171 145.427 78.1323 149.053 74.3445 152.243C69.6329 156.212 64.3413 159.279 58.7212 161.735C57.6947 162.181 56.1087 162.202 55.1079 161.725C47.6555 158.171 40.6547 153.899 34.9423 147.827C29.9689 142.54 27.7157 136.329 29.7174 129.165C32.7148 118.442 46.398 114.016 55.5749 120.647C56.0163 120.965 56.4526 121.298 56.8889 121.621C56.8375 121.467 56.7913 121.319 56.7503 121.165Z" fill="#FDCC00"/>
<path d="M10.6704 177.11C15.8696 173.633 20.8892 170.135 26.0577 166.874C29.0191 165.007 32.3809 164.838 35.8146 165.515C42.6254 166.853 49.4568 168.115 56.2727 169.417C58.8903 169.915 60.4917 171.792 60.271 174.059C60.0349 176.474 58.182 178.007 55.4207 178.018C50.5089 178.038 45.5971 178.043 40.6904 178.033C39.6896 178.033 38.6477 178.084 38.6272 179.346C38.6066 180.618 39.6383 180.695 40.6494 180.69C45.6176 180.669 50.5808 180.684 55.5491 180.659C59.7988 180.633 62.5652 178.033 63.0117 173.823C63.063 173.32 63.5506 172.643 64.0074 172.443C69.2067 170.176 74.4367 167.971 79.6667 165.787C81.6992 164.935 83.5931 165.592 84.4707 167.356C85.3176 169.064 84.7633 170.951 82.9515 172.043C74.0312 177.423 65.1109 182.802 56.1496 188.11C53.4909 189.685 50.5243 190.367 47.4243 190.264C37.4467 189.926 27.464 189.562 17.4864 189.136C16.8756 189.11 16.0031 188.597 15.7465 188.069C14.0117 184.51 12.4052 180.884 10.6704 177.11Z" fill="#F7E4DB"/>
<path d="M203.742 0H102V101.742H203.742V0Z" fill="#1D1D1C"/>
<path d="M157.399 56.3352C157.266 56.2788 157.138 56.2173 157.005 56.1609C154.815 55.7096 153.117 54.5403 151.804 52.971C149.25 50.8376 147.296 48.0734 146.552 44.6785C145.322 39.0475 146.783 32.0217 149.886 26.9907H126.607V76.9256H178.909V57.2481C172.57 60.2328 162.805 58.6174 157.399 56.3352Z" fill="#1E7E8B"/>
<path d="M195.705 35.1702C195.546 35.6472 195.397 36.6882 194.884 37.5088C192.905 40.6832 192.228 43.95 192.92 47.7245C193.607 51.4733 192.382 53.4478 188.751 54.6991C185.227 55.9094 182.873 58.1505 181.16 61.3198C180.222 63.0634 178.693 64.1148 176.673 64.2276C175.944 64.2686 175.185 64.1507 174.473 63.9763C173.283 63.684 172.103 63.3147 170.939 62.9301C169.544 62.4685 168.175 62.4583 166.774 62.9198C165.574 63.3199 164.359 63.6686 163.138 64.0122C160.579 64.7302 158.24 63.925 156.774 61.7301C152.83 55.8427 154.435 57.1966 147.922 54.3144C145.547 53.2631 144.368 51.1195 144.614 48.5296C144.706 47.5296 144.742 46.5091 144.952 45.5295C145.388 43.4833 145.009 41.6269 143.957 39.8473C143.444 38.9858 143.019 38.0678 142.593 37.1549C141.485 34.7907 141.901 32.4214 143.752 30.5906C144.68 29.6726 145.629 28.7752 146.609 27.9136C147.716 26.9341 148.363 25.7238 148.67 24.293C148.952 22.9852 149.24 21.6724 149.599 20.38C150.271 17.98 152.26 16.4363 154.743 16.2773C161.671 15.826 159.759 16.5697 165.308 12.4875C167.595 10.8054 170.057 10.79 172.339 12.467C178.047 16.6517 175.965 15.785 183.012 16.2876C185.499 16.462 187.433 18.021 188.099 20.457C188.494 21.8929 188.699 23.3904 189.197 24.7853C189.561 25.8058 190.14 26.8008 190.843 27.6264C191.751 28.6982 192.884 29.5855 193.905 30.5701C195.054 31.6676 195.659 33.0317 195.705 35.1702ZM168.841 56.0581C178.899 56.053 187.13 47.8271 187.14 37.7703C187.151 27.7136 178.94 19.4723 168.882 19.4415C158.784 19.4108 150.506 27.6828 150.527 37.7857C150.548 47.8373 158.789 56.0632 168.841 56.0581Z" fill="#FDCC00"/>
<path d="M168.882 21.2261C177.955 21.2518 185.371 28.6982 185.361 37.7651C185.35 46.8834 177.842 54.3297 168.734 54.2682C159.661 54.2067 152.271 46.7398 152.312 37.6677C152.353 28.6059 159.815 21.2005 168.882 21.2261ZM166.492 39.119C165.441 38.0472 164.338 36.8984 163.205 35.7753C161.979 34.5599 160.497 34.483 159.461 35.5548C158.451 36.601 158.538 38.0267 159.718 39.2216C161.343 40.8678 162.979 42.4986 164.621 44.1294C166.026 45.5192 167.293 45.5243 168.688 44.1294C170.324 42.4986 171.944 40.8524 173.57 39.2062C175.119 37.642 176.688 36.1035 178.196 34.5035C179.176 33.4624 179.119 32.0367 178.17 31.088C177.222 30.1392 175.806 30.1239 174.75 31.0675C174.442 31.3393 174.17 31.647 173.878 31.9342C171.457 34.2881 169.031 36.6523 166.492 39.119Z" fill="#1E7E8B"/>
<path d="M203.74 102H102V203.74H203.74V102Z" fill="#FDCC00"/>
<path d="M152.87 108.109C128.13 108.109 108.077 128.151 108.077 152.873C108.077 177.594 128.13 197.637 152.87 197.637C177.61 197.637 197.663 177.594 197.663 152.873C197.663 128.151 177.61 108.109 152.87 108.109ZM152.87 191.631C131.448 191.631 114.083 174.279 114.083 152.868C114.083 131.457 131.448 114.105 152.87 114.105C174.292 114.105 191.657 131.457 191.657 152.868C191.657 174.279 174.292 191.631 152.87 191.631Z" fill="#F7E4DB"/>
<path d="M170.548 156.481H149.26V124.831C149.26 122.837 150.875 121.223 152.87 121.223C154.865 121.223 156.481 122.837 156.481 124.831V149.26H170.543C172.538 149.26 174.153 150.874 174.153 152.868C174.153 154.861 172.543 156.481 170.548 156.481Z" fill="#F7E4DB"/>
<path d="M204 0H224.348V81.3934C224.348 92.6314 215.238 101.742 204 101.742V101.742V0Z" fill="#2DC7CA"/>
</svg>
