<svg width="21" height="16" viewBox="0 0 21 16" fill="none" xmlns="http://www.w3.org/2000/svg">
<path d="M0.000410156 8.50316C0.114023 8.17941 0.365449 8.04313 0.715313 8.03889C1.05 8.03504 1.38469 8.03004 1.71937 8.0258C1.79936 8.02465 1.87934 8.0258 1.93143 8.0258C2.23412 4.25467 4.11182 1.56606 7.98041 0.398452C11.1394 -0.555111 13.9601 0.24485 16.4046 2.35023C15.766 2.92807 15.1487 3.48666 14.5441 4.0337C12.2391 2.23975 9.78264 1.87326 7.21916 3.40081C5.4682 4.44446 4.6643 6.05631 4.59375 8.02965C4.80457 8.02965 4.99365 8.02773 5.18273 8.03004C5.42186 8.03312 5.66098 8.03427 5.89969 8.04582C6.16629 8.05853 6.40582 8.13744 6.5059 8.39383C6.60803 8.65561 6.51041 8.89082 6.31189 9.07753C5.61217 9.7366 4.90506 10.3883 4.20041 11.0424C4.06424 11.1687 3.93094 11.298 3.7882 11.4174C3.41947 11.7253 3.13359 11.7392 2.78127 11.4201C1.91625 10.6355 1.06271 9.83938 0.214922 9.03865C0.111563 8.94125 0.0701367 8.78573 0 8.65753C0.000410156 8.60595 0.000410156 8.55475 0.000410156 8.50316Z" fill="white"/>
<path d="M21.0005 7.54074C20.8861 7.92417 20.5711 8.0258 20.1982 8.03234C19.8168 8.03889 19.4353 8.03388 19.0715 8.03388C18.727 11.9244 16.7176 14.618 12.6743 15.7082C9.61456 16.5336 6.61098 15.5323 4.6168 13.6398C5.23409 13.0823 5.85096 12.5249 6.45635 11.9783C8.7561 13.7687 11.2121 14.1345 13.7768 12.6123C15.5155 11.5806 16.321 9.9849 16.4043 8.0335C16.0745 8.0335 15.7694 8.03619 15.4638 8.03234C15.3141 8.03042 15.1632 8.02618 15.0151 8.00655C14.7731 7.97421 14.5639 7.88144 14.4864 7.64276C14.4052 7.39291 14.4917 7.1704 14.6796 6.99255C15.301 6.40586 15.9293 5.82533 16.5564 5.24364C16.7701 5.04538 16.9818 4.84405 17.2049 4.65541C17.5765 4.34051 17.8673 4.33011 18.2287 4.65657C19.0896 5.43574 19.939 6.22569 20.7819 7.0218C20.8893 7.12344 20.9287 7.28897 20.9997 7.42486C21.0005 7.46375 21.0005 7.50224 21.0005 7.54074Z" fill="white"/>
</svg>
