<svg width="21" height="25" viewBox="0 0 21 25" fill="none" xmlns="http://www.w3.org/2000/svg">
<g clip-path="url(#clip0_202_226)">
<path d="M14.9045 7.27282C14.9045 7.55115 14.9045 7.76859 14.9045 7.98728C14.9045 10.906 14.9057 13.826 14.9057 16.7447C14.9045 20.4102 12.2658 23.4867 8.63739 24.0558C4.99892 24.6274 1.51931 22.5151 0.360694 19.0322C-1.17488 14.4174 2.40182 9.48081 7.3048 9.43235C7.76118 9.42739 7.95408 9.57773 7.94147 10.0412C7.91878 10.8687 7.92004 11.6975 7.94021 12.525C7.95029 12.9475 7.81035 13.0643 7.36279 13.0941C5.57634 13.2159 4.31182 14.2435 3.82896 15.8799C3.43562 17.2107 3.97899 18.8123 5.16786 19.7019C6.37564 20.604 7.71454 20.7705 9.08243 20.1381C10.502 19.482 11.3429 18.3836 11.3492 16.777C11.3681 11.4589 11.382 6.13838 11.3971 0.817828C11.3997 0.00644932 11.3997 0.00520683 12.2317 0.00520683C12.9667 0.00520683 13.703 0.0163897 14.438 0.00147921C14.7759 -0.00597603 14.9499 0.0660913 15.0356 0.447551C15.6987 3.37746 17.5243 5.15056 20.5387 5.68858C20.8677 5.74698 21.0039 5.85881 20.9976 6.20175C20.9787 7.23679 20.9736 8.27307 20.9989 9.30686C21.0089 9.73429 20.8274 9.82748 20.4391 9.82748C18.4837 9.82375 16.841 9.12545 15.5008 7.72759C15.3722 7.5934 15.2436 7.45796 15.1125 7.32501C15.0999 7.31134 15.0722 7.31382 14.9045 7.27282Z" fill="#FFA400"/>
</g>
<defs>
<clipPath id="clip0_202_226">
<rect width="21" height="24.15" fill="white"/>
</clipPath>
</defs>
</svg>
