<svg width="60" height="62" viewBox="0 0 60 62" fill="none" xmlns="http://www.w3.org/2000/svg">
<path d="M30.0991 1.25874e-06C46.6107 -0.00479936 59.9953 13.7226 60 30.6688C60.0047 47.7134 46.6527 61.4552 30.0897 61.4504C13.6341 61.4432 0.300696 47.6558 0.30536 30.6592C0.310024 13.7682 13.6854 0.00480188 30.0991 1.25874e-06ZM14.3313 41.9262C18.6545 44.737 23.3461 45.5435 28.2779 44.5234C37.3394 42.6511 43.5793 34.7349 43.7612 25.0112C43.7752 24.26 43.9851 23.7799 44.54 23.2902C45.4098 22.5197 46.163 21.6124 46.9675 20.7627C46.9068 20.7051 46.8462 20.6451 46.7856 20.5875C45.7666 20.8587 44.7499 21.1275 43.7216 21.4012C44.6077 20.213 45.4331 19.1065 46.2563 18.0023C46.177 17.9255 46.0977 17.8511 46.0184 17.7743C45.1696 18.12 44.3138 18.4488 43.4721 18.816C42.5487 19.2217 41.8444 19.1449 40.9653 18.4368C38.7478 16.6558 36.2271 16.4997 33.7507 17.8367C31.3163 19.1497 30.0991 21.322 30.113 24.1855C30.1154 24.6536 30.113 25.1217 30.113 25.6521C24.4211 25.2393 19.8367 22.7286 16.1384 18.3744C14.4828 21.5884 15.0005 24.2528 18.0156 27.7548C16.9313 27.474 16.1081 27.2579 15.1684 27.0155C15.3456 30.4552 17.1365 32.577 20.0955 33.9836C19.312 34.0316 18.5309 34.0796 17.6565 34.1348C18.1065 35.5486 18.8573 36.6816 19.9976 37.3945C21.1122 38.0929 22.3691 38.5466 23.5839 39.1203C20.865 41.1893 17.766 42.0511 14.3313 41.9262Z" fill="#005CB9"/>
</svg>
