<svg width="28" height="28" viewBox="0 0 28 28" fill="none" xmlns="http://www.w3.org/2000/svg">
<g clip-path="url(#clip0_281_410)">
<path d="M13.1911 0C13.8967 0 14.6011 0 15.3067 0C15.4236 0.0323556 15.5381 0.0821333 15.6576 0.0945778C21.3895 0.689422 26.04 4.64178 27.5333 10.2144C27.7399 10.986 27.8469 11.7836 28 12.5689C28 13.2745 28 13.9788 28 14.6844C27.9664 14.8226 27.9154 14.9607 27.9004 15.1013C27.6329 17.7259 26.6635 20.0679 25.0108 22.1113C20.9067 27.1849 14.0946 28.7056 8.20089 25.9006C7.97938 25.7948 7.67449 25.709 7.45796 25.7762C5.13209 26.4992 2.81618 27.2533 0.497778 28C0.332267 28 0.165511 28 0 28C0 27.8345 0 27.6677 0 27.5022C0.740444 25.3556 1.49458 23.2139 2.20391 21.056C2.29724 20.7698 2.25369 20.3604 2.11556 20.0891C0.861156 17.6325 0.241422 15.0466 0.594844 12.2951C1.33031 6.5632 4.47253 2.71164 9.88587 0.746667C10.9387 0.364622 12.0873 0.242667 13.1911 0ZM4.29458 23.7888C5.45067 23.4229 6.49102 23.1131 7.51769 22.7609C7.92711 22.6203 8.24818 22.6588 8.62276 22.8866C10.8279 24.2268 13.2309 24.7035 15.7771 24.3588C21.4443 23.5909 25.5671 18.5273 25.1054 12.7668C24.645 7.02862 19.8165 2.85476 14.3908 2.85849C10.0974 2.86222 6.77351 4.75378 4.70649 8.50453C2.63324 12.2677 2.88836 16.0546 5.22418 19.6722C5.45191 20.0244 5.49547 20.3218 5.35609 20.7063C5.00018 21.6882 4.67289 22.6825 4.29458 23.7888Z" fill="white"/>
<path d="M11.4514 12.6869C12.5614 14.2562 13.8482 15.5454 15.5643 16.3643C15.8978 16.5235 16.1193 16.5099 16.3408 16.1913C16.5885 15.8341 16.8784 15.5068 17.1559 15.1721C17.4222 14.851 17.7533 14.7266 18.149 14.9107C19.1047 15.3563 20.0766 15.7756 20.9988 16.2821C21.2178 16.4028 21.3821 16.8197 21.387 17.1035C21.4256 19.112 19.7033 20.0939 18.4103 20.1573C16.3632 20.2581 14.5538 19.4816 12.8688 18.4263C10.8391 17.1557 9.36072 15.3388 8.14615 13.3116C7.42063 12.1008 7.1369 10.7817 7.56126 9.37421C7.99806 7.92568 8.97495 7.16905 10.4621 7.26612C10.7669 7.28603 11.1776 7.57225 11.3182 7.84852C11.7675 8.73083 12.1682 9.64923 12.4669 10.5913C12.5689 10.9136 12.3748 11.379 12.2055 11.725C12.0363 12.0684 11.7289 12.3435 11.4514 12.6869Z" fill="white"/>
</g>
<defs>
<clipPath id="clip0_281_410">
<rect width="28" height="28" fill="white"/>
</clipPath>
</defs>
</svg>
