<svg width="32" height="28" viewBox="0 0 32 28" fill="none" xmlns="http://www.w3.org/2000/svg">
<mask id="path-1-inside-1_223_246" fill="white">
<path d="M31.9797 6.76763C31.9864 6.73371 32 6.70317 32 6.66586C32 6.65568 31.9932 6.6455 31.9932 6.63533C31.9898 6.58784 31.9763 6.54374 31.9661 6.49964C31.9559 6.45893 31.9491 6.42161 31.9322 6.3843C31.9152 6.34698 31.8881 6.31645 31.8643 6.28253C31.8372 6.24861 31.8169 6.21129 31.783 6.18076C31.7558 6.15362 31.7219 6.13666 31.688 6.11631C31.6473 6.08917 31.6066 6.06203 31.5591 6.04507C31.549 6.04168 31.5422 6.03489 31.532 6.0315C31.4981 6.02132 31.4676 6.02472 31.4337 6.02132C31.3997 6.01454 31.3692 6.00097 31.3319 6.00097H7.08436C7.03349 6.00097 6.98601 6.01793 6.93853 6.0315L5.30733 0.478314C5.22255 0.193361 4.96482 0 4.66638 0H0.66808C0.298432 0 0 0.298522 0 0.668282C0 1.03804 0.298432 1.33656 0.66808 1.33656H4.16787L10.6961 23.5222C10.7808 23.8071 11.0386 24.0005 11.337 24.0005H12.2798C12.0492 24.394 11.9101 24.8452 11.9101 25.3337C11.9101 26.8059 13.1072 28 14.5757 28C16.0475 28 17.2412 26.8025 17.2412 25.3337C17.2412 24.8452 17.0988 24.394 16.8716 24.0005H21.5515C21.3209 24.394 21.1819 24.8452 21.1819 25.3337C21.1819 26.8059 22.379 28 23.8474 28C25.3192 28 26.5129 26.8025 26.5129 25.3337C26.5129 24.8452 26.3705 24.394 26.1433 24.0005H27.337C27.7067 24.0005 28.0051 23.702 28.0051 23.3322C28.0051 22.9624 27.7067 22.6639 27.337 22.6639H11.8321L11.0487 19.9976H27.3336C27.415 19.9976 27.493 19.9772 27.5676 19.9501C27.5914 19.9399 27.6151 19.9263 27.6388 19.9128C27.6863 19.889 27.727 19.8619 27.7677 19.8246C27.788 19.8042 27.8084 19.7873 27.8287 19.7635C27.8627 19.7262 27.8898 19.6821 27.9135 19.638C27.9271 19.6109 27.944 19.5871 27.9542 19.56C27.9576 19.5498 27.9644 19.5396 27.9712 19.5294L29.7719 13.8236C29.911 13.7015 30.0025 13.5285 30.0025 13.3283C30.0025 13.2774 29.9856 13.2333 29.9754 13.1858L31.9729 6.85922C31.9797 6.83208 31.9729 6.79816 31.9797 6.76763ZM15.9084 25.3337C15.9084 26.0698 15.3116 26.6668 14.5757 26.6668C13.8398 26.6668 13.2429 26.0698 13.2429 25.3337C13.2429 24.5975 13.8398 24.0005 14.5757 24.0005C15.3082 24.0005 15.9084 24.5975 15.9084 25.3337ZM25.1802 25.3337C25.1802 26.0698 24.5833 26.6668 23.8474 26.6668C23.1115 26.6668 22.5146 26.0698 22.5146 25.3337C22.5146 24.5975 23.1115 24.0005 23.8474 24.0005C24.5799 24.0005 25.1802 24.5975 25.1802 25.3337ZM28.741 12.6634H28.4968L26.8961 7.32736H30.4231L28.741 12.6634ZM26.8453 18.6678H26.4892L25.014 14H28.3171L26.8453 18.6678ZM22.4875 18.6678L21.0123 14H23.6134L25.0886 18.6678H22.4875ZM18.4892 18.6678L17.014 14H19.6151L21.0903 18.6678H18.4892ZM14.4909 18.6678L13.0157 14H15.6168L17.092 18.6678H14.4909ZM13.5142 7.33075L15.1997 12.6668H12.5952L10.9097 7.33075H13.5142ZM17.5125 7.33075L19.198 12.6668H16.5969L14.9114 7.33075H17.5125ZM21.5108 7.33075L23.1963 12.6668H20.5952L18.9097 7.33075H21.5108ZM25.5057 7.33075L27.1064 12.6668H24.5969L22.9114 7.33075H25.5057ZM9.5125 7.33075L11.198 12.6668H8.8919L7.32175 7.33075H9.5125ZM9.28529 14H11.6185L13.0937 18.6678H10.6689C10.6655 18.6678 10.6621 18.6712 10.6588 18.6712L9.28529 14Z"/>
</mask>
<path d="M31.9797 6.76763C31.9864 6.73371 32 6.70317 32 6.66586C32 6.65568 31.9932 6.6455 31.9932 6.63533C31.9898 6.58784 31.9763 6.54374 31.9661 6.49964C31.9559 6.45893 31.9491 6.42161 31.9322 6.3843C31.9152 6.34698 31.8881 6.31645 31.8643 6.28253C31.8372 6.24861 31.8169 6.21129 31.783 6.18076C31.7558 6.15362 31.7219 6.13666 31.688 6.11631C31.6473 6.08917 31.6066 6.06203 31.5591 6.04507C31.549 6.04168 31.5422 6.03489 31.532 6.0315C31.4981 6.02132 31.4676 6.02472 31.4337 6.02132C31.3997 6.01454 31.3692 6.00097 31.3319 6.00097H7.08436C7.03349 6.00097 6.98601 6.01793 6.93853 6.0315L5.30733 0.478314C5.22255 0.193361 4.96482 0 4.66638 0H0.66808C0.298432 0 0 0.298522 0 0.668282C0 1.03804 0.298432 1.33656 0.66808 1.33656H4.16787L10.6961 23.5222C10.7808 23.8071 11.0386 24.0005 11.337 24.0005H12.2798C12.0492 24.394 11.9101 24.8452 11.9101 25.3337C11.9101 26.8059 13.1072 28 14.5757 28C16.0475 28 17.2412 26.8025 17.2412 25.3337C17.2412 24.8452 17.0988 24.394 16.8716 24.0005H21.5515C21.3209 24.394 21.1819 24.8452 21.1819 25.3337C21.1819 26.8059 22.379 28 23.8474 28C25.3192 28 26.5129 26.8025 26.5129 25.3337C26.5129 24.8452 26.3705 24.394 26.1433 24.0005H27.337C27.7067 24.0005 28.0051 23.702 28.0051 23.3322C28.0051 22.9624 27.7067 22.6639 27.337 22.6639H11.8321L11.0487 19.9976H27.3336C27.415 19.9976 27.493 19.9772 27.5676 19.9501C27.5914 19.9399 27.6151 19.9263 27.6388 19.9128C27.6863 19.889 27.727 19.8619 27.7677 19.8246C27.788 19.8042 27.8084 19.7873 27.8287 19.7635C27.8627 19.7262 27.8898 19.6821 27.9135 19.638C27.9271 19.6109 27.944 19.5871 27.9542 19.56C27.9576 19.5498 27.9644 19.5396 27.9712 19.5294L29.7719 13.8236C29.911 13.7015 30.0025 13.5285 30.0025 13.3283C30.0025 13.2774 29.9856 13.2333 29.9754 13.1858L31.9729 6.85922C31.9797 6.83208 31.9729 6.79816 31.9797 6.76763ZM15.9084 25.3337C15.9084 26.0698 15.3116 26.6668 14.5757 26.6668C13.8398 26.6668 13.2429 26.0698 13.2429 25.3337C13.2429 24.5975 13.8398 24.0005 14.5757 24.0005C15.3082 24.0005 15.9084 24.5975 15.9084 25.3337ZM25.1802 25.3337C25.1802 26.0698 24.5833 26.6668 23.8474 26.6668C23.1115 26.6668 22.5146 26.0698 22.5146 25.3337C22.5146 24.5975 23.1115 24.0005 23.8474 24.0005C24.5799 24.0005 25.1802 24.5975 25.1802 25.3337ZM28.741 12.6634H28.4968L26.8961 7.32736H30.4231L28.741 12.6634ZM26.8453 18.6678H26.4892L25.014 14H28.3171L26.8453 18.6678ZM22.4875 18.6678L21.0123 14H23.6134L25.0886 18.6678H22.4875ZM18.4892 18.6678L17.014 14H19.6151L21.0903 18.6678H18.4892ZM14.4909 18.6678L13.0157 14H15.6168L17.092 18.6678H14.4909ZM13.5142 7.33075L15.1997 12.6668H12.5952L10.9097 7.33075H13.5142ZM17.5125 7.33075L19.198 12.6668H16.5969L14.9114 7.33075H17.5125ZM21.5108 7.33075L23.1963 12.6668H20.5952L18.9097 7.33075H21.5108ZM25.5057 7.33075L27.1064 12.6668H24.5969L22.9114 7.33075H25.5057ZM9.5125 7.33075L11.198 12.6668H8.8919L7.32175 7.33075H9.5125ZM9.28529 14H11.6185L13.0937 18.6678H10.6689C10.6655 18.6678 10.6621 18.6712 10.6588 18.6712L9.28529 14Z" fill="#005CB9" stroke="#005CB9" stroke-width="2" mask="url(#path-1-inside-1_223_246)"/>
</svg>
