<svg width="44" height="44" viewBox="0 0 44 44" fill="none" xmlns="http://www.w3.org/2000/svg">
<path d="M1.43964 1.43952C3.34577 -0.466611 6.42114 -0.481688 8.30868 1.40585L42.4855 35.5827C44.373 37.4702 44.358 40.5456 42.4518 42.4517C40.5457 44.3578 37.4703 44.3729 35.5828 42.4854L1.40597 8.30855C-0.481566 6.42102 -0.466491 3.34565 1.43964 1.43952Z" fill="black"/>
<path d="M1.43952 42.452C-0.466611 40.5458 -0.481688 37.4705 1.40585 35.5829L35.5827 1.4061C37.4702 -0.48143 40.5456 -0.466352 42.4517 1.43978C44.3578 3.34591 44.3729 6.42128 42.4854 8.30881L8.30855 42.4856C6.42102 44.3732 3.34565 44.3581 1.43952 42.452Z" fill="black"/>
</svg>
