<svg width="28" height="26" viewBox="0 0 28 26" fill="none" xmlns="http://www.w3.org/2000/svg">
<path d="M14.4558 26C13.8231 26 13.1904 26 12.5576 26C12.2465 25.9604 11.9349 25.9253 11.6249 25.8812C8.96265 25.5002 6.60625 24.4713 4.59258 22.7496C2.25094 20.7475 0.781939 18.2599 0.219334 15.2868C0.133388 14.8317 0.0780235 14.3706 0.00842285 13.9125C0.00842285 13.303 0.00842285 12.6935 0.00842285 12.0841C0.0479687 11.7921 0.0822418 11.499 0.12706 11.2075C0.5125 8.68638 1.5254 6.42631 3.28915 4.5238C6.61785 0.93207 10.7965 -0.547384 15.7318 0.180408C19.1992 0.691843 22.0254 2.37597 24.1736 5.04894C26.4846 7.92405 27.3694 11.1984 26.8764 14.7957C26.5289 17.3315 25.4522 19.5743 23.7048 21.5022C21.6173 23.8049 19.0094 25.2463 15.8816 25.7968C15.4092 25.8801 14.9314 25.933 14.4558 26ZM14.691 10.8012C14.6778 10.7438 14.6704 10.7275 14.6704 10.7113C14.6694 10.2461 14.6678 9.78086 14.6678 9.31513C14.6683 8.70822 14.8935 8.49186 15.5241 8.49084C16.0398 8.49034 16.5555 8.49084 17.0801 8.49084C17.0801 7.62288 17.0801 6.78285 17.0801 5.93215C16.1321 5.93215 15.2019 5.90523 14.2734 5.93824C12.8877 5.98751 11.8674 6.80316 11.5542 8.10841C11.453 8.53147 11.4409 8.9779 11.4203 9.41468C11.3987 9.86771 11.4156 10.3218 11.4156 10.8032C10.8819 10.8032 10.3863 10.8032 9.88012 10.8032C9.88012 11.6986 9.88012 12.5656 9.88012 13.4645C10.3958 13.4645 10.8988 13.4645 11.4324 13.4645C11.4324 15.9871 11.4324 18.4773 11.4324 20.9705C12.5234 20.9705 13.5821 20.9705 14.6667 20.9705C14.6667 18.4651 14.6667 15.9734 14.6667 13.4559C15.407 13.4559 16.1226 13.4559 16.8576 13.4559C16.9525 12.5635 17.0453 11.6956 17.1407 10.8012C16.3092 10.8012 15.5046 10.8012 14.691 10.8012Z" fill="black"/>
</svg>
