<svg width="27" height="26" viewBox="0 0 27 26" fill="none" xmlns="http://www.w3.org/2000/svg">
<path d="M12.0944 0C12.7037 0 13.3131 0 13.9225 0C14.3313 0.0548356 14.7416 0.0969778 15.1478 0.167046C17.5046 0.574251 19.6085 1.53438 21.4249 3.09466C23.7857 5.12256 25.2584 7.66734 25.8094 10.7356C25.8896 11.1824 25.9429 11.6348 26.0084 12.0841C26.0084 12.6934 26.0084 13.3027 26.0084 13.912C25.9917 13.9851 25.9693 14.0577 25.9592 14.1313C25.8998 14.566 25.8683 15.0062 25.7824 15.4357C25.1456 18.6289 23.5582 21.2554 20.9877 23.2523C18.1028 25.4935 14.8157 26.35 11.2021 25.8718C8.65952 25.5351 6.40991 24.4973 4.4792 22.803C2.18948 20.7939 0.755923 18.2892 0.21104 15.2864C0.128267 14.831 0.0754541 14.3705 0.00842285 13.912C0.00842285 13.3027 0.00842285 12.6934 0.00842285 12.0841C0.046001 11.7922 0.0795166 11.4997 0.122173 11.2083C0.491353 8.67977 1.49022 6.43202 3.17057 4.50465C5.18963 2.18835 7.71346 0.740281 10.7466 0.200048C11.193 0.120334 11.6449 0.0660058 12.0944 0ZM20.4235 12.9981C20.3951 12.9981 20.4519 12.9976 20.4235 12.9981C20.3788 11.7815 20.4448 10.562 20.3671 9.34744C20.3153 8.54319 20.0401 7.79783 19.5374 7.15148C18.6731 6.04055 17.4746 5.61608 16.131 5.59374C14.0505 5.55871 11.9689 5.56734 9.88792 5.59171C8.91901 5.60339 7.99581 5.83898 7.20209 6.43963C6.06307 7.30177 5.62534 8.51171 5.60249 9.87549C5.56795 11.9557 5.57608 14.0374 5.60096 16.1176C5.61264 17.0955 5.85131 18.0262 6.46424 18.8233C7.32752 19.9475 8.53206 20.3801 9.88538 20.4029C11.9659 20.4385 14.0474 20.4298 16.1284 20.4044C17.1065 20.3928 18.0363 20.1516 18.834 19.5387C19.9497 18.6817 20.3692 17.4885 20.4164 16.144C20.4524 15.0966 20.4235 14.0471 20.4235 12.9981Z" fill="black"/>
<path d="M6.84815 12.9991C6.88827 11.8318 6.90198 10.6645 6.9751 9.50078C7.06499 8.06794 8.0735 7.01693 9.50249 6.97326C11.7074 6.90573 13.9149 6.91944 16.1213 6.92604C16.7576 6.92808 17.3832 7.06973 17.9235 7.44292C18.6446 7.9405 19.0103 8.66758 19.0377 9.51043C19.0981 11.3774 19.1088 13.2464 19.1098 15.1148C19.1098 15.7282 19.0808 16.3557 18.9524 16.9523C18.6847 18.1963 17.7742 18.9823 16.5017 19.0269C14.6182 19.093 12.7317 19.094 10.8462 19.0985C10.2739 19.1001 9.69139 19.0731 9.13077 18.9686C7.86885 18.734 7.05331 17.7957 6.9751 16.4974C6.90401 15.3332 6.88776 14.1659 6.84815 12.9991ZM13.0069 9.17735C10.8822 9.17786 9.18916 10.8691 9.18713 12.9925C9.18459 15.1158 10.8751 16.8127 12.9973 16.8183C15.1316 16.8239 16.8333 15.124 16.8297 12.9899C16.8256 10.8661 15.1321 9.17684 13.0069 9.17735ZM16.9902 9.90342C17.4767 9.90494 17.8799 9.50789 17.8849 9.023C17.89 8.53811 17.4934 8.1309 17.009 8.12227C16.5128 8.11364 16.102 8.51932 16.1035 9.0169C16.1051 9.50433 16.5022 9.90189 16.9902 9.90342Z" fill="black"/>
<path d="M13.0287 10.5112C14.409 10.5157 15.5028 11.6328 15.4957 13.0306C15.4886 14.3964 14.3724 15.489 12.9886 15.4845C11.6099 15.4799 10.5151 14.3613 10.5217 12.9646C10.5283 11.6008 11.6455 10.5071 13.0287 10.5112Z" fill="black"/>
</svg>
