<svg width="26" height="26" viewBox="0 0 26 26" fill="none" xmlns="http://www.w3.org/2000/svg">
<path d="M12.9702 0.00233665C20.1007 -0.102607 26.1086 5.87918 25.9987 13.1942C25.8955 20.0483 20.37 25.9411 13.2076 26.0007C5.71216 26.0628 -0.0642185 20.2716 0.00122191 12.7794C0.0641454 5.56099 6.04775 -0.0673459 12.9702 0.00233665ZM15.7229 9.80827C15.8345 9.83598 15.8529 9.8343 15.8613 9.84269C15.9486 9.93253 16.0341 10.0232 16.1197 10.1147C17.0124 11.0592 18.1056 11.531 19.406 11.5335C19.6652 11.5344 19.7852 11.4706 19.7785 11.1818C19.7617 10.4824 19.7651 9.78309 19.7777 9.08374C19.7819 8.85203 19.6904 8.77647 19.4723 8.73701C17.4663 8.37432 16.2523 7.17545 15.8101 5.19579C15.7531 4.93889 15.6373 4.89019 15.4125 4.89439C14.9233 4.90447 14.4342 4.89691 13.9442 4.89691C13.3905 4.89775 13.3905 4.89775 13.3888 5.44597C13.3779 9.04092 13.3695 12.6359 13.3569 16.23C13.3528 17.3155 12.7932 18.0568 11.8485 18.501C10.9382 18.9291 10.0472 18.8158 9.24343 18.2063C8.45143 17.606 8.09067 16.523 8.35243 15.6238C8.6746 14.5181 9.51526 13.8238 10.7041 13.7416C11.0019 13.7206 11.0951 13.6425 11.0883 13.357C11.0749 12.7979 11.0741 12.2379 11.0892 11.6788C11.0976 11.3656 10.9684 11.2649 10.6655 11.2674C7.40271 11.2993 5.02252 14.6357 6.0444 17.7538C6.81542 20.107 9.13101 21.5343 11.5523 21.1481C13.9669 20.7636 15.7229 18.684 15.7237 16.2082C15.7246 14.2361 15.7237 12.2631 15.7229 10.291C15.7229 10.1441 15.7229 9.99633 15.7229 9.80827Z" fill="black"/>
</svg>
