<svg width="26" height="26" viewBox="0 0 26 26" fill="none" xmlns="http://www.w3.org/2000/svg">
<path d="M12.486 5.3258e-07C19.401 -0.00203064 25.0065 5.8061 25.0084 12.9761C25.0104 20.1878 19.4186 26.002 12.4821 26C5.59046 25.997 0.00647024 20.1634 0.00842336 12.9721C0.0103765 5.8254 5.61194 0.0020317 12.486 5.3258e-07ZM5.88245 17.7392C7.69299 18.9285 9.65784 19.2697 11.7233 18.8381C15.5182 18.0459 18.1315 14.6965 18.2076 10.5824C18.2135 10.2645 18.3014 10.0614 18.5338 9.85422C18.8981 9.52822 19.2135 9.14433 19.5504 8.78481C19.525 8.76044 19.4996 8.73505 19.4742 8.71068C19.0475 8.82544 18.6217 8.93918 18.191 9.05496C18.5621 8.55225 18.9078 8.08406 19.2526 7.61689C19.2194 7.58439 19.1862 7.55291 19.153 7.52041C18.7975 7.66665 18.4391 7.80579 18.0865 7.96117C17.6998 8.13281 17.4049 8.10031 17.0367 7.80071C16.108 7.04715 15.0524 6.98113 14.0153 7.54681C12.9957 8.10234 12.486 9.02144 12.4918 10.233C12.4928 10.4311 12.4918 10.6291 12.4918 10.8536C10.108 10.6789 8.18811 9.61658 6.63928 7.77431C5.94592 9.13418 6.16272 10.2615 7.42542 11.7432C6.97131 11.6244 6.62659 11.533 6.23303 11.4304C6.30725 12.8857 7.05725 13.7835 8.29651 14.3787C7.96838 14.399 7.64124 14.4193 7.27503 14.4426C7.4635 15.0408 7.77795 15.5202 8.25549 15.8218C8.72229 16.1173 9.24866 16.3093 9.75745 16.552C8.61877 17.4274 7.32092 17.792 5.88245 17.7392Z" fill="black"/>
</svg>
